<?xml version="1.0" encoding="UTF-8"?>
<svg width="200px" height="201px" viewBox="0 0 200 201" version="1.1" xmlns="http://www.w3.org/2000/svg" xmlns:xlink="http://www.w3.org/1999/xlink">
    <!-- Generator: Sketch 63.1 (92452) - https://sketch.com -->
    <title>Code</title>
    <desc>Created with Sketch.</desc>
    <defs>
        <circle id="path-1" cx="100" cy="100" r="100"></circle>
        <linearGradient x1="42.6131058%" y1="3.58870245%" x2="58.5392532%" y2="103.499134%" id="linearGradient-3">
            <stop stop-color="#7F78E3" offset="0%"></stop>
            <stop stop-color="#836BDD" offset="48.4281571%"></stop>
            <stop stop-color="#684CDF" offset="100%"></stop>
        </linearGradient>
        <linearGradient x1="12.1570851%" y1="36.2795869%" x2="93.7464273%" y2="65.815766%" id="linearGradient-4">
            <stop stop-color="#7F78E3" offset="0%"></stop>
            <stop stop-color="#836BDD" offset="48.4281571%"></stop>
            <stop stop-color="#684CDF" offset="100%"></stop>
        </linearGradient>
        <linearGradient x1="12.1570851%" y1="13.2953403%" x2="93.7464273%" y2="92.3101188%" id="linearGradient-5">
            <stop stop-color="#7F78E3" offset="0%"></stop>
            <stop stop-color="#836BDD" offset="48.4281571%"></stop>
            <stop stop-color="#684CDF" offset="100%"></stop>
        </linearGradient>
        <linearGradient x1="22.2406237%" y1="3.58870245%" x2="82.0898519%" y2="103.499134%" id="linearGradient-6">
            <stop stop-color="#7F78E3" offset="0%"></stop>
            <stop stop-color="#836BDD" offset="48.4281571%"></stop>
            <stop stop-color="#684CDF" offset="100%"></stop>
        </linearGradient>
        <linearGradient x1="24.7872225%" y1="3.58870245%" x2="79.1459826%" y2="103.499134%" id="linearGradient-7">
            <stop stop-color="#FFFFFF" offset="0%"></stop>
            <stop stop-color="#247CAD" offset="48.4281571%"></stop>
            <stop stop-color="#1A577A" offset="100%"></stop>
        </linearGradient>
    </defs>
    <g id="Symbols" stroke="none" stroke-width="1" fill="none" fill-rule="evenodd">
        <g id="Coding">
            <g id="Code" transform="translate(0.000000, 0.507812)">
                <mask id="mask-2" fill="white">
                    <use xlink:href="#path-1"></use>
                </mask>
                <use id="Background" fill="#085886" xlink:href="#path-1"></use>
                <path d="M86.26369,170.873786 C136.586804,170.873786 102.460558,89.0474043 177.381749,79.6116505 C252.30294,70.1758966 136.586804,-11.6504854 86.26369,-11.6504854 C35.9405756,-11.6504854 -4.85436893,29.2089646 -4.85436893,79.6116505 C-4.85436893,130.014336 35.9405756,170.873786 86.26369,170.873786 Z" id="Oval" fill-opacity="0.2" fill="#FFFFFF" mask="url(#mask-2)"></path>
                <g id="laptop" mask="url(#mask-2)">
                    <g transform="translate(28.155340, 15.533981)">
                        <path d="M15.9454549,46.8447907 L98.5414814,27.8890593 C99.6006522,27.6458677 100.665086,28.3177286 100.907182,29.3825732 L113.146197,83.1957738 C113.387855,84.2588562 112.719459,85.3298686 111.660726,85.5726197 L29.0646999,104.528351 C28.0055291,104.771543 26.9402182,104.099241 26.6985606,103.035278 L14.4595457,49.2225177 C14.2174495,48.1572326 14.8858455,47.0879824 15.9454549,46.8447907" id="Fill-14981" fill="#FFFFFE"></path>
                        <path d="M24.4846085,44.8847189 L25.1100236,47.6329608 C25.1666004,47.8809986 25.0095888,48.1307987 24.7626682,48.187191 L20.8737789,49.0802154 C20.6259812,49.1366077 20.3777449,48.9797667 20.3216066,48.7321694 L19.6961915,45.9839276 L24.4846085,44.8847189 Z" id="Fill-14982" fill="#39799E"></path>
                        <path d="M90.0014507,29.8486905 L94.7907448,28.7499225 L95.41616,31.4981643 C95.4722982,31.7462022 95.314848,31.9960023 95.068366,32.0523946 L91.1785995,32.9454189 C90.931679,33.0022518 90.6834427,32.8449702 90.6268658,32.5973729 L90.0014507,29.8486905" id="Fill-14983" fill="#39799E"></path>
                        <path d="M2.15825243,23.152109 L100.553248,0.57097169 C102.918949,0.0277555682 103.891281,0.972326018 103.268497,2.7248919 L100.016865,26.5136167 L13.7950969,46.301134 L1.7828279,27.4154524 C-0.459193313,25.178706 -0.447790231,23.7499551 2.15825243,23.152109" id="Fill-14984" fill="#C7C6C1"></path>
                        <polygon id="Fill-14985" fill="#FFFFFE" points="96.8279492 25.4077996 16.2581625 43.8987354 5.92565506 26.4479726 98.5309555 5.19557804"></polygon>
                        <path d="M19.8093451,43.3343722 L23.2386025,42.5475239 C23.4556997,42.4977401 23.6758669,42.6369585 23.725865,42.8554785 L24.6512689,46.9258546 C24.701267,47.1452558 24.5631143,47.3655381 24.3455786,47.4153219 L20.9163212,48.2026108 C20.6987855,48.2523946 20.4786183,48.1136167 20.4290587,47.8946561 L19.5032163,43.8247206 C19.4536567,43.6062005 19.5918094,43.3850371 19.8093451,43.3343722" id="Fill-14987" fill="#FFFFFE"></path>
                        <path d="M90.1146043,27.2000163 L93.5434232,26.4127274 C93.7609589,26.3629436 93.9811261,26.502162 94.0306856,26.7206821 L94.9569667,30.7910582 C95.0065262,31.0100188 94.8688121,31.2307416 94.6503992,31.280966 L91.2215804,32.0678143 C91.0036061,32.1175981 90.7843161,31.9792608 90.7347565,31.7598597 L89.8084755,27.6899241 C89.7589159,27.4709635 89.8961915,27.2502407 90.1146043,27.2000163" id="Fill-14988" fill="#FFFFFE"></path>
                        <path d="M93.8030626,37.0655789 L96.4713836,36.4536347 C96.7735652,36.3840255 97.0792555,36.5765522 97.1485512,36.8809823 L97.6011658,38.8723342 C97.6704614,39.1754426 97.478802,39.4825161 97.1757431,39.5516848 L94.5078607,40.1640695 C94.2052405,40.2336787 93.9004273,40.041152 93.8311317,39.7371624 L93.3780785,37.7458106 C93.3092214,37.4413804 93.5004423,37.1351881 93.8030626,37.0655789" id="Fill-14989" fill="#C7C6C1"></path>
                        <path d="M94.7898677,40.8359305 L97.2121453,40.279938 C97.583184,40.194909 97.9559771,40.42973 98.0401844,40.8015665 L98.6537579,43.5000245 C98.7388424,43.871861 98.5042021,44.2463409 98.133602,44.3313698 L95.7113244,44.8873623 C95.3411628,44.9723913 94.9683698,44.7371298 94.8841624,44.3648527 L94.2701503,41.6668353 C94.1859429,41.2945582 94.4197061,40.9205189 94.7898677,40.8359305" id="Fill-14990" fill="#C7C6C1"></path>
                        <path d="M95.8709675,45.58786 L98.2928065,45.0318675 C98.6634067,44.946398 99.0361997,45.1807783 99.1208457,45.5526148 L99.7339806,48.2501917 C99.8190651,48.6224688 99.5853019,48.9960676 99.2142632,49.0810965 L96.791547,49.637089 C96.4213855,49.722118 96.049031,49.4872971 95.9643851,49.11502 L95.3508116,46.4178837 C95.2661656,46.0456066 95.5003674,45.6720078 95.8709675,45.58786" id="Fill-14991" fill="#C7C6C1"></path>
                        <path d="M96.9511902,50.3384678 L99.3734678,49.7824753 C99.7445065,49.6974464 100.116861,49.9318267 100.201068,50.3045443 L100.81508,53.0016807 C100.899288,53.3730766 100.665086,53.7471159 100.294486,53.8321449 L97.8717697,54.3881374 C97.5020467,54.4731664 97.1292537,54.2383454 97.0450463,53.8669495 L96.4314728,51.1698132 C96.3472654,50.7970955 96.5810286,50.4234968 96.9511902,50.3384678" id="Fill-14992" fill="#C7C6C1"></path>
                        <path d="M98.0314128,55.0886351 L100.45369,54.532202 C100.824729,54.447173 101.197084,54.6824345 101.28173,55.0533899 L101.895303,57.7518479 C101.97951,58.1232439 101.745747,58.4977237 101.375586,58.5827527 L98.9524309,59.1387452 C98.5822694,59.2237742 98.2094763,58.9880721 98.125269,58.6171167 L97.5116955,55.9186587 C97.4274881,55.5477034 97.6612513,55.1732235 98.0314128,55.0886351" id="Fill-14993" fill="#C7C6C1"></path>
                        <path d="M99.1111969,59.8388023 L101.534352,59.2832504 C101.90539,59.1977809 102.277306,59.4326018 102.362391,59.8048788 L102.975526,62.5020152 C103.060172,62.8738517 102.82597,63.247891 102.45537,63.3333605 L100.033092,63.8884719 C99.6629306,63.9735009 99.2905762,63.7386799 99.2054916,63.367284 L98.5923567,60.6701477 C98.5072722,60.29743 98.7419125,59.9242718 99.1111969,59.8388023" id="Fill-14994" fill="#C7C6C1"></path>
                        <path d="M89.0913971,38.1471649 L91.7592795,37.5343396 C92.0618998,37.4651709 92.3671515,37.6576976 92.4368857,37.9621278 L92.8895003,39.9539202 C92.9583574,40.2570286 92.7666979,40.5641021 92.4640777,40.6332708 L89.7957566,41.2456555 C89.4926978,41.3152647 89.1883233,41.122738 89.1190276,40.8183079 L88.6659744,38.8273966 C88.5975559,38.5229665 88.7878997,38.2167741 89.0913971,38.1471649" id="Fill-14995" fill="#C7C6C1"></path>
                        <path d="M85.7722233,42.9057029 L92.4531132,41.3720976 C92.8495895,41.2809007 93.2486974,41.5333442 93.3390449,41.9307335 L93.9315665,44.5344701 C94.0214754,44.9314188 93.7714848,45.3323325 93.3745699,45.4235294 L86.6941185,46.9566941 C86.2976422,47.0474504 85.8989729,46.7958881 85.8081868,46.3980583 L85.2165423,43.7952027 C85.1266334,43.3973729 85.3761855,42.9964592 85.7722233,42.9057029" id="Fill-14996" fill="#C7C6C1"></path>
                        <path d="M89.9198748,46.9531696 L93.534213,46.1235865 C93.9306894,46.0323897 94.32892,46.283952 94.4197061,46.6813413 L95.0117892,49.2837562 C95.1016981,49.6824672 94.8517075,50.0824998 94.4547925,50.1732561 L90.8408929,51.0028392 C90.4448551,51.0940361 90.0466244,50.8420331 89.9567155,50.4437627 L89.3646325,47.8413478 C89.274285,47.443518 89.5233984,47.0434854 89.9198748,46.9531696" id="Fill-14997" fill="#C7C6C1"></path>
                        <path d="M87.4024253,52.529836 L94.6144357,50.8750755 C95.010912,50.7843192 95.4091427,51.0336787 95.4999288,51.4328302 L96.092889,54.0356857 C96.1827979,54.433075 95.9314915,54.8335482 95.5350152,54.924745 L88.3234434,56.5795056 C87.9265285,56.6707025 87.5291749,56.4191401 87.4388275,56.0221914 L86.8467444,53.4188953 C86.7559583,53.0197438 87.0059489,52.6210329 87.4024253,52.529836" id="Fill-14998" fill="#C7C6C1"></path>
                        <path d="M93.3188702,56.1697805 L95.7424635,55.613788 C96.1121865,55.5287591 96.4854182,55.76358 96.5696255,56.1345354 L97.183199,58.8329934 C97.267845,59.2043893 97.0332046,59.5788692 96.6630431,59.6643387 L94.2398883,60.2198907 C93.8701653,60.3053602 93.4978108,60.0696582 93.4131649,59.6982622 L92.7995914,57.0002448 C92.7149455,56.6292894 92.9491472,56.2548095 93.3188702,56.1697805" id="Fill-14999" fill="#C7C6C1"></path>
                        <path d="M94.3990929,60.9203883 L96.8226862,60.3648364 C97.1924092,60.2793669 97.5656408,60.5137472 97.6498482,60.8860243 L98.2638603,63.5836012 C98.3480676,63.9549971 98.1134273,64.329477 97.7432657,64.4140654 L95.3205495,64.9700579 C94.9508266,65.0550869 94.5780335,64.820266 94.4933876,64.4484295 L93.8802527,61.7517337 C93.7951681,61.3790161 94.0298084,61.0054173 94.3990929,60.9203883" id="Fill-15000" fill="#C7C6C1"></path>
                        <path d="M84.7393672,39.1459248 L87.0467369,38.6159256 C87.3497957,38.546757 87.6550474,38.7392837 87.7243431,39.0437138 L88.1769577,41.0350657 C88.2462533,41.3386147 88.0541553,41.644807 87.7510965,41.7148568 L85.4441654,42.244856 C85.1411066,42.3140246 84.8362934,42.1206168 84.7665592,41.8179489 L84.313506,39.8257159 C84.2450875,39.5221669 84.4358699,39.215534 84.7393672,39.1459248" id="Fill-15001" fill="#C7C6C1"></path>
                        <path d="M80.3158489,40.160545 L82.6240957,39.6309864 C82.9258387,39.5618177 83.231529,39.7543445 83.3008247,40.0587746 L83.7534393,42.0501265 C83.8227349,42.354116 83.6310755,42.6603084 83.3284552,42.7299176 L81.0202084,43.2594762 C80.7171496,43.3290854 80.412775,43.1361181 80.3434794,42.8330097 L79.8908648,40.8412173 C79.8215691,40.5372277 80.01279,40.2301542 80.3158489,40.160545" id="Fill-15002" fill="#C7C6C1"></path>
                        <path d="M75.8923305,41.1760463 L78.2001387,40.6464877 C78.5023204,40.5773191 78.8075721,40.7698458 78.8773063,41.0733948 L79.3299209,43.0656278 C79.398778,43.3687362 79.2075571,43.6758097 78.9049368,43.7454189 L76.5962515,44.2749776 C76.2931926,44.3441462 75.9892567,44.1516195 75.919961,43.8476299 L75.4669078,41.8567186 C75.3980508,41.5522885 75.5888331,41.2456555 75.8923305,41.1760463" id="Fill-15003" fill="#C7C6C1"></path>
                        <path d="M71.4679349,42.1915477 L73.7766203,41.6619891 C74.0796791,41.5923799 74.3840537,41.7853471 74.4533493,42.0888961 L74.9064025,44.0806886 C74.9752596,44.383797 74.7849158,44.69043 74.4814185,44.7600392 L72.1731716,45.2900383 C71.8701128,45.3596475 71.5652997,45.1671208 71.4964426,44.8631313 L71.0433894,42.87222 C70.9740938,42.5673493 71.1657533,42.2607163 71.4679349,42.1915477" id="Fill-15004" fill="#C7C6C1"></path>
                        <path d="M67.0452937,43.2061679 L69.3531019,42.6766093 C69.6561607,42.6074406 69.9614125,42.7999674 70.0298309,43.1043975 L70.4828841,45.0953088 C70.5521798,45.3992984 70.3609589,45.7063719 70.0570229,45.7755405 L67.7505304,46.3050991 C67.447033,46.3747083 67.1417813,46.181741 67.0724857,45.8786326 L66.6194325,43.8868402 C66.5505754,43.5828506 66.7422349,43.2762177 67.0452937,43.2061679" id="Fill-15005" fill="#C7C6C1"></path>
                        <path d="M62.6217753,44.2216693 L64.9295835,43.6921106 C65.2322038,43.6225014 65.5374555,43.8150281 65.6063126,44.1198988 L66.0593657,46.1108101 C66.1286614,46.4147997 65.9374405,46.7214327 65.6335045,46.7910419 L63.327012,47.3206005 C63.0235146,47.3897691 62.7182629,47.1968018 62.6494059,46.8936934 L62.1963527,44.901901 C62.127057,44.5979114 62.3187165,44.2908379 62.6217753,44.2216693" id="Fill-15006" fill="#C7C6C1"></path>
                        <path d="M58.1982569,45.2371706 L60.5060651,44.707612 C60.8082468,44.6375622 61.1134985,44.8305295 61.1827942,45.1349596 L61.6354088,47.1263115 C61.7042658,47.4298605 61.5134835,47.7364934 61.2108633,47.8061026 L58.9030551,48.3352207 C58.5995577,48.4052705 58.2947445,48.2123032 58.2258875,47.9083136 L57.7728343,45.9174023 C57.7035386,45.6134127 57.8951981,45.3063392 58.1982569,45.2371706" id="Fill-15007" fill="#C7C6C1"></path>
                        <path d="M53.7738614,46.2517908 L56.0821082,45.7226728 C56.3856056,45.6530636 56.6904187,45.8460308 56.7592758,46.1495798 L57.212329,48.1413723 C57.2816246,48.4444807 57.0904037,48.7515542 56.7869063,48.8211634 L54.4790981,49.350722 C54.1764779,49.4203312 53.8716647,49.227364 53.8023691,48.9242555 L53.3493159,46.9324631 C53.2804588,46.628033 53.4716797,46.3218406 53.7738614,46.2517908" id="Fill-15008" fill="#C7C6C1"></path>
                        <path d="M49.350343,47.2672922 L51.6590284,46.7377335 C51.9625258,46.6681243 52.2664617,46.8610916 52.3357574,47.1650812 L52.7888106,49.1559925 C52.8576677,49.4604226 52.6673239,49.766615 52.3638265,49.8362242 L50.0555797,50.3657828 C49.7520823,50.435392 49.4481463,50.2428653 49.3788507,49.9393163 L48.9257975,47.9475239 C48.8569404,47.6439749 49.0472842,47.3369014 49.350343,47.2672922" id="Fill-15009" fill="#C7C6C1"></path>
                        <path d="M44.9277018,48.2827935 L47.23551,47.7527943 C47.5385688,47.6827446 47.8429434,47.8761524 47.912239,48.180142 L48.364415,50.1714938 C48.4341493,50.4750428 48.2438055,50.7821163 47.9403081,50.851285 L45.6329385,51.3808436 C45.3294411,51.4508934 45.0237508,51.2583666 44.9553323,50.9543771 L44.5022791,48.9634658 C44.4329835,48.6585951 44.624643,48.3519621 44.9277018,48.2827935" id="Fill-15010" fill="#C7C6C1"></path>
                        <path d="M40.504622,49.2974137 L42.8111144,48.7678551 C43.1146118,48.6982459 43.419425,48.8916537 43.4887206,49.1952027 L43.9417738,51.1869952 C44.0106309,51.4905442 43.81941,51.7967366 43.5163512,51.8667863 L41.2094201,52.3963449 C40.9059227,52.4659541 40.6011096,52.2729869 40.5318139,51.9694379 L40.0791993,49.9776454 C40.0103422,49.6736559 40.2011246,49.3670229 40.504622,49.2974137" id="Fill-15011" fill="#C7C6C1"></path>
                        <path d="M36.080665,50.3124745 L38.3889118,49.7829159 C38.6919706,49.7137472 38.9967837,49.906274 39.0656408,50.2102635 L39.5182554,52.202056 C39.5879897,52.505605 39.3958916,52.8122379 39.0937099,52.8818471 L36.7850246,53.4114057 C36.4819657,53.4810149 36.1775912,53.2880476 36.1087341,52.9844987 L35.6556809,50.9931468 C35.5868239,50.6891572 35.7771676,50.3820837 36.080665,50.3124745" id="Fill-15012" fill="#C7C6C1"></path>
                        <path d="M31.6575852,51.3279759 L33.9645162,50.7988578 C34.2675751,50.7292486 34.5728268,50.9217753 34.6416838,51.2253243 L35.0951756,53.2171167 C35.1640327,53.5202252 34.9723732,53.8277393 34.6693144,53.8973485 L32.3623833,54.4264665 C32.0584474,54.4960757 31.7540728,54.303549 31.6847771,53.9995594 L31.2321625,52.0086481 C31.1628669,51.7037774 31.3536492,51.3975851 31.6575852,51.3279759" id="Fill-15013" fill="#C7C6C1"></path>
                        <path d="M27.2340668,52.3434772 L29.5409979,51.8130374 C29.8449338,51.7438688 30.1488698,51.9368361 30.2181655,52.2408257 L30.6712187,54.2326181 C30.7405143,54.5357265 30.5492934,54.8428 30.2462346,54.9124092 L27.9384264,55.4419679 C27.6353675,55.5115771 27.3301158,55.3186098 27.2612588,55.0150608 L26.8082056,53.0232683 C26.7393485,52.7192788 26.9301308,52.4130864 27.2340668,52.3434772" id="Fill-15014" fill="#C7C6C1"></path>
                        <path d="M22.2649548,53.4832178 L24.9328373,52.8717141 C25.2354575,52.8021049 25.5402706,52.9946316 25.6091277,53.2986212 L26.0621809,55.2899731 C26.1314766,55.5939626 25.9402557,55.9005956 25.6371968,55.9702048 L22.9693144,56.5825895 C22.6662556,56.6517582 22.3610039,56.4587909 22.2921468,56.1552419 L21.8390936,54.16389 C21.7702365,53.8599005 21.9610189,53.5532675 22.2649548,53.4832178" id="Fill-15015" fill="#C7C6C1"></path>
                        <path d="M80.9995952,44.0009464 L83.3762604,43.4550869 C83.7407205,43.3713796 84.1064962,43.602676 84.1893879,43.9683446 L84.8082243,46.6901526 C84.8919931,47.0558212 84.6621772,47.423252 84.2981557,47.5065187 L81.9210518,48.0519377 C81.5579076,48.1356449 81.1921318,47.9043485 81.1092402,47.5391205 L80.4895266,44.8173126 C80.4070735,44.4512034 80.6360123,44.0842131 80.9995952,44.0009464" id="Fill-15016" fill="#C7C6C1"></path>
                        <path d="M76.1997751,45.1019173 L78.5773175,44.5569389 C78.9417776,44.4727911 79.3066762,44.7040875 79.3900064,45.0693155 L80.0092814,47.791564 C80.092173,48.1572326 79.8636728,48.5246635 79.4987742,48.6079302 L77.1216704,49.1533491 C76.7585261,49.2370564 76.3931889,49.0053194 76.3094201,48.6405319 L75.6905836,45.918724 C75.607692,45.5530554 75.8366308,45.1856245 76.1997751,45.1019173" id="Fill-15017" fill="#C7C6C1"></path>
                        <path d="M71.4003936,46.2037693 L73.7788132,45.6579098 C74.1423961,45.5742025 74.5072947,45.8054989 74.5906249,46.1711675 L75.2094613,48.8929754 C75.2927915,49.258644 75.0638528,49.6260749 74.6998313,49.708901 L72.3218503,50.2547605 C71.958706,50.3384678 71.5938074,50.1067308 71.5104772,49.7415028 L70.8912022,47.020576 C70.8083105,46.6544668 71.0372493,46.287036 71.4003936,46.2037693" id="Fill-15018" fill="#C7C6C1"></path>
                        <path d="M66.6014507,47.3051807 L68.9794317,46.7588806 C69.3430146,46.6756139 69.7079132,46.9069103 69.791682,47.2725789 L70.4100798,49.9943869 C70.4934101,50.3600555 70.2644713,50.7274863 69.9008884,50.810753 L67.523346,51.356172 C67.1593245,51.4398793 66.7939873,51.2081423 66.7110957,50.8433548 L66.0918207,48.1211063 C66.008929,47.7554377 66.2378678,47.3884474 66.6014507,47.3051807" id="Fill-15019" fill="#C7C6C1"></path>
                        <path d="M61.8020692,48.4061516 L64.1800502,47.8607326 C64.5431945,47.7770254 64.9094089,48.0083218 64.9923005,48.3735498 L65.6115755,51.0957983 C65.6949057,51.4614669 65.4650898,51.8288978 65.1019455,51.9121645 L62.7239645,52.4575834 C62.3603816,52.5412907 61.9950444,52.3104349 61.9112756,51.9447663 L61.2920006,49.2233989 C61.2095476,48.8572897 61.4389249,48.4898589 61.8020692,48.4061516" id="Fill-15020" fill="#C7C6C1"></path>
                        <path d="M57.0022491,49.5080036 L59.3815459,48.9621441 C59.7446902,48.8784368 60.1100274,49.1097332 60.192919,49.4754018 L60.8117554,52.1972098 C60.8955242,52.5628784 60.6657083,52.9303092 60.302564,53.0135759 L57.9232672,53.5589949 C57.5610001,53.6427021 57.1947858,53.4114057 57.1118941,53.0461777 L56.4930577,50.3248103 C56.4097275,49.9587012 56.6395434,49.5912703 57.0022491,49.5080036" id="Fill-15021" fill="#C7C6C1"></path>
                        <path d="M52.2033062,50.609415 L54.5812873,50.0635555 C54.9448701,49.9802888 55.3106459,50.2111447 55.3939761,50.5763727 L56.0132511,53.2986212 C56.0961427,53.6638492 55.8663268,54.0317206 55.5027439,54.1149874 L53.1247629,54.6604063 C52.7616186,54.7441136 52.3958429,54.5128172 52.3125127,54.1475891 L51.6932376,51.4257812 C51.610346,51.0601126 51.8401619,50.6926817 52.2033062,50.609415" id="Fill-15022" fill="#C7C6C1"></path>
                        <path d="M47.4048019,51.7108265 L49.7823443,51.164967 C50.1459272,51.0812597 50.5112644,51.3125561 50.594156,51.6782247 L51.213431,54.4000326 C51.2967613,54.7657012 51.0673839,55.1331321 50.703801,55.2159582 L48.3262586,55.7618177 C47.9622371,55.845525 47.5969,55.6142286 47.5140083,55.2490006 L46.8947333,52.5276332 C46.8114031,52.161524 47.0407804,51.7940932 47.4048019,51.7108265" id="Fill-15023" fill="#C7C6C1"></path>
                        <path d="M42.6049818,52.8122379 L44.9825243,52.2663784 C45.3461071,52.1831117 45.7118829,52.4139675 45.7947745,52.7796361 L46.413611,55.5014441 C46.4973798,55.8671127 46.2675638,56.2345435 45.9044195,56.3178102 L43.5259999,56.8632292 C43.1628556,56.9469364 42.797957,56.7151995 42.715504,56.3499714 L42.0957904,53.6281635 C42.0128988,53.2629355 42.241399,52.8955046 42.6049818,52.8122379" id="Fill-15024" fill="#C7C6C1"></path>
                        <path d="M37.8060389,53.9132088 L40.1831428,53.3682304 C40.5471642,53.2840826 40.9120628,53.515379 40.995393,53.8810476 L41.6146681,56.6028555 C41.6971211,56.9685241 41.4690595,57.335955 41.105038,57.4192217 L38.7274956,57.9646406 C38.3643513,58.0483479 37.998137,57.817492 37.9148068,57.4518234 L37.2959703,54.7304561 C37.2130787,54.3643469 37.4428946,53.996916 37.8060389,53.9132088" id="Fill-15025" fill="#C7C6C1"></path>
                        <path d="M33.0062188,55.0150608 L35.3841999,54.4696418 C35.7477827,54.385494 36.1135585,54.6167904 36.1964501,54.982459 L36.8152866,57.7042669 C36.8986168,58.0699355 36.6692394,58.4373664 36.305218,58.5206331 L33.9272369,59.0660521 C33.5645312,59.1497593 33.1987555,58.9184629 33.1163024,58.5532349 L32.4965888,55.8318675 C32.4136972,55.4657583 32.6430746,55.0983275 33.0062188,55.0150608" id="Fill-15026" fill="#C7C6C1"></path>
                        <path d="M28.2072759,56.1164722 L30.585257,55.5706127 C30.9484012,55.487346 31.3146156,55.7182018 31.3979458,56.0834299 L32.0167822,58.8056784 C32.0996739,59.1709064 31.8702965,59.5387778 31.5067136,59.6220445 L29.1291712,60.1674635 C28.7655883,60.2511708 28.3998126,60.0198744 28.3164824,59.6546463 L27.6972073,56.9332789 C27.6143157,56.5671698 27.8441316,56.1997389 28.2072759,56.1164722" id="Fill-15027" fill="#C7C6C1"></path>
                        <path d="M23.2508828,57.25401 L25.673599,56.6971363 C26.0441991,56.6129885 26.4165536,56.8478094 26.500761,57.2196459 L27.1143344,59.9181039 C27.199419,60.2899404 26.9652172,60.6639798 26.5954942,60.7494493 L24.1719009,61.3050012 C23.8017393,61.3904708 23.4293849,61.1552093 23.3451775,60.7838133 L22.7307268,58.0853553 C22.6465195,57.7130782 22.8807212,57.3390389 23.2508828,57.25401" id="Fill-15028" fill="#C7C6C1"></path>
                        <path d="M24.3784721,61.9949253 L29.3629344,60.8507791 C29.7594107,60.7595823 30.1585186,61.0107041 30.2493046,61.4085339 L30.8405106,64.0109488 C30.9312966,64.4092192 30.6808674,64.8088113 30.284391,64.9004487 L25.2994902,66.0445949 C24.9025753,66.1357918 24.5047831,65.88467 24.4144357,65.485959 L23.821914,62.8831035 C23.7320051,62.4857143 23.9815571,62.0856817 24.3784721,61.9949253" id="Fill-15029" fill="#C7C6C1"></path>
                        <path d="M25.4591333,66.7459737 L31.3861041,65.3855103 C31.7825805,65.294754 32.1803726,65.5445541 32.2711587,65.9437056 L32.8632417,68.5470017 C32.9535892,68.9435098 32.70316,69.3444236 32.3075608,69.4351799 L26.3797129,70.7952027 C25.9841137,70.8863996 25.5854444,70.6343967 25.4950969,70.2378886 L24.9030138,67.6345925 C24.8122278,67.235441 25.0630956,66.83673 25.4591333,66.7459737" id="Fill-15030" fill="#C7C6C1"></path>
                        <path d="M26.539356,71.4957004 L35.0368445,69.5457616 C35.4333208,69.4545647 35.8306744,69.7061271 35.9214604,70.1030758 L36.5135435,72.707253 C36.603891,73.1050828 36.3547775,73.5051154 35.9578626,73.5958717 L27.4603741,75.5462511 C27.0634592,75.637448 26.6656671,75.3858856 26.5753196,74.9880558 L25.9832365,72.3838786 C25.892889,71.9864894 26.1420025,71.5864567 26.539356,71.4957004" id="Fill-15031" fill="#C7C6C1"></path>
                        <path d="M27.6195787,76.2463082 L31.1479552,75.4369911 C31.5435544,75.3457942 31.9417851,75.5964755 32.0325711,75.9951864 L32.6246542,78.5980419 C32.7154403,78.9958717 32.4641339,79.3954638 32.0694119,79.4862201 L28.5405968,80.2959778 C28.1436818,80.3871747 27.7463283,80.1364934 27.6555422,79.7382231 L27.0634592,77.1353675 C26.9726731,76.7370972 27.2226637,76.3375051 27.6195787,76.2463082" id="Fill-15032" fill="#C7C6C1"></path>
                        <path d="M31.3904899,60.3851024 L33.9377629,59.8009138 C34.3267834,59.7114792 34.7179968,59.9581953 34.8065899,60.3485355 L35.4043746,62.9769438 C35.4934063,63.3686057 35.2482401,63.7611487 34.8583424,63.8505833 L32.3119466,64.4352125 C31.9229261,64.5242066 31.5321513,64.2774904 31.442681,63.8867096 L30.8453349,61.2583014 C30.7563032,60.8675206 31.001908,60.4749776 31.3904899,60.3851024" id="Fill-15033" fill="#C7C6C1"></path>
                        <path d="M36.2806575,59.263425 L38.8266147,58.6787958 C39.2160738,58.5893612 39.6077258,58.8360773 39.6967575,59.2268581 L40.2945421,61.8548258 C40.3835739,62.2464877 40.1370919,62.6394713 39.7480714,62.7284654 L37.201237,63.312654 C36.8126551,63.4020886 36.420126,63.155813 36.3310942,62.7645917 L35.7341868,60.1361834 C35.6447164,59.7449621 35.891637,59.3528596 36.2806575,59.263425" id="Fill-15034" fill="#C7C6C1"></path>
                        <path d="M41.1699479,58.141307 L43.7167822,57.5566778 C44.1053642,57.4672432 44.4965776,57.7135188 44.5851707,58.1047401 L45.1829554,60.7331484 C45.2724257,61.1243697 45.0263823,61.5169128 44.6373618,61.6063474 L42.090966,62.1909766 C41.7019455,62.2799706 41.3102935,62.0341356 41.2212618,61.6420331 L40.6234772,59.0140654 C40.5344454,58.6228441 40.7809274,58.2307416 41.1699479,58.141307" id="Fill-15035" fill="#C7C6C1"></path>
                        <path d="M46.0596769,57.019189 L48.6051955,56.4350004 C48.9950932,56.3455658 49.385868,56.592282 49.4748997,56.9830627 L50.0726843,59.6110304 C50.1617161,60.0022518 49.9161113,60.3947948 49.5266522,60.4842294 L46.9802564,61.068418 C46.5912359,61.1578527 46.1995839,60.9115771 46.1109907,60.5203557 L45.5127676,57.8915069 C45.4237358,57.5011667 45.6706564,57.1081831 46.0596769,57.019189" id="Fill-15036" fill="#C7C6C1"></path>
                        <path d="M50.9480901,55.8970711 L53.495363,55.3124419 C53.883945,55.2234478 54.2760355,55.4697234 54.3641901,55.8605042 L54.9624133,58.4889125 C55.0510065,58.8796932 54.8054017,59.2726768 54.4163812,59.3621114 L51.8691082,59.9467406 C51.4800877,60.0361752 51.0893129,59.7894591 50.9998426,59.3977972 L50.4024965,56.7693889 C50.3134648,56.3790487 50.5590696,55.9865057 50.9480901,55.8970711" id="Fill-15037" fill="#C7C6C1"></path>
                        <path d="M55.8378191,54.7745125 L58.3842149,54.1907645 C58.773674,54.1013299 59.1653259,54.3476054 59.2539191,54.7383862 L59.8517037,57.3667945 C59.9407355,57.7584564 59.6946921,58.1505589 59.305233,58.2399935 L56.7592758,58.8246227 C56.3693781,58.9140573 55.9790419,58.6673411 55.8895715,58.2756792 L55.2917869,55.6477115 C55.2027552,55.2569307 55.44836,54.8639471 55.8378191,54.7745125" id="Fill-15038" fill="#C7C6C1"></path>
                        <path d="M60.7275481,53.6528351 L63.2739438,53.0677654 C63.6629644,52.9792119 64.0541778,53.225928 64.1432095,53.6162683 L64.7405555,56.2446765 C64.8295873,56.6358979 64.5839825,57.0284409 64.194962,57.1178755 L61.6481276,57.7025047 C61.2595457,57.7919393 60.8674551,57.5452231 60.7784234,57.1540018 L60.1810773,54.5260341 C60.0924842,54.1348128 60.338089,53.7418292 60.7275481,53.6528351" id="Fill-15039" fill="#C7C6C1"></path>
                        <path d="M65.6163999,52.5307171 L68.1632342,51.9460879 C68.5531319,51.8566533 68.9434682,52.1033695 69.0324999,52.4941503 L69.6307231,55.1225585 C69.7197548,55.5137799 69.4737114,55.9063229 69.0842524,55.9961981 L66.5378566,56.5803867 C66.1483975,56.6698213 65.7580613,56.4226646 65.6685909,56.0318838 L65.0708063,53.4034756 C64.9817746,53.0126948 65.227818,52.6197112 65.6163999,52.5307171" id="Fill-15040" fill="#C7C6C1"></path>
                        <path d="M70.5052517,51.4085992 L73.0525246,50.82397 C73.4415498,50.7349759 73.8327586,50.9812515 73.9213517,51.3720323 L74.5191363,54.0004406 C74.6081681,54.3916619 74.3625633,54.7846455 73.9735428,54.8740801 L71.4262698,55.4587093 C71.0372493,55.5477034 70.6464745,55.3005466 70.5574427,54.9097658 L69.9596581,52.2813576 C69.871065,51.8905768 70.1162312,51.4984743 70.5052517,51.4085992" id="Fill-15041" fill="#C7C6C1"></path>
                        <path d="M75.3958579,50.2864812 L77.9413765,49.7022926 C78.3317127,49.6124174 78.7224875,49.8591336 78.8110807,50.2503549 L79.4097425,52.877882 C79.4983356,53.2699845 79.2527308,53.6625275 78.8623946,53.7519621 L76.316876,54.3361508 C75.9274169,54.4255854 75.5362035,54.1788692 75.4471717,53.7876479 L74.8498257,51.1592396 C74.7607939,50.7684588 75.0063988,50.3759158 75.3958579,50.2864812" id="Fill-15042" fill="#C7C6C1"></path>
                        <path d="M80.2851483,49.1648038 L82.8311054,48.5801746 C83.2205645,48.49074 83.6122165,48.7370156 83.7008097,49.1277964 L84.2985943,51.7562046 C84.3871875,52.147426 84.1415826,52.5404096 83.7525621,52.6298442 L81.2057278,53.2140328 C80.8171459,53.3034674 80.4250553,53.0567512 80.3364621,52.6655299 L79.7386775,50.0371216 C79.6492072,49.6463409 79.8961278,49.2537978 80.2851483,49.1648038" id="Fill-15043" fill="#C7C6C1"></path>
                        <path d="M85.1744387,48.0422452 L87.7208344,47.4580566 C88.1098549,47.368622 88.5010683,47.6148976 88.5901001,48.0056784 L89.1878847,50.6340866 C89.2769164,51.025308 89.0317502,51.4182916 88.6418525,51.5077262 L86.0954568,52.0919148 C85.7064363,52.1813494 85.3143457,51.9346333 85.2253139,51.5434119 L84.6279679,48.9150037 C84.5389362,48.5246635 84.784541,48.1312393 85.1744387,48.0422452" id="Fill-15044" fill="#C7C6C1"></path>
                        <path d="M33.8320651,64.8246716 L36.3784608,64.2400424 C36.7679199,64.1501673 37.1591333,64.3968834 37.2477265,64.7876642 L37.8455111,67.4160724 C37.9345429,67.8068532 37.688938,68.2002774 37.2999175,68.289712 L34.752206,68.8739006 C34.3636241,68.9633352 33.9719721,68.7161785 33.8829404,68.3253977 L33.2855943,65.6969895 C33.196124,65.3057681 33.4421674,64.9141062 33.8320651,64.8246716" id="Fill-15045" fill="#C7C6C1"></path>
                        <path d="M38.7209169,63.7021131 L41.2677512,63.1179245 C41.6563332,63.0284898 42.0479852,63.2743249 42.1370169,63.6655462 L42.7348015,66.294395 C42.8238333,66.6847353 42.5782284,67.0781594 42.1887694,67.167594 L39.641935,67.7517827 C39.2529145,67.8412173 38.8612625,67.5945011 38.7722308,67.2032798 L38.1748847,64.5748715 C38.085853,64.1840907 38.3318964,63.7915477 38.7209169,63.7021131" id="Fill-15046" fill="#C7C6C1"></path>
                        <path d="M43.6110845,62.5799951 L46.1570416,61.9953659 C46.5460622,61.9063719 46.9381527,62.1522069 47.0271845,62.5434282 L47.6249691,65.1722771 C47.7135622,65.5626173 47.4670803,65.9560414 47.0780598,66.0454761 L44.531664,66.6296647 C44.1426435,66.7190993 43.7509915,66.4719426 43.6619597,66.0807212 L43.0637366,63.4527535 C42.9747048,63.0615322 43.2216254,62.6689891 43.6110845,62.5799951" id="Fill-15047" fill="#C7C6C1"></path>
                        <path d="M48.4999363,61.4578771 L51.0467706,60.8736885 C51.4357911,60.7842539 51.8270045,61.0296484 51.9160363,61.4213103 L52.5133823,64.0501591 C52.6024141,64.4409399 52.3572478,64.8339235 51.9673502,64.9233581 L49.4209544,65.5075467 C49.0319339,65.5969813 48.6398433,65.3498246 48.5512501,64.9594844 L47.9534655,62.3306356 C47.8644338,61.9394142 48.1104772,61.5468712 48.4999363,61.4578771" id="Fill-15048" fill="#C7C6C1"></path>
                        <path d="M53.3892267,60.3357592 L55.9356224,59.75113 C56.3250815,59.6616954 56.7162949,59.9075304 56.8053267,60.2991923 L57.4035499,62.9276006 C57.4925816,63.3188219 57.2456611,63.7118055 56.8570791,63.8012401 L54.3106834,64.3858693 C53.9207857,64.4748633 53.5300109,64.2272661 53.4414177,63.8364853 L52.8427559,61.2089581 C52.7546013,60.8172962 53.0002062,60.4247532 53.3892267,60.3357592" id="Fill-15049" fill="#C7C6C1"></path>
                        <path d="M58.2785171,59.2132006 L60.8253514,58.629012 C61.2143719,58.5395774 61.6060239,58.7862935 61.6950557,59.1770743 L62.2919631,61.8054826 C62.3809949,62.1967039 62.1358286,62.589247 61.7463695,62.6791221 L59.1990966,63.2637513 C58.8105147,63.3531859 58.4193013,63.1055886 58.3302695,62.7152484 L57.7324849,60.0868402 C57.6434532,59.6951783 57.889058,59.3026352 58.2785171,59.2132006" id="Fill-15050" fill="#C7C6C1"></path>
                        <path d="M63.1682461,58.0910826 L65.7142032,57.506894 C66.1032238,57.4174594 66.4948757,57.6641756 66.5834689,58.0549564 L67.1816921,60.6833646 C67.2707238,61.074586 67.0246804,61.4680101 66.6360985,61.5570042 L64.0892642,62.1411928 C63.6993665,62.2306274 63.3081531,61.9834707 63.2195599,61.5926899 L62.6217753,58.9647222 C62.5327436,58.5730603 62.778787,58.1809578 63.1682461,58.0910826" id="Fill-15051" fill="#C7C6C1"></path>
                        <path d="M68.0570979,56.9698458 L70.6043708,56.384776 C70.9933913,56.295782 71.3841661,56.541617 71.4731979,56.9332789 L72.0709825,59.5612466 C72.1595757,59.9520274 71.9144094,60.3454516 71.5253889,60.4344456 L68.9776774,61.0195154 C68.5890955,61.1080689 68.1983207,60.8617933 68.1092889,60.4705719 L67.5115043,57.8426042 C67.4224725,57.4509423 67.6680774,57.0588398 68.0570979,56.9698458" id="Fill-15052" fill="#C7C6C1"></path>
                        <path d="M72.9468269,55.8477278 L75.4932226,55.2630986 C75.8831203,55.1732235 76.2738951,55.4194991 76.3629269,55.811161 L76.9611501,58.4391287 C77.0497432,58.8299094 76.8036998,59.2237742 76.4138022,59.3132088 L73.8682835,59.8973974 C73.4788245,59.9863914 73.0876111,59.7392347 72.9985793,59.3484539 L72.4007947,56.7204863 C72.3117629,56.3288243 72.5578064,55.9367219 72.9468269,55.8477278" id="Fill-15053" fill="#C7C6C1"></path>
                        <path d="M77.8361173,54.7251693 L80.3829516,54.1409807 C80.7724107,54.0515461 81.1631855,54.2973811 81.2522173,54.689043 L81.8495633,57.3170107 C81.9381565,57.7077915 81.6934288,58.1012156 81.3044083,58.1906502 L78.7566968,58.7752794 C78.3681149,58.864714 77.9764629,58.6171167 77.8878697,58.226336 L77.2900851,55.5983683 C77.2010533,55.2071469 77.4470968,54.8146039 77.8361173,54.7251693" id="Fill-15054" fill="#C7C6C1"></path>
                        <path d="M82.7254077,53.6030513 L85.272242,53.0188627 C85.6617011,52.9294281 86.0529145,53.1752631 86.1415077,53.566925 L86.7392923,56.1948927 C86.8287626,56.5856735 86.5827192,56.9790977 86.1928215,57.0689728 L83.6468643,57.6527209 C83.2578438,57.7421555 82.8657533,57.4949988 82.7771601,57.104218 L82.1793755,54.4758097 C82.0903437,54.085029 82.3363871,53.6924859 82.7254077,53.6030513" id="Fill-15055" fill="#C7C6C1"></path>
                        <path d="M37.4718409,68.9866852 L40.0186753,68.4024965 C40.4077016,68.3130619 40.7984706,68.5597781 40.8883795,68.95144 L41.485287,71.5794077 C41.5743187,71.9697479 41.3282753,72.3631721 40.9401319,72.4526067 L38.3932976,73.0367953 C38.0038385,73.1262299 37.6126251,72.8795137 37.5240319,72.4882924 L36.9258087,69.8607653 C36.8372156,69.4691034 37.0823818,69.0761198 37.4718409,68.9866852" id="Fill-15056" fill="#C7C6C1"></path>
                        <path d="M42.3615699,67.8645672 L44.9079657,67.2803786 C45.2965476,67.190944 45.6886382,67.4372195 45.7776699,67.829322 L46.3754545,70.4568491 C46.4640477,70.8480705 46.2180043,71.2410541 45.8289838,71.3304887 L43.282588,71.9146773 C42.8931289,72.0045525 42.5010383,71.7573958 42.4120066,71.366615 L41.8150991,68.7386473 C41.7260674,68.347426 41.9716722,67.9540018 42.3615699,67.8645672" id="Fill-15057" fill="#C7C6C1"></path>
                        <path d="M47.2508603,66.7424492 L49.7968175,66.1582606 C50.1867151,66.068826 50.57749,66.3155421 50.6660831,66.707204 L51.2643063,69.3351717 C51.3533381,69.7259525 51.1077333,70.1189361 50.7182742,70.2083707 L48.1718784,70.7929999 C47.7824193,70.8824345 47.3916445,70.6348372 47.3026127,70.2440565 L46.7043895,67.6169699 C46.6153578,67.2244269 46.8614012,66.8318838 47.2508603,66.7424492" id="Fill-15058" fill="#C7C6C1"></path>
                        <path d="M52.1405893,65.6203312 L54.686985,65.0361426 C55.075567,64.946708 55.4676575,65.1934242 55.5566893,65.5850861 L56.1540353,68.2130538 C56.2426285,68.6038345 55.9970237,68.9968181 55.6080031,69.0862528 L53.0611688,69.6708819 C52.6725869,69.759876 52.2809349,69.5127193 52.1923417,69.1219385 L51.5949957,66.4944114 C51.5055254,66.1023089 51.7511302,65.7097658 52.1405893,65.6203312" id="Fill-15059" fill="#C7C6C1"></path>
                        <path d="M57.0294411,64.4982133 L59.5758369,63.9140246 C59.9652959,63.82459 60.3560708,64.0713062 60.4451025,64.4629681 L61.0433257,67.0909358 C61.1319189,67.4817166 60.8863141,67.8747002 60.4972935,67.9645753 L57.9508978,68.548764 C57.5610001,68.6381986 57.1702253,68.3906013 57.0811935,67.9998205 L56.4834089,65.3722934 C56.3943772,64.9801909 56.6404206,64.5880884 57.0294411,64.4982133" id="Fill-15060" fill="#C7C6C1"></path>
                        <path d="M61.9191701,63.3765359 L64.4651273,62.7919067 C64.8545863,62.7024721 65.2462383,62.9487477 65.3352701,63.3408501 L65.9326161,65.9683773 C66.0216479,66.3595986 65.776043,66.7530228 65.3861454,66.8424574 L62.8401882,67.426646 C62.4511677,67.51564 62.0595157,67.2689239 61.9709225,66.8777025 L61.3731379,64.250616 C61.2836676,63.8580729 61.529711,63.4659705 61.9191701,63.3765359" id="Fill-15061" fill="#C7C6C1"></path>
                        <path d="M66.8088991,62.2544179 L69.3548562,61.6697887 C69.7443153,61.5803541 70.1355287,61.8266297 70.2245605,62.2191727 L70.8219065,64.8466998 C70.9113768,65.2374806 70.665772,65.6309048 70.2763129,65.7203394 L67.7299172,66.3040875 C67.3404581,66.3935221 66.9483675,66.1463653 66.8597743,65.7560251 L66.2624283,63.128498 C66.1733966,62.735955 66.4190014,62.3434119 66.8088991,62.2544179" id="Fill-15062" fill="#C7C6C1"></path>
                        <path d="M71.6977509,61.1322999 L74.2441466,60.5476707 C74.6331671,60.4582361 75.0243806,60.7049523 75.1138509,61.0970547 L75.7107583,63.7245819 C75.7997901,64.1153626 75.5546238,64.5087868 75.1651647,64.5977809 L72.618769,65.1824101 C72.2293099,65.2718447 71.8380965,65.0251285 71.7495033,64.6339072 L71.1512801,62.0059395 C71.0622484,61.6142776 71.3087304,61.2217345 71.6977509,61.1322999" id="Fill-15063" fill="#C7C6C1"></path>
                        <path d="M76.5870413,60.0097414 L79.1338756,59.4255527 C79.5224575,59.3365587 79.9141095,59.5828343 80.0031413,59.9744962 L80.6009259,62.6024639 C80.6895191,62.9932447 80.4434757,63.3866688 80.0544551,63.4756629 L77.5089365,64.0598515 C77.1186003,64.1492861 76.7273869,63.90257 76.6383551,63.5113486 L76.0410091,60.8842621 C75.9515388,60.4921596 76.1971436,60.099176 76.5870413,60.0097414" id="Fill-15064" fill="#C7C6C1"></path>
                        <path d="M81.4763317,58.888064 L84.0227274,58.3034348 C84.4130637,58.2144407 84.8033999,58.4602758 84.8928703,58.8528188 L85.4906549,61.4799054 C85.5788095,61.8711267 85.3336432,62.2641103 84.9441841,62.3539855 L82.3973498,62.9381741 C82.0083293,63.0271681 81.6166773,62.780452 81.5280841,62.3896712 L80.9298609,59.7617035 C80.8408292,59.3700416 81.0877497,58.977058 81.4763317,58.888064" id="Fill-15065" fill="#C7C6C1"></path>
                        <path d="M86.3783409,57.7624215 L90.9829928,56.7063882 C91.3799078,56.6151913 91.7772613,56.8667537 91.8671702,57.2637024 L92.4596919,59.8678796 C92.5496008,60.2652688 92.3004873,60.6653015 91.9040109,60.7560578 L87.2997976,61.8129722 C86.9028826,61.904169 86.5046519,61.6526067 86.4143045,61.2552174 L85.8222214,58.6510402 C85.7323125,58.2540915 85.9823031,57.8536183 86.3783409,57.7624215" id="Fill-15066" fill="#C7C6C1"></path>
                        <path d="M33.5829516,74.8774741 L36.129786,74.2932855 C36.5196836,74.2038509 36.9100199,74.450567 36.9990516,74.8422289 L37.5972748,77.4701966 C37.6863066,77.861418 37.4402631,78.2535204 37.0508041,78.342955 L34.5044083,78.9275842 C34.1149492,79.0170188 33.7241744,78.7703027 33.6347041,78.3795219 L33.037358,75.7515542 C32.9483263,75.3603329 33.1943697,74.9669087 33.5829516,74.8774741" id="Fill-15067" fill="#C7C6C1"></path>
                        <path d="M38.4726806,73.7553561 L41.0186378,73.1711675 C41.408974,73.0817329 41.8001874,73.328449 41.8892192,73.720111 L42.4865652,76.3480786 C42.575597,76.7393 42.3299921,77.1314025 41.9400945,77.2203965 L39.3932601,77.8054663 C39.0046782,77.8949009 38.6134648,77.6490658 38.524433,77.2569634 L37.927087,74.6298768 C37.8376167,74.2377743 38.0836601,73.8447907 38.4726806,73.7553561" id="Fill-15068" fill="#C7C6C1"></path>
                        <path d="M43.361971,72.6332381 L45.9088053,72.0490495 C46.2978258,71.9596149 46.6890392,72.2063311 46.778071,72.597993 L47.3758556,75.2259607 C47.4653259,75.6176226 47.2192825,76.0092845 46.8293849,76.0982785 L44.2829891,76.6837889 C43.8939686,76.7723423 43.5023166,76.5265073 43.4132849,76.135286 L42.8163774,73.5077588 C42.7269071,73.1156564 42.9720733,72.7226728 43.361971,72.6332381" id="Fill-15069" fill="#C7C6C1"></path>
                        <path d="M48.2517,71.5111202 L50.7980957,70.9269315 C51.1871162,70.8374969 51.5787682,71.0842131 51.6678,71.475875 L52.265146,74.1038427 C52.3541778,74.495064 52.1081343,74.8871665 51.7191138,74.9766011 L49.1722795,75.5612303 C48.783259,75.6502244 48.3920456,75.4043893 48.3030138,75.0136086 L47.7047906,72.3856409 C47.6161975,71.9930978 47.8622409,71.6009953 48.2517,71.5111202" id="Fill-15070" fill="#C7C6C1"></path>
                        <path d="M55.9602252,69.6115865 C66.8745697,67.1940082 72.454171,65.9571364 72.6990291,65.9009709 L75.2445477,65.3163417 C75.6335682,65.2273476 76.0260974,65.4731827 76.1151291,65.8657257 L76.7129137,68.4928123 C76.8015069,68.8840336 76.5545863,69.2765767 76.1655658,69.3660113 L54.6115681,74.2186485 C54.5418378,74.2347401 54.4911371,74.220473 54.4543761,74.1839571 L54.1151566,74.2618254 C53.7261361,74.3508194 53.3349227,74.1049844 53.2458909,73.7142036 L52.6476677,71.0862359 C52.5590746,70.6936929 52.805118,70.3015904 53.194577,70.2117152 L55.7409728,69.6275266 C55.8146539,69.6105875 55.8884294,69.6057072 55.9602252,69.6115865 L55.9602252,69.6115865 Z" id="Path" fill="#C7C6C1"></path>
                        <path d="M77.5874424,64.7784123 L80.1351539,64.1942237 C80.5241744,64.1047891 80.9145106,64.3515053 81.0035424,64.7431672 L81.6017656,67.3711349 C81.6907973,67.7627968 81.4447539,68.1544587 81.0557334,68.2438933 L78.5084605,68.828963 C78.11944,68.9179571 77.7291037,68.6716815 77.6396334,68.2800196 L77.0418488,65.652933 C76.952817,65.2608305 77.1988604,64.8678469 77.5874424,64.7784123" id="Fill-15076" fill="#C7C6C1"></path>
                        <path d="M82.4898902,63.653651 L87.0941035,62.5967366 C87.4905799,62.5064208 87.888372,62.7566615 87.9791581,63.155813 L88.5708026,65.7591091 C88.6611501,66.1564983 88.411598,66.5556498 88.0151216,66.6468467 L83.4109083,67.7037611 C83.0148705,67.7945174 82.6162012,67.5438362 82.5258537,67.1460064 L81.9337707,64.5431509 C81.8429846,64.1444399 82.0938524,63.7444073 82.4898902,63.653651" id="Fill-15077" fill="#C7C6C1"></path>
                        <path d="M89.6874274,62.0015338 L92.1105821,61.4459819 C92.4803051,61.3609529 92.852221,61.5957738 92.936867,61.9676103 L93.550879,64.6651872 C93.6350864,65.0365832 93.4017618,65.4106225 93.0311617,65.4956515 L90.6088841,66.051644 C90.2378453,66.1366729 89.8654909,65.901852 89.7812835,65.5300155 L89.1681486,62.8328792 C89.0830641,62.4606021 89.3163886,62.0874439 89.6874274,62.0015338" id="Fill-15078" fill="#C7C6C1"></path>
                        <path d="M78.5777561,72.3984172 C78.9658995,72.3098638 79.3540428,72.5552582 79.4421974,72.9438362 L83.1104809,87.8595904 C83.1990741,88.248609 82.9552236,88.6398303 82.5679574,88.7283838 L57.1601379,94.5596965 C56.7728718,94.64825 56.3834127,94.4024149 56.2948195,94.013837 L52.626536,79.0980827 C52.5379428,78.7086236 52.783109,78.318724 53.1699366,78.22973 L78.5777561,72.3984172 Z" id="Fill-15079" fill="#C7C6C1"></path>
                        <polygon id="Fill-15082" fill="#1E466B" points="11.3311268 35.9955026 5.92214642 26.4343151 98.5278854 5.18147997 98.2401769 8.5451905 96.8726535 25.8048653 16.3829351 43.9811657"></polygon>
                    </g>
                </g>
                <g id="arms" mask="url(#mask-2)">
                    <g transform="translate(-10.679612, 83.495146)">
                        <path d="M53.3447326,97.9433775 C72.6000214,92.6424294 81.2183056,79.5524077 79.1995852,58.6733124 C77.1808648,37.7942171 78.9049538,23.4486208 84.3718522,15.6365233 C87.4249948,10.7275301 89.7663402,9.50028175 91.3958885,11.9547784 C93.840211,15.6365233 89.0409803,27.0991019 91.4405956,36.0720631 C93.840211,45.0450244 94.2175007,56.9969321 98.7205905,74.593794 C103.22368,92.190656 101.028438,106.120008 96.6132346,112.546703 C93.6697658,116.831166 79.2469318,118.995636 53.3447326,119.040111 L53.3447326,97.9433775 Z" id="Path" fill="url(#linearGradient-3)"></path>
                        <path d="M53.3447326,97.9433775 C77.3122831,96.7827682 88.2866981,85.7629159 86.2679777,64.8838206 C84.2492573,44.0047253 83.6172155,27.5889595 84.3718522,15.6365233 C87.4249948,10.7275301 89.7663402,9.50028175 91.3958885,11.9547784 C93.840211,15.6365233 89.0409803,27.0991019 91.4405956,36.0720631 C93.840211,45.0450244 94.2175007,56.9969321 98.7205905,74.593794 C103.22368,92.190656 101.028438,106.120008 96.6132346,112.546703 C93.6697658,116.831166 79.2469318,118.995636 53.3447326,119.040111 L53.3447326,97.9433775 Z" id="Path" fill-opacity="0.1" fill="#FFFFFF"></path>
                        <path d="M210.128996,14.8547827 C197.592166,-1.50871597 183.542525,-4.04430216 167.980074,7.24802409 C144.636398,24.1865135 134.3596,2.09647092 128.142258,2.78629842 C121.924916,3.47612592 122.320816,5.43829212 125.558598,11.9547784 C128.796379,18.4712646 141.342852,27.3546695 151.947639,27.3546695 C162.552426,27.3546695 182.30161,17.6097368 190.243009,24.1865135 C195.537274,28.5710312 200.872581,37.805228 206.248928,51.8891038 L218.080655,18.4712646 L210.128996,14.8547827 Z" id="Path-2" fill="url(#linearGradient-4)"></path>
                        <path d="M210.128996,14.8547827 C197.592166,-1.50871597 183.542525,-4.04430216 167.980074,7.24802409 C144.636398,24.1865135 134.3596,2.09647092 128.142258,2.78629842 C121.924916,3.47612592 128.030615,5.43829212 131.268396,11.9547784 C134.506177,18.4712646 150.854927,18.4712646 161.459714,18.4712646 C172.064501,18.4712646 186.870821,1.78688758 194.81222,8.36366423 C200.106486,12.748182 203.918722,27.2566618 206.248928,51.8891038 L218.080655,18.4712646 L210.128996,14.8547827 Z" id="Path-2" fill-opacity="0.1" fill="#FFFFFF"></path>
                        <path d="M0.184683688,27.3546695 C8.1017613,36.762804 31.5203513,25.6771717 40.3489692,21.6392317 C56.2567033,14.3635203 60.0112906,-2.79106738 64.0365155,2.78629842 C66.7199987,6.50454229 64.8473258,14.6939993 58.4184967,27.3546695 C52.3758298,34.6653475 45.5243898,40.5820893 37.8641765,45.1048951 C30.2039633,49.6277009 23.9837989,54.4743788 19.2036835,59.6449288 L16.2538746,59.6449288 C4.47900497,36.8559884 -0.877391983,26.0925686 0.184683688,27.3546695 Z" id="Path-3" fill="url(#linearGradient-5)"></path>
                        <path d="M0.184683688,27.3546695 C8.1017613,36.762804 29.0355586,37.3294854 37.8641765,33.2915454 C53.7719106,26.015834 60.0112906,-2.79106738 64.0365155,2.78629842 C66.7199987,6.50454229 64.8473258,14.6939993 58.4184967,27.3546695 C52.3758298,34.6653475 45.5243898,40.5820893 37.8641765,45.1048951 C30.2039633,49.6277009 23.9837989,54.4743788 19.2036835,59.6449288 L16.2538746,59.6449288 C4.47900497,36.8559884 -0.877391983,26.0925686 0.184683688,27.3546695 Z" id="Path-3" fill-opacity="0.1" fill="#FFFFFF"></path>
                        <path d="M121.060767,124.830466 C133.102318,119.26648 140.253996,108.84042 142.515801,93.5522874 C145.908509,70.6200883 132.984563,69.2789841 119.723428,68.3073677 C106.462294,67.3357513 110.066168,59.6449288 119.431273,59.6449288 C128.796379,59.6449288 139.445772,56.5192538 152.343522,68.3073677 C165.241272,80.0954816 167.198589,91.4568119 167.198589,103.302663 C167.198589,111.199897 151.819315,118.375831 121.060767,124.830466 Z" id="Path-4" fill="url(#linearGradient-6)"></path>
                        <path d="M121.060767,124.830466 C139.39021,118.264967 149.685834,107.338152 151.947639,92.0500189 C155.340347,69.1178199 138.721309,63.8529856 125.460175,62.8813692 C112.19904,61.9097529 110.066168,59.6449288 119.431273,59.6449288 C128.796379,59.6449288 139.445772,56.5192538 152.343522,68.3073677 C165.241272,80.0954816 167.198589,91.4568119 167.198589,103.302663 C167.198589,111.199897 151.819315,118.375831 121.060767,124.830466 Z" id="Path-4" fill-opacity="0.1" fill="url(#linearGradient-7)"></path>
                    </g>
                </g>
            </g>
        </g>
    </g>
</svg>