<?xml version="1.0" encoding="UTF-8"?>
<svg width="330px" height="543px" viewBox="0 0 330 543" version="1.1" xmlns="http://www.w3.org/2000/svg" xmlns:xlink="http://www.w3.org/1999/xlink">
    <!-- Generator: Sketch 64 (93537) - https://sketch.com -->
    <title>Coder</title>
    <desc>Created with Sketch.</desc>
    <defs>
        <linearGradient x1="18.3699007%" y1="3.58870245%" x2="86.5644096%" y2="103.499134%" id="linearGradient-1">
            <stop stop-color="#7F78E3" offset="0%"></stop>
            <stop stop-color="#836BDD" offset="48.4281571%"></stop>
            <stop stop-color="#684CDF" offset="100%"></stop>
        </linearGradient>
        <linearGradient x1="16.0803676%" y1="3.58870245%" x2="89.2111109%" y2="103.499134%" id="linearGradient-2">
            <stop stop-color="#7F78E3" offset="0%"></stop>
            <stop stop-color="#836BDD" offset="48.4281571%"></stop>
            <stop stop-color="#684CDF" offset="100%"></stop>
        </linearGradient>
        <linearGradient x1="12.1570851%" y1="18.52976%" x2="93.7464273%" y2="86.2763094%" id="linearGradient-3">
            <stop stop-color="#7F78E3" offset="0%"></stop>
            <stop stop-color="#836BDD" offset="48.4281571%"></stop>
            <stop stop-color="#684CDF" offset="100%"></stop>
        </linearGradient>
        <linearGradient x1="39.4330123%" y1="3.58870245%" x2="62.2154427%" y2="103.499134%" id="linearGradient-4">
            <stop stop-color="#7F78E3" offset="0%"></stop>
            <stop stop-color="#836BDD" offset="48.4281571%"></stop>
            <stop stop-color="#684CDF" offset="100%"></stop>
        </linearGradient>
        <path d="M146.758786,241.29706 C147.999377,269.836756 146.046024,286.669994 140.898726,291.796774 C132.064047,300.596236 35.3059369,310.652473 24.7035448,287.286233 C20.6956204,278.453309 18.8850883,267.096268 19.2719485,253.21511 C16.4761848,252.448957 14.0569246,251.214996 12.0062363,249.394993 C5.48438289,242.611307 16.9757935,147.824674 19.0364519,120.338432 C19.6977878,111.517154 -0.0736452158,98.6560812 0.758680266,90.1330052 C1.65146645,80.9908071 36.0235357,1.3624628 44.8340645,0.0625660301 C59.0612709,-2.03650206 126.07535,48.9220565 153.597006,116.687907 C157.119627,125.361565 133.365039,148.684307 136.400803,157.29256 C163.154482,233.155665 162.670519,240.281613 157.082661,241.8609 C153.577163,241.608513 150.136019,241.422783 146.758786,241.29706 L146.758786,241.29706 Z" id="path-5"></path>
        <linearGradient x1="12.1570851%" y1="34.1153201%" x2="93.7464273%" y2="68.3105551%" id="linearGradient-7">
            <stop stop-color="#7F78E3" offset="0%"></stop>
            <stop stop-color="#836BDD" offset="48.4281571%"></stop>
            <stop stop-color="#684CDF" offset="100%"></stop>
        </linearGradient>
        <path d="M72.3371467,44.7184007 L68.7938939,0 C42.3417901,13.2786686 26.457387,21.6972884 21.1406846,25.2558594 C13.1656309,30.5937159 -6.27453199,46.6441909 3.6557725,61.6604041 C13.586077,76.6766173 71.2795358,107.690294 104.959359,91.2556167 C138.639182,74.8209393 141.483944,78.7778991 155.331415,71.5043255 C175.365786,60.9809982 160.358374,57.1379001 142.238597,58.5691249 C126.295247,59.8284405 101.721184,69.0799498 83.5862411,67.0114396 C65.451298,64.9429293 60.0229755,64.7821082 48.772002,55.1215388 C41.271353,48.6811593 49.1264012,45.2134466 72.3371467,44.7184007 Z" id="path-8"></path>
        <linearGradient x1="12.1570851%" y1="20.9648407%" x2="93.7464273%" y2="83.4693483%" id="linearGradient-10">
            <stop stop-color="#7F78E3" offset="0%"></stop>
            <stop stop-color="#836BDD" offset="48.4281571%"></stop>
            <stop stop-color="#684CDF" offset="100%"></stop>
        </linearGradient>
        <linearGradient x1="50%" y1="0%" x2="50%" y2="100%" id="linearGradient-11">
            <stop stop-color="#FFFFFF" stop-opacity="0" offset="0%"></stop>
            <stop stop-color="#FFFFFF" offset="100%"></stop>
        </linearGradient>
        <linearGradient x1="24.1153652%" y1="3.58870245%" x2="79.9226499%" y2="103.499134%" id="linearGradient-12">
            <stop stop-color="#7F78E3" offset="0%"></stop>
            <stop stop-color="#836BDD" offset="48.4281571%"></stop>
            <stop stop-color="#684CDF" offset="100%"></stop>
        </linearGradient>
    </defs>
    <g id="Symbols" stroke="none" stroke-width="1" fill="none" fill-rule="evenodd">
        <g id="Coder" transform="translate(-146.000000, -56.000000)">
            <g transform="translate(146.000000, 56.000000)">
                <g id="Squid" transform="translate(20.000000, 272.000000)">
                    <path d="M166.922709,67.2664709 C200.012587,92.2029561 259.535472,99.4198002 259.537253,138.954746 C259.538441,165.311377 263.572564,179.078793 271.639623,180.256994 C273.135283,180.560294 274.377371,177.74675 275.365888,171.816362 C276.354405,165.885975 277.018666,157.262805 277.35867,145.946855 C285.653007,112.80289 279.711671,91.3155072 259.534663,81.4847053 C229.269152,66.7385024 206.88105,61.8290499 206.879603,29.7094301 C165.955747,40.6103669 163.143734,31.9558819 149.169086,41.6794201 C134.536185,51.8609688 149.997076,54.5113375 166.922709,67.2664709 Z" id="Path-14" fill="url(#linearGradient-1)" transform="translate(212.155090, 104.994280) scale(1, -1) rotate(18.000000) translate(-212.155090, -104.994280) "></path>
                    <path d="M166.922709,67.2664709 C200.012587,92.2029561 269.457214,82.0992086 269.458995,121.634155 C269.460183,147.990786 270.187059,167.531732 271.639623,180.256994 C273.135283,180.560294 274.377371,177.74675 275.365888,171.816362 C276.354405,165.885975 277.018666,157.262805 277.35867,145.946855 C285.653007,112.80289 279.711671,91.3155072 259.534663,81.4847053 C229.269152,66.7385024 206.88105,61.8290499 206.879603,29.7094301 C165.955747,40.6103669 163.143734,31.9558819 149.169086,41.6794201 C134.536185,51.8609688 149.997076,54.5113375 166.922709,67.2664709 Z" id="Path-14-Copy" fill-opacity="0.1" fill="#FFFFFF" transform="translate(212.155090, 104.994280) scale(1, -1) rotate(18.000000) translate(-212.155090, -104.994280) "></path>
                    <path d="M221.691238,74.8446103 C222.380863,82.2696075 226.522287,156.118518 221.691238,162.545199 C201.121159,189.909305 121.687908,189.972686 80.7810773,174.994641 C67.158155,170.006604 66.3898434,128.180363 64.7465353,118.574483 C60.3613192,92.9409107 75.2954715,58.7494162 109.548992,16 L191.46614,16 C193.587521,20.7158412 196.405523,19.9954447 198.251303,24.3070549 C211.960082,37.3498668 219.773394,54.1957192 221.691238,74.8446103 Z" id="Path" fill="url(#linearGradient-2)"></path>
                    <g id="Arms-2" transform="translate(0.164262, 0.248864)">
                        <path d="M214.553031,21.8693292 C216.274108,41.6478265 194.292448,45.5462428 180.51834,68.7140619 C167.800093,90.1059408 162.839868,131.180088 172.319007,140.720047 C192.064237,160.591968 144.020276,147.294581 140.279651,128.798521 C136.539026,110.302461 145.870784,85.9788663 156.975006,64.8494185 C168.079228,43.7199708 211.242806,-16.1715353 214.553031,21.8693292 Z" id="Path-9" fill-opacity="0.1" fill="#FFFFFF" transform="translate(177.044304, 80.047283) rotate(144.000000) translate(-177.044304, -80.047283) "></path>
                        <path d="M140.421574,151.539291 C141.482766,143.441024 128.70076,105.408507 143.836519,89.8755208 C158.972277,74.3425349 140.746622,47.7548291 133.220274,38.0011208 C131.811385,36.1752827 86.0080885,7.47158315 100.440523,24.2330128 C113.3519,39.2279282 96.7234858,59.278213 99.8670719,84.8052445 C102.603949,107.029655 119.317634,147.54691 111.463656,175.716 C94.5885733,236.240202 136.370693,182.452749 140.421574,151.539291 Z" id="Path-7" fill-opacity="0.1" fill="#FFFFFF" transform="translate(123.651364, 111.109693) scale(-1, 1) rotate(3.000000) translate(-123.651364, -111.109693) "></path>
                        <path d="M15.8157855,47.0291437 C47.7404556,74.0256914 124.79915,66.6911029 144.89994,87.1568508 C165.00073,107.622599 158.264581,129.29299 134.22845,151.759929 C118.204363,166.737888 72.5847679,175.577949 -2.63033507,178.280111 C-2.93090599,169.519366 3.19835448,162.908799 15.7574463,158.448409 C34.5960841,151.757823 88.9033941,137.410499 103.446557,129.734961 C117.98972,122.059422 125.080123,96.5263042 104.40368,102.313993 C90.7247643,106.142955 92.0001997,96.1303978 55.5213809,111.037876 C25.0749825,136.310211 8.51686862,146.128326 5.84703937,140.492223 C2.69639652,133.841106 6.0193119,102.686746 15.8157855,47.0291437 Z" id="Path-9" fill="url(#linearGradient-3)" transform="translate(77.054727, 112.654628) rotate(262.000000) translate(-77.054727, -112.654628) "></path>
                    </g>
                    <g id="Path-12" transform="translate(124.000000, 111.500000) scale(-1, 1) translate(-124.000000, -111.500000) translate(93.000000, 18.000000)"></g>
                </g>
                <g id="Laptop" transform="translate(64.000000, 352.000000)">
                    <polygon id="Path-3" fill="#FFFFFF" points="8.77103383 128.628861 200.40811 128.628861 206.195391 2 0 2"></polygon>
                    <polygon id="Path-3-Copy" fill-opacity="0.05" fill="#000000" points="8.77103383 128.628861 200.40811 128.628861 66.6892662 92.9179687 0 2"></polygon>
                    <ellipse id="Oval" fill="#686868" cx="104.374641" cy="65.8586207" rx="12.5601253" ry="12.5582342"></ellipse>
                    <polygon id="Rectangle" fill="#E2E2E2" points="3.24511719 0.296146711 203.764648 0.296146711 206.195391 2 0 2"></polygon>
                </g>
                <g id="Squid">
                    <g id="Head" transform="translate(84.000000, 0.000000)">
                        <mask id="mask-6" fill="white">
                            <use xlink:href="#path-5"></use>
                        </mask>
                        <use id="Path" fill="url(#linearGradient-4)" xlink:href="#path-5"></use>
                        <path d="M41.9435593,0.104440845 C50.6040861,-2.808884 111.314311,55.7316344 134.521714,112.524473 C136.815712,118.138312 111.792375,133.981165 114.026538,139.709744 C126.403131,171.444345 156.204411,217.845527 151.561174,236.769547 C146.917937,255.693567 70.7010708,217.442085 18.1678081,250.511011 C-6.35702523,248.403037 -0.851135786,141.738972 0.732386066,112.997678 C1.05959166,107.058819 -15.8783197,78.0532522 -15.4719826,72.3047684 C-13.2610901,41.0270943 35.0659259,2.4180161 41.9435593,0.104440845 Z" id="Triangle" fill-opacity="0.1" fill="#FFFFFF" mask="url(#mask-6)"></path>
                        <path d="M84.1842903,272.207676 C111.14485,250.785073 140.816967,270.590493 140.859141,279.936615 C140.90129,289.282736 34.8232875,309.671 29.6242683,288.634317 C25.445153,271.724449 57.2237303,293.630279 84.1842903,272.207676 Z" id="Rectangle" fill-opacity="0.2" fill="#FFFFFF" mask="url(#mask-6)" transform="translate(85.055351, 280.216787) rotate(5.000000) translate(-85.055351, -280.216787) "></path>
                        <ellipse id="Oval" fill="#FFEEEE" mask="url(#mask-6)" transform="translate(38.511196, 171.796972) scale(-1, 1) rotate(20.000000) translate(-38.511196, -171.796972) " cx="38.5111965" cy="171.796972" rx="5.29482932" ry="9.36365218"></ellipse>
                        <ellipse id="Oval" fill="#FFEEEE" mask="url(#mask-6)" transform="translate(38.971636, 143.833346) scale(-1, 1) rotate(20.000000) translate(-38.971636, -143.833346) " cx="38.9716358" cy="143.833346" rx="7.22046285" ry="13.3061993"></ellipse>
                        <ellipse id="Oval" fill="#FFEEEE" mask="url(#mask-6)" transform="translate(63.950446, 169.616787) scale(-1, 1) rotate(20.000000) translate(-63.950446, -169.616787) " cx="63.9504459" cy="169.616787" rx="4.33201709" ry="7.39237946"></ellipse>
                    </g>
                    <g id="Eyes" transform="translate(118.000000, 234.000000)">
                        <ellipse id="Oval" fill="#FFEEEE" transform="translate(14.674107, 27.159160) rotate(-2.000000) translate(-14.674107, -27.159160) " cx="14.6741068" cy="27.1591596" rx="13.4458694" ry="26.2713703"></ellipse>
                        <ellipse id="Oval" fill="#FFEEEE" transform="translate(80.617922, 27.200095) rotate(-2.000000) translate(-80.617922, -27.200095) " cx="80.6179216" cy="27.2000954" rx="13.4458627" ry="25.7847769"></ellipse>
                        <path d="M14.5803666,50.6251701 C11.5522534,50.0541558 9.71079846,43.7718094 10.4673618,36.5931567 C11.2239251,29.414504 14.2920116,24.0579547 17.3201248,24.628969 C20.3482379,25.1999833 22.1896929,31.4823297 21.4331296,38.6609824 C20.6765662,45.8396351 17.6084798,51.1961844 14.5803666,50.6251701 Z" id="Oval" fill="#1E466B" transform="translate(15.950246, 37.627070) rotate(-2.000000) translate(-15.950246, -37.627070) "></path>
                        <path d="M79.5230216,50.6251701 C76.4949084,50.0541558 74.6534534,43.7718094 75.4100167,36.5931567 C76.1665801,29.414504 79.2346666,24.0579547 82.2627797,24.628969 C85.2908929,25.1999833 87.1323479,31.4823297 86.3757845,38.6609824 C85.6192212,45.8396351 82.5511347,51.1961844 79.5230216,50.6251701 Z" id="Oval" fill="#1E466B" transform="translate(80.892901, 37.627070) rotate(-2.000000) translate(-80.892901, -37.627070) "></path>
                    </g>
                    <g id="Group-6" transform="translate(0.000000, 419.000000)">
                        <mask id="mask-9" fill="white">
                            <use xlink:href="#path-8"></use>
                        </mask>
                        <use id="Path-15" fill="url(#linearGradient-7)" xlink:href="#path-8"></use>
                        <path d="M80.2491755,27.6289062 L68.7938939,0 C41.7386728,10.2994629 23.9316562,17.2007158 15.3728443,20.7037589 C2.53462637,25.9583235 -11.1376963,46.3736593 -1.2073918,61.3898725 C8.72291269,76.4060857 71.2795358,107.690294 104.959359,91.2556167 C138.639182,74.8209393 141.483944,78.7778991 155.331415,71.5043255 C175.365786,60.9809982 161.264463,65.8785596 143.144685,67.3097844 C127.201335,68.5691 91.811099,88.5788877 73.6761559,86.5103774 C55.5412127,84.4418672 17.4745674,69.0992918 26.53125,47.9511195 C32.5690384,33.852338 50.4750136,27.0782669 80.2491755,27.6289062 Z" id="Path-15" fill-opacity="0.1" fill="#FFFFFF" mask="url(#mask-9)"></path>
                    </g>
                    <g id="Group-5" transform="translate(166.000000, 414.000000)">
                        <path d="M107.781331,2.1985039 C155.352464,18.2436135 172.469612,38.3262178 159.132774,62.4463168 C150.875777,77.3793601 129.120108,88.469044 92.2808556,84.471314 C63.9706445,81.3991403 29.5297755,124.159672 21.2025551,126.852973 C7.37587229,131.324985 -3.58525327,127.803541 2.08848508,124.221145 C15.7246679,115.611263 35.007658,74.6459684 61.2555417,62.4463168 C78.7541308,54.3132158 100.311312,51.0340359 125.927085,52.6087771 L99.4906161,44.1265057 L101.623971,0.0664153963 L107.781331,2.1985039 Z" id="Path-13" fill="url(#linearGradient-10)"></path>
                        <path d="M107.781331,2.1985039 C155.352464,18.2436135 172.469612,38.3262178 159.132774,62.4463168 C150.875777,77.3793601 129.120108,88.469044 92.2808556,84.471314 C63.9706445,81.3991403 29.5297755,124.159672 21.2025551,126.852973 C7.37587229,131.324985 -3.58525327,127.803541 2.08848508,124.221145 C15.7246679,115.611263 47.5368303,106.496311 57.2015126,84.471314 C63.6446341,69.7879826 93.9835151,61.5145109 148.218156,59.6508989 C143.579966,37.2792645 128.048571,27.532731 101.623971,30.4112985 C75.1993708,33.2898659 75.1993708,23.1749049 101.623971,0.0664153963 L107.781331,2.1985039 Z" id="Path-13" fill-opacity="0.1" fill="#FFFFFF"></path>
                    </g>
                </g>
                <polygon id="Light" fill-opacity="0.3" fill="url(#linearGradient-11)" points="94.3088455 261 236.047848 261.200095 267.245117 353 68.2451172 353"></polygon>
                <g id="Arm" transform="translate(14.989598, 270.987105)">
                    <path d="M157.361353,20.2599379 C154.36111,11.8938244 134.410389,28.2202712 126.213732,45.239714 C118.017075,62.2591568 129.156861,143.436894 74.4647023,143.434198 C73.0411678,143.434128 67.8153058,143.38122 66.3864792,143.326867 C63.2632954,138.304984 59.7215256,130.353548 55.7611696,119.472559 C51.9626799,109.036294 31.5348828,133.352728 28.6379947,137.118892 C27.7027674,138.334754 21.5516294,148.552641 25.3274624,161.318691 C27.0040238,166.987126 30.073531,174.358407 39.321819,178.512876 C48.570107,182.667344 84.0578781,173.68455 85.3291629,173.284058 C128.830698,159.579818 145.851084,146.738381 145.84878,99.9916345 C145.846409,51.8787653 160.361595,28.6260514 157.361353,20.2599379 Z" id="Path-10" fill="url(#linearGradient-12)" transform="translate(90.941512, 98.803685) rotate(20.000000) translate(-90.941512, -98.803685) "></path>
                    <path d="M157.265307,20.2430025 C154.265065,11.876889 144.273695,36.257952 136.077037,53.2773949 C127.88038,70.2968377 145.171986,110.571114 110.814134,152.439908 C98.8781167,166.985248 13.3795666,164.917016 32.1249121,146.946066 C50.8702577,128.975116 64.2687244,138.700652 65.526295,134.788957 C67.3242654,129.196339 57.9955141,125.858318 55.6651239,119.455624 C51.8666342,109.019359 31.4388371,133.335793 28.541949,137.101956 C27.6067217,138.317819 21.4555837,148.535706 25.2314167,161.301755 C26.9079781,166.970191 29.9774853,174.341472 39.2257733,178.49594 C48.4740613,182.650409 83.9618324,173.667614 85.2331172,173.267123 C128.734652,159.562882 145.755038,146.721446 145.752734,99.9746991 C145.750363,51.8618299 160.26555,28.6091159 157.265307,20.2430025 Z" id="Path-10" fill-opacity="0.1" fill="#FFFFFF" transform="translate(90.845467, 99.067569) rotate(20.000000) translate(-90.845467, -99.067569) "></path>
                </g>
            </g>
        </g>
    </g>
</svg>