<?xml version="1.0" encoding="UTF-8"?>
<svg width="200px" height="200px" viewBox="0 0 200 200" version="1.1" xmlns="http://www.w3.org/2000/svg" xmlns:xlink="http://www.w3.org/1999/xlink">
    <!-- Generator: Sketch 63.1 (92452) - https://sketch.com -->
    <title>Volunteer</title>
    <desc>Created with Sketch.</desc>
    <defs>
        <circle id="path-1" cx="100" cy="100" r="100"></circle>
        <linearGradient x1="39.3162024%" y1="3.58870245%" x2="62.350475%" y2="103.499134%" id="linearGradient-3">
            <stop stop-color="#247CAD" offset="0%"></stop>
            <stop stop-color="#247CAD" offset="48.4281571%"></stop>
            <stop stop-color="#1A577A" offset="100%"></stop>
        </linearGradient>
        <linearGradient x1="39.5001689%" y1="3.58870245%" x2="62.1378096%" y2="103.499134%" id="linearGradient-4">
            <stop stop-color="#247CAD" offset="0%"></stop>
            <stop stop-color="#247CAD" offset="48.4281571%"></stop>
            <stop stop-color="#1A577A" offset="100%"></stop>
        </linearGradient>
        <linearGradient x1="40.1292651%" y1="3.58870245%" x2="61.4105742%" y2="103.499134%" id="linearGradient-5">
            <stop stop-color="#247CAD" offset="0%"></stop>
            <stop stop-color="#247CAD" offset="48.4281571%"></stop>
            <stop stop-color="#1A577A" offset="100%"></stop>
        </linearGradient>
        <linearGradient x1="39.1576374%" y1="3.58870245%" x2="62.5337763%" y2="103.499134%" id="linearGradient-6">
            <stop stop-color="#247CAD" offset="0%"></stop>
            <stop stop-color="#247CAD" offset="48.4281571%"></stop>
            <stop stop-color="#1A577A" offset="100%"></stop>
        </linearGradient>
    </defs>
    <g id="Symbols" stroke="none" stroke-width="1" fill="none" fill-rule="evenodd">
        <g id="Community">
            <g id="Volunteer">
                <mask id="mask-2" fill="white">
                    <use xlink:href="#path-1"></use>
                </mask>
                <use id="Background" fill="#FF3877" xlink:href="#path-1"></use>
                <path d="M78.6861365,200 C125.050052,200 93.608707,124.496149 162.635431,115.789474 C231.662155,107.082798 125.050052,31.5789474 78.6861365,31.5789474 C32.3222215,31.5789474 -5.26315789,69.2812842 -5.26315789,115.789474 C-5.26315789,162.297663 32.3222215,200 78.6861365,200 Z" id="Oval" fill-opacity="0.2" fill="#FFFFFF" mask="url(#mask-2)"></path>
                <g id="Arm" mask="url(#mask-2)">
                    <g transform="translate(9.473684, 7.368421)">
                        <path d="M81.637037,177.348873 C106.795699,174.670421 118.339879,162.2317 116.269578,140.03271 C114.199276,117.83372 115.62289,102.160689 120.540418,93.0136182 C127.08411,84.8079325 131.19155,82.0099198 132.862735,84.6195801 C135.369513,88.5340706 126.32618,106.980382 129.224456,123.05106 C132.122731,139.121739 137.906115,140.691962 142.524265,159.401229 C147.142415,178.110496 130.539124,186.042398 126.011107,192.875364 C122.992428,197.430674 108.201072,199.731973 81.637037,199.77926 L81.637037,177.348873 Z" id="Path" fill="url(#linearGradient-3)"></path>
                        <path d="M23.3834729,177.413531 C58.9967087,173.100265 70.5408891,160.661544 58.0160138,140.097368 C45.4911386,119.533193 48.7383149,101.06215 67.7575426,84.6842385 C70.6541094,82.0745782 72.9379855,82.0745782 74.6091709,84.6842385 C77.1159491,88.598729 62.9391864,107.151558 65.8374619,123.222237 C68.7357374,139.292915 79.6525513,140.75662 84.2707011,159.465887 C88.8888509,178.175154 72.28556,186.107057 67.7575426,192.940022 C64.7388643,197.495333 49.9475077,199.796631 23.3834729,199.843918 L23.3834729,177.413531 Z" id="Path" fill="url(#linearGradient-4)" transform="translate(54.228740, 141.285456) scale(-1, 1) translate(-54.228740, -141.285456) "></path>
                        <path d="M28.8892227,177.082623 C60.8319587,172.989962 70.5408891,160.661544 58.0160138,140.097368 C45.4911386,119.533193 48.7383149,101.06215 67.7575426,84.6842385 C70.6541094,82.0745782 72.9379855,82.0745782 74.6091709,84.6842385 C77.1159491,88.598729 55.1177383,105.468216 58.0160138,121.538895 C60.9142893,137.609574 79.6525513,140.75662 84.2707011,159.465887 C88.8888509,178.175154 72.28556,186.107057 67.7575426,192.940022 C64.7388643,197.495333 49.9475077,199.796631 23.3834729,199.843918 L28.8892227,177.082623 Z" id="Path" fill-opacity="0.1" fill="#FFFFFF" transform="translate(54.228740, 141.285456) scale(-1, 1) translate(-54.228740, -141.285456) "></path>
                        <path d="M103.789801,196.724063 L74.8389454,199.698051 C54.8336056,189.647176 45.5900401,177.452597 47.1082487,163.114315 C48.6264574,148.776033 62.1772917,136.535061 87.7607518,126.391398 C104.737075,117.62484 113.225237,108.184014 113.225237,98.0689185 C113.225237,87.9538233 99.3622775,76.7527071 71.636358,64.4655698 C52.2921309,58.3877311 42.6200174,50.342978 42.6200174,40.3313104 C42.6200174,30.3196428 48.458539,20.2627748 60.1355821,10.1607065 C64.4097344,11.3586607 65.4782725,13.9557613 63.3411963,17.9520081 C60.1355821,23.9463784 55.9953056,31.0212203 59.668251,38.2515983 C63.3411963,45.4819763 99.7167964,55.2098481 106.471017,57.1337846 C113.225237,59.0577212 133.056751,68.0242742 137.951876,82.8962758 C142.847002,97.7682773 135.291091,115.044169 118.4714,129.786128 C101.651709,144.528088 78.9114784,152.901329 74.8389454,163.114315 C72.1239235,169.922973 81.7742086,181.126222 103.789801,196.724063 Z" id="Path-17" fill="url(#linearGradient-5)"></path>
                        <path d="M103.789801,196.724063 L74.8389454,199.698051 C64.7251972,189.647176 60.4274275,177.452597 61.9456361,163.114315 C63.4638448,148.776033 72.0688833,136.535061 87.7607518,126.391398 C94.8609149,114.218993 103.349077,104.778166 113.225237,98.0689185 C123.101398,91.3596708 123.101398,82.5253717 113.225237,71.5660211 C66.1550907,60.7545483 42.6200174,50.342978 42.6200174,40.3313104 C42.6200174,30.3196428 48.458539,20.2627748 60.1355821,10.1607065 C64.4097344,11.3586607 65.4782725,13.9557613 63.3411963,17.9520081 C60.1355821,23.9463784 55.9953056,31.0212203 59.668251,38.2515983 C63.3411963,45.4819763 99.7167964,55.2098481 106.471017,57.1337846 C113.225237,59.0577212 133.056751,68.0242742 137.951876,82.8962758 C142.847002,97.7682773 135.291091,115.044169 118.4714,129.786128 C101.651709,144.528088 78.9114784,152.901329 74.8389454,163.114315 C72.1239235,169.922973 81.7742086,181.126222 103.789801,196.724063 Z" id="Path-17" fill-opacity="0.1" fill="#FFFFFF"></path>
                        <path d="M86.5195929,199.698051 C115.278625,192.742214 128.9242,181.561895 127.456319,166.157094 C125.988438,150.752293 115.751555,138.343877 96.7456714,128.931846 C85.0690025,124.514325 79.0780343,115.925113 78.7727668,103.164213 C78.3148656,84.0228627 101.477537,57.9184587 104.162702,53.4414957 C105.952811,50.4568537 108.973657,47.8836099 113.225237,45.7217643 C116.70864,44.8797475 118.450341,46.2552904 118.450341,49.8483931 C118.450341,53.4414957 115.717394,61.844066 110.251498,75.0561039 C101.472795,91.5562199 99.2781195,102.334995 103.667471,107.392428 C108.056823,112.449861 118.16274,116.998032 133.985223,121.036939 C146.976972,124.235465 155.334485,132.369272 159.057761,145.438362 C162.781037,158.507451 161.893492,176.594014 156.395126,199.698051 L86.5195929,199.698051 Z" id="Path-16" fill="url(#linearGradient-6)"></path>
                        <path d="M86.5195929,199.698051 C115.278625,192.742214 128.9242,181.561895 127.456319,166.157094 C125.988438,150.752293 115.751555,138.343877 96.7456714,128.931846 C85.0690025,124.514325 79.0780343,115.925113 78.7727668,103.164213 C78.3148656,84.0228627 101.477537,57.9184587 104.162702,53.4414957 C105.952811,50.4568537 108.973657,47.8836099 113.225237,45.7217643 C116.70864,44.8797475 118.450341,46.2552904 118.450341,49.8483931 C118.450341,55.238047 73.7117068,98.6301491 93.3009,108.021623 C112.890093,117.413096 153.472847,125.834727 159.057761,145.438362 C162.781037,158.507451 161.893492,176.594014 156.395126,199.698051 L86.5195929,199.698051 Z" id="Path-16" fill-opacity="0.1" fill="#FFFFFF"></path>
                        <path d="M94.7955056,50.3179663 C112.841225,40.8964404 121.861224,30.3691654 121.8555,18.7361412 C121.84691,1.2866048 105.149958,-2.65354519 94.7772765,13.2773538 C84.0826987,-6.68004625 67.6958275,1.25989414 67.7044117,18.7094305 C67.710139,30.3424547 76.7405037,40.8786333 94.7955056,50.3179663 Z" id="Oval" fill="#FFFFFF" transform="translate(94.779956, 25.923973) rotate(-2.000000) translate(-94.779956, -25.923973) "></path>
                        <path d="M63.71322,98.306513 C75.1968864,92.3649666 80.936915,85.7260643 80.9333057,78.3898061 C80.9278883,67.3854189 70.3025663,64.9005529 63.701724,74.9471964 C56.8961397,62.3612181 46.4681084,67.3684212 46.473522,78.3728084 C46.4771338,85.7090666 52.2236998,92.3536348 63.71322,98.306513 Z" id="Oval" fill="#FFFFFF" transform="translate(63.703414, 82.922648) rotate(-2.000000) translate(-63.703414, -82.922648) "></path>
                        <path d="M20.0254179,139.895461 C32.8761853,133.242114 39.2995481,125.807871 39.2955064,117.592731 C39.28944,105.270021 27.3991978,102.487472 20.0125446,113.737704 C12.3967671,99.643931 0.727305351,105.251 0.733367468,117.57371 C0.737412029,125.78885 7.1680955,133.229433 20.0254179,139.895461 Z" id="Oval" fill="#FFFFFF" transform="translate(20.014437, 122.668615) rotate(-2.000000) translate(-20.014437, -122.668615) "></path>
                        <path d="M160.939239,130.250891 C172.422905,124.309345 178.162934,117.670443 178.159325,110.334184 C178.153907,99.3297972 167.528585,96.8449312 160.927743,106.891575 C154.122159,94.3055964 143.694127,99.3127995 143.699541,110.317187 C143.703153,117.653445 149.449719,124.298013 160.939239,130.250891 Z" id="Oval" fill="#FFFFFF" transform="translate(160.929433, 114.867027) rotate(-2.000000) translate(-160.929433, -114.867027) "></path>
                    </g>
                </g>
            </g>
        </g>
    </g>
</svg>