<?xml version="1.0" encoding="UTF-8"?>
<svg width="200px" height="208px" viewBox="0 0 200 208" version="1.1" xmlns="http://www.w3.org/2000/svg" xmlns:xlink="http://www.w3.org/1999/xlink">
    <!-- Generator: Sketch 63.1 (92452) - https://sketch.com -->
    <title>Learner</title>
    <desc>Created with Sketch.</desc>
    <defs>
        <linearGradient x1="29.0982149%" y1="3.58870245%" x2="74.1624733%" y2="103.499134%" id="linearGradient-1">
            <stop stop-color="#247CAD" offset="0%"></stop>
            <stop stop-color="#247CAD" offset="48.4281571%"></stop>
            <stop stop-color="#1A577A" offset="100%"></stop>
        </linearGradient>
        <path d="M5.93591123,1.57328743 C-1.93572725,14.3444137 -1.93572725,23.2597854 5.93591123,28.3194025 C17.743369,35.9088282 38.9835192,38.1045914 38.9835192,50.1377819 C38.9835192,58.159909 40.4228426,62.3502208 43.3014893,62.7087173 L45.3428373,52.2657147 C48.3031379,42.1776236 46.1833652,35.6376234 38.9835192,32.6457142 C28.1837503,28.1578503 20.1948137,26.6638749 20.1948137,16.8876758 C20.1948137,10.3702097 20.1484759,4.74098444 20.0558004,0 L5.93591123,1.57328743 Z" id="path-2"></path>
        <linearGradient x1="26.4588031%" y1="3.58870245%" x2="77.2136346%" y2="103.499134%" id="linearGradient-4">
            <stop stop-color="#247CAD" offset="0%"></stop>
            <stop stop-color="#247CAD" offset="48.4281571%"></stop>
            <stop stop-color="#1A577A" offset="100%"></stop>
        </linearGradient>
        <path d="M35.0752027,38.2220719 C22.8859328,50.0850711 13.9868087,47.591315 8.37783064,30.7408034 C6.70807717,25.7245242 3.88548105,13.0151007 11.1941989,15.0177437 C16.0666775,16.352839 22.3736355,12.112889 30.1150731,2.29789386 C28.8154263,0.194839504 26.193505,-0.192130864 22.2493094,1.13698275 C18.1411867,2.52133644 10.2745543,1.19410205 6.70807717,9.08968695 C1.04228318,21.6328087 -3.55575276,39.6394267 4.36225691,50.6648159 C12.2802666,61.6902051 17.8773647,64.4213037 36.5657328,50.6648159 C49.0246448,41.493824 50.4879569,37.3462427 40.955669,38.2220719 L35.0752027,38.2220719 Z" id="path-5"></path>
        <linearGradient x1="12.1570851%" y1="28.4847307%" x2="93.7464273%" y2="74.8010364%" id="linearGradient-7">
            <stop stop-color="#247CAD" offset="0%"></stop>
            <stop stop-color="#247CAD" offset="48.4281571%"></stop>
            <stop stop-color="#1A577A" offset="100%"></stop>
        </linearGradient>
        <path d="M47.359641,0 C46.2559151,7.86702525 43.3942149,14.1956889 38.7745405,18.985991 C31.845029,26.1714441 17.200606,36.2113183 6.12542801,33.9875251 C-4.94974995,31.763732 2.16867277,37.9395629 8.15778025,39.8144652 C14.1468877,41.6893675 28.1436153,40.3748559 41.8441744,31.1562605 C50.9778804,25.0105302 56.9884394,15.764844 59.8758512,3.41920172 L47.359641,0 Z" id="path-8"></path>
        <linearGradient x1="12.1570851%" y1="31.423883%" x2="93.7464273%" y2="71.4130229%" id="linearGradient-10">
            <stop stop-color="#247CAD" offset="0%"></stop>
            <stop stop-color="#247CAD" offset="48.4281571%"></stop>
            <stop stop-color="#1A577A" offset="100%"></stop>
        </linearGradient>
        <linearGradient x1="44.2817627%" y1="3.58870245%" x2="56.610285%" y2="103.499134%" id="linearGradient-11">
            <stop stop-color="#247CAD" offset="0%"></stop>
            <stop stop-color="#247CAD" offset="48.4281571%"></stop>
            <stop stop-color="#1A577A" offset="100%"></stop>
        </linearGradient>
        <linearGradient x1="48.23864%" y1="3.58870245%" x2="52.036133%" y2="103.499134%" id="linearGradient-12">
            <stop stop-color="#247CAD" offset="0%"></stop>
            <stop stop-color="#247CAD" offset="48.4281571%"></stop>
            <stop stop-color="#1A577A" offset="100%"></stop>
        </linearGradient>
        <linearGradient x1="46.5930983%" y1="3.58870245%" x2="53.93838%" y2="103.499134%" id="linearGradient-13">
            <stop stop-color="#247CAD" offset="0%"></stop>
            <stop stop-color="#247CAD" offset="48.4281571%"></stop>
            <stop stop-color="#1A577A" offset="100%"></stop>
        </linearGradient>
        <path d="M11.1048982,0 C17.5034519,5.23580707 21.0770912,12.6318466 21.8258162,22.1881187 C22.5745411,31.7443907 19.0009018,42.5262754 11.1048982,54.5337727 C7.38480917,59.9846567 6.21121493,65.1894978 7.58411552,70.1482961 C8.95701612,75.1070943 7.1085331,73.699374 2.03866648,65.9251352 C-0.172505474,59.7652304 0.565118942,53.0922565 4.25153973,45.9062137 C9.78117091,35.1271495 9.53276294,33.673941 8.36367227,21.3312089 C7.58427849,13.1027207 4.79846368,6.35435946 0.0062278414,1.08612501 L11.1048982,0 Z" id="path-14"></path>
        <linearGradient x1="12.1570851%" y1="42.240536%" x2="93.7464273%" y2="58.9444732%" id="linearGradient-16">
            <stop stop-color="#247CAD" offset="0%"></stop>
            <stop stop-color="#247CAD" offset="48.4281571%"></stop>
            <stop stop-color="#1A577A" offset="100%"></stop>
        </linearGradient>
        <path d="M11.6069127,0 C19.5605582,13.702015 27.4957507,20.5530225 35.4124905,20.5530225 C43.3292302,20.5530225 51.2579643,17.4646762 59.1986927,11.2879835 L67.512169,4.17393982 C69.8270807,2.45906501 70.9845366,2.45906501 70.9845366,4.17393982 C70.9845366,5.88881463 68.8827554,8.99758926 64.6791931,13.5002637 C59.2420569,20.047197 53.46608,24.5312483 47.3512624,26.9524175 C38.179036,30.5841715 27.6666782,29.3932251 13.2787732,21.5276363 C5.30581458,17.1689743 -0.502700948,9.585438 0.354294977,3.97294806 C0.470308584,3.21317175 1.57654893,2.91364466 3.67301603,3.07436678 L11.6069127,0 Z" id="path-17"></path>
        <path d="M5.93591123,1.57328743 C-1.93572725,14.3444137 -1.93572725,23.2597854 5.93591123,28.3194025 C17.743369,35.9088282 38.9835192,38.1045914 38.9835192,50.1377819 C38.9835192,58.159909 40.4228426,62.3502208 43.3014893,62.7087173 L45.3428373,52.2657147 C48.3031379,42.1776236 46.1833652,35.6376234 38.9835192,32.6457142 C28.1837503,28.1578503 20.1948137,26.6638749 20.1948137,16.8876758 C20.1948137,10.3702097 20.1484759,4.74098444 20.0558004,0 L5.93591123,1.57328743 Z" id="path-19"></path>
        <path d="M35.0752027,38.2220719 C22.8859328,50.0850711 13.9868087,47.591315 8.37783064,30.7408034 C6.70807717,25.7245242 3.88548105,13.0151007 11.1941989,15.0177437 C16.0666775,16.352839 22.3736355,12.112889 30.1150731,2.29789386 C28.8154263,0.194839504 26.193505,-0.192130864 22.2493094,1.13698275 C18.1411867,2.52133644 10.2745543,1.19410205 6.70807717,9.08968695 C1.04228318,21.6328087 -3.55575276,39.6394267 4.36225691,50.6648159 C12.2802666,61.6902051 17.8773647,64.4213037 36.5657328,50.6648159 C49.0246448,41.493824 50.4879569,37.3462427 40.955669,38.2220719 L35.0752027,38.2220719 Z" id="path-21"></path>
        <path d="M47.359641,0 C46.2559151,7.86702525 43.3942149,14.1956889 38.7745405,18.985991 C31.845029,26.1714441 17.200606,36.2113183 6.12542801,33.9875251 C-4.94974995,31.763732 2.16867277,37.9395629 8.15778025,39.8144652 C14.1468877,41.6893675 28.1436153,40.3748559 41.8441744,31.1562605 C50.9778804,25.0105302 56.9884394,15.764844 59.8758512,3.41920172 L47.359641,0 Z" id="path-23"></path>
        <path d="M11.1048982,0 C17.5034519,5.23580707 21.0770912,12.6318466 21.8258162,22.1881187 C22.5745411,31.7443907 19.0009018,42.5262754 11.1048982,54.5337727 C7.38480917,59.9846567 6.21121493,65.1894978 7.58411552,70.1482961 C8.95701612,75.1070943 7.1085331,73.699374 2.03866648,65.9251352 C-0.172505474,59.7652304 0.565118942,53.0922565 4.25153973,45.9062137 C9.78117091,35.1271495 9.53276294,33.673941 8.36367227,21.3312089 C7.58427849,13.1027207 4.79846368,6.35435946 0.0062278414,1.08612501 L11.1048982,0 Z" id="path-25"></path>
        <path d="M11.6069127,0 C19.5605582,13.702015 27.4957507,20.5530225 35.4124905,20.5530225 C43.3292302,20.5530225 51.2579643,17.4646762 59.1986927,11.2879835 L67.512169,4.17393982 C69.8270807,2.45906501 70.9845366,2.45906501 70.9845366,4.17393982 C70.9845366,5.88881463 68.8827554,8.99758926 64.6791931,13.5002637 C59.2420569,20.047197 53.46608,24.5312483 47.3512624,26.9524175 C38.179036,30.5841715 27.6666782,29.3932251 13.2787732,21.5276363 C5.30581458,17.1689743 -0.502700948,9.585438 0.354294977,3.97294806 C0.470308584,3.21317175 1.57654893,2.91364466 3.67301603,3.07436678 L11.6069127,0 Z" id="path-27"></path>
        <linearGradient x1="47.852544%" y1="0%" x2="57.440034%" y2="184.892842%" id="linearGradient-29">
            <stop stop-color="#247CAD" offset="0%"></stop>
            <stop stop-color="#247CAD" offset="48.4281571%"></stop>
            <stop stop-color="#1A577A" offset="100%"></stop>
        </linearGradient>
        <linearGradient x1="12.1570851%" y1="25.4518757%" x2="83.5425941%" y2="90.4239088%" id="linearGradient-30">
            <stop stop-color="#247CAD" offset="0%"></stop>
            <stop stop-color="#247CAD" offset="48.4281571%"></stop>
            <stop stop-color="#1A577A" offset="100%"></stop>
        </linearGradient>
        <path d="M2.00989305,15.2053889 C6.96613511,16.6170667 13.381517,12.1339086 21.2560386,1.75591446 C20.4514,-0.239249058 18.0430803,-0.534154297 14.0310794,0.871198742 C9.85233335,2.33496048 -5.42447003,13.0878721 2.00989305,15.2053889 Z" id="path-31"></path>
    </defs>
    <g id="Symbols" stroke="none" stroke-width="1" fill="none" fill-rule="evenodd">
        <g id="Learner">
            <g>
                <circle id="learner-Background-14" fill="#FF3877" cx="100" cy="107.729469" r="100"></circle>
                <circle id="learner-Background-13" fill-opacity="0.2" fill="#FFFFFF" cx="90.0999486" cy="125.603865" r="79.2270531"></circle>
                <g id="learner-Arms-12" transform="translate(23.188406, 70.531401)">
                    <g id="Group-3" transform="translate(60.869565, 41.545894)">
                        <mask id="mask-3" fill="white">
                            <use xlink:href="#path-2"></use>
                        </mask>
                        <use id="Path-14" fill="url(#linearGradient-1)" xlink:href="#path-2"></use>
                        <path d="M32.0619594,42.361225 C34.3455013,43.7347787 38.9835192,42.6467268 38.9835192,50.1377819 C38.9835192,58.159909 40.4228426,62.3502208 43.3014893,62.7087173 L45.3428373,52.2657147 C47.0434866,44.5152258 44.3618242,38.6718611 37.2978501,34.7356207 C33.5473057,32.6457142 25.8635333,30.9483614 26.3198957,32.0242349 C26.7762581,33.1001085 24.4065644,37.2080941 25.1594413,37.2080941 C25.7085859,37.2080941 30.5214665,41.4346163 32.0619594,42.361225 Z" id="Path-14" fill-opacity="0.1" fill="#FFFFFF" mask="url(#mask-3)"></path>
                    </g>
                    <g id="Group-4" transform="translate(15.458937, 0.000000)">
                        <mask id="mask-6" fill="white">
                            <use xlink:href="#path-5"></use>
                        </mask>
                        <use id="Path-13" fill="url(#linearGradient-4)" xlink:href="#path-5"></use>
                        <path d="M35.0752027,38.2220719 C27.6792883,45.5963859 22.4594346,49.7439672 19.4156415,50.6648159 C8.10221284,54.0875045 1.82411041,45.0118305 2.52781162,32.0115062 C3.51550114,13.7647225 10.5533344,5.33628147 23.6413113,6.72618309 L30.1150731,4.23785967 C28.9565907,-0.19848809 26.4052517,-1.75210516 22.461056,-0.422991546 C18.3529333,0.961362141 10.2745543,1.19410205 6.70807717,9.08968695 C1.04228318,21.6328087 -3.55575276,39.6394267 4.36225691,50.6648159 C12.2802666,61.6902051 17.8773647,64.4213037 36.5657328,50.6648159 C49.0246448,41.493824 50.4879569,37.3462427 40.955669,38.2220719 L35.0752027,38.2220719 Z" id="Path-13" fill-opacity="0.1" fill="#FFFFFF" mask="url(#mask-6)"></path>
                    </g>
                    <g id="Group-5" transform="translate(0.000000, 36.714976)">
                        <mask id="mask-9" fill="white">
                            <use xlink:href="#path-8"></use>
                        </mask>
                        <use id="Path-11" fill="url(#linearGradient-7)" xlink:href="#path-8"></use>
                        <path d="M47.359641,0 C46.2559151,7.86702525 43.3942149,14.1956889 38.7745405,18.985991 C31.845029,26.1714441 17.200606,36.2113183 6.12542801,33.9875251 C-4.94974995,31.763732 2.08009903,37.3058475 8.0692065,39.1807498 C14.058314,41.0556521 26.6890683,36.9700828 40.3896274,27.7514873 C49.5233335,21.6057571 56.0187414,13.4949952 59.8758512,3.41920172 L47.359641,0 Z" id="Path-11" fill-opacity="0.1" fill="#FFFFFF" mask="url(#mask-9)"></path>
                    </g>
                    <path d="M77.0365322,42.0404848 C83.930765,55.0588389 91.061432,58.9110537 98.4285334,53.5971294 C105.795635,48.283205 110.80179,41.9071253 113.447,34.4688901 C115.754475,31.6391016 116.908213,31.1327821 116.908213,32.9499314 C116.908213,35.6756555 116.627148,40.4036397 113.447,45.6262429 C110.266853,50.848846 105.545996,57.6639039 99.4006069,59.7365968 C93.2552181,61.8092897 82.7930254,64.3170691 76.3546156,56.5329903 C72.0623424,51.3436045 69.7992097,46.5127693 69.5652174,42.0404848 L77.0365322,42.0404848 Z" id="Path-10" fill="url(#linearGradient-10)"></path>
                    <g id="Path-12" transform="translate(47.342995, 78.743961) scale(-1, 1) translate(-47.342995, -78.743961) translate(25.120773, 31.884058)">
                        <path d="M24.6036597,19.2729739 C22.2462095,42.5341024 22.2462095,57.0573699 24.6036597,62.8427762 C28.1398352,71.5208858 44.9367879,84.1749311 43.88529,86.9230935 C42.833792,89.6712558 27.0036621,82.1444131 20.6110052,73.2778541 C16.27999,67.2707741 13.7212512,52.9154421 11.7496497,41.1160302 C9.21263001,25.9327685 9.41029662,12.9044619 11.7496497,6.10939557 C13.508843,0.999506603 19.3182528,-2.57018093 22.2966559,2.34231332 C23.4393157,4.22698421 24.208317,9.87053775 24.6036597,19.2729739 Z" id="Path-6" fill="url(#linearGradient-11)"></path>
                        <path d="M5.05626881,90.4118116 C9.20833729,87.6345886 16.1788374,76.9542318 18.5119356,65.2851707 C20.0673343,57.5057966 18.6961704,37.7852154 14.3984438,6.12342703 L7.56930419,2.36480704 C2.5231014,3.9549049 0,10.5214539 0,22.0644539 C0,39.378954 7.56930419,58.4532826 7.56930419,72.6044449 C7.56930419,86.7556072 0.904200334,93.1890346 5.05626881,90.4118116 Z" id="Path-7" fill="url(#linearGradient-12)"></path>
                        <path d="M9.06532636,92.2559592 C15.6723177,82.111571 19.4170023,73.1503404 20.2993804,65.3722675 C21.1817584,57.5941946 19.1377127,38.4553202 14.1672432,7.95564444 L5.7981342,9.03855915 C9.46396162,10.6532641 9.42697545,16.8944318 5.68717567,27.7620621 C0.077476005,44.0635077 16.106916,51.6223436 10.4633737,74.4479412 C6.70101221,89.6650063 6.23499642,95.6010123 9.06532636,92.2559592 Z" id="Path-7" fill-opacity="0.1" fill="#FFFFFF" transform="translate(12.487886, 50.557907) rotate(3.000000) translate(-12.487886, -50.557907) "></path>
                    </g>
                    <g id="Group-2" transform="translate(64.734300, 41.545894)">
                        <mask id="mask-15" fill="white">
                            <use xlink:href="#path-14"></use>
                        </mask>
                        <use id="Path-9" fill="url(#linearGradient-13)" xlink:href="#path-14"></use>
                        <path d="M11.1048982,0 C17.5034519,5.23580707 21.0770912,12.6318466 21.8258162,22.1881187 C22.5745411,31.7443907 19.0009018,42.5262754 11.1048982,54.5337727 C7.38480917,59.9846567 6.21121493,65.1894978 7.58411552,70.1482961 C8.95701612,75.1070943 7.1085331,73.699374 2.03866648,65.9251352 C-0.172505474,59.7652304 0.565118942,53.0922565 4.25153973,45.9062137 C9.78117091,35.1271495 9.53276294,33.673941 8.36367227,21.3312089 C7.58427849,13.1027207 4.79846368,6.35435946 0.0062278414,1.08612501 L11.1048982,0 Z" id="Path-9" fill-opacity="0.1" fill="#FFFFFF" mask="url(#mask-15)"></path>
                    </g>
                    <g id="Group" transform="translate(69.565217, 37.681159)">
                        <mask id="mask-18" fill="white">
                            <use xlink:href="#path-17"></use>
                        </mask>
                        <use id="Path-3" fill="url(#linearGradient-16)" xlink:href="#path-17"></use>
                        <path d="M7.54169918,3.97294806 C10.2773355,8.68092867 12.3692705,11.8567006 13.8175041,13.5002637 C21.1878179,21.8646436 29.4964408,21.5276363 34.4496507,25.0055178 C40.0292461,28.923214 52.1387962,23.5986907 57.840039,16.6918136 C63.5412818,9.78493652 64.3695334,11.65016 66.99116,9.14012663 C69.6127865,6.63009326 68.7484492,-1.19188442 71.1243707,3.97294806 C72.7083184,7.41616971 70.5599258,10.5919416 64.6791931,13.5002637 C59.2420569,20.047197 53.46608,24.5312483 47.3512624,26.9524175 C38.179036,30.5841715 27.6666782,29.3932251 13.2787732,21.5276363 C5.30581458,17.1689743 -0.502700948,9.585438 0.354294977,3.97294806 C0.470308584,3.21317175 1.57654893,2.91364466 3.67301603,3.07436678 L7.54169918,3.97294806 Z" id="Path-3" fill-opacity="0.1" fill="#FFFFFF" mask="url(#mask-18)"></path>
                    </g>
                </g>
                <g id="learner-Arms-11" transform="translate(23.188406, 70.531401)">
                    <g id="Group-3" transform="translate(60.869565, 41.545894)">
                        <mask id="mask-20" fill="white">
                            <use xlink:href="#path-19"></use>
                        </mask>
                        <use id="Path-14" fill="url(#linearGradient-1)" xlink:href="#path-19"></use>
                        <path d="M32.0619594,42.361225 C34.3455013,43.7347787 38.9835192,42.6467268 38.9835192,50.1377819 C38.9835192,58.159909 40.4228426,62.3502208 43.3014893,62.7087173 L45.3428373,52.2657147 C47.0434866,44.5152258 44.3618242,38.6718611 37.2978501,34.7356207 C33.5473057,32.6457142 25.8635333,30.9483614 26.3198957,32.0242349 C26.7762581,33.1001085 24.4065644,37.2080941 25.1594413,37.2080941 C25.7085859,37.2080941 30.5214665,41.4346163 32.0619594,42.361225 Z" id="Path-14" fill-opacity="0.1" fill="#FFFFFF" mask="url(#mask-20)"></path>
                    </g>
                    <g id="Group-4" transform="translate(15.458937, 0.000000)">
                        <mask id="mask-22" fill="white">
                            <use xlink:href="#path-21"></use>
                        </mask>
                        <use id="Path-13" fill="url(#linearGradient-4)" xlink:href="#path-21"></use>
                        <path d="M35.0752027,38.2220719 C27.6792883,45.5963859 22.4594346,49.7439672 19.4156415,50.6648159 C8.10221284,54.0875045 1.82411041,45.0118305 2.52781162,32.0115062 C3.51550114,13.7647225 10.5533344,5.33628147 23.6413113,6.72618309 L30.1150731,4.23785967 C28.9565907,-0.19848809 26.4052517,-1.75210516 22.461056,-0.422991546 C18.3529333,0.961362141 10.2745543,1.19410205 6.70807717,9.08968695 C1.04228318,21.6328087 -3.55575276,39.6394267 4.36225691,50.6648159 C12.2802666,61.6902051 17.8773647,64.4213037 36.5657328,50.6648159 C49.0246448,41.493824 50.4879569,37.3462427 40.955669,38.2220719 L35.0752027,38.2220719 Z" id="Path-13" fill-opacity="0.1" fill="#FFFFFF" mask="url(#mask-22)"></path>
                    </g>
                    <g id="Group-5" transform="translate(0.000000, 36.714976)">
                        <mask id="mask-24" fill="white">
                            <use xlink:href="#path-23"></use>
                        </mask>
                        <use id="Path-11" fill="url(#linearGradient-7)" xlink:href="#path-23"></use>
                        <path d="M47.359641,0 C46.2559151,7.86702525 43.3942149,14.1956889 38.7745405,18.985991 C31.845029,26.1714441 17.200606,36.2113183 6.12542801,33.9875251 C-4.94974995,31.763732 2.08009903,37.3058475 8.0692065,39.1807498 C14.058314,41.0556521 26.6890683,36.9700828 40.3896274,27.7514873 C49.5233335,21.6057571 56.0187414,13.4949952 59.8758512,3.41920172 L47.359641,0 Z" id="Path-11" fill-opacity="0.1" fill="#FFFFFF" mask="url(#mask-24)"></path>
                    </g>
                    <path d="M77.0365322,42.0404848 C83.930765,55.0588389 91.061432,58.9110537 98.4285334,53.5971294 C105.795635,48.283205 110.80179,41.9071253 113.447,34.4688901 C115.754475,31.6391016 116.908213,31.1327821 116.908213,32.9499314 C116.908213,35.6756555 116.627148,40.4036397 113.447,45.6262429 C110.266853,50.848846 105.545996,57.6639039 99.4006069,59.7365968 C93.2552181,61.8092897 82.7930254,64.3170691 76.3546156,56.5329903 C72.0623424,51.3436045 69.7992097,46.5127693 69.5652174,42.0404848 L77.0365322,42.0404848 Z" id="Path-10" fill="url(#linearGradient-10)"></path>
                    <g id="Path-12" transform="translate(47.342995, 78.743961) scale(-1, 1) translate(-47.342995, -78.743961) translate(25.120773, 31.884058)">
                        <path d="M24.6036597,19.2729739 C22.2462095,42.5341024 22.2462095,57.0573699 24.6036597,62.8427762 C28.1398352,71.5208858 44.9367879,84.1749311 43.88529,86.9230935 C42.833792,89.6712558 27.0036621,82.1444131 20.6110052,73.2778541 C16.27999,67.2707741 13.7212512,52.9154421 11.7496497,41.1160302 C9.21263001,25.9327685 9.41029662,12.9044619 11.7496497,6.10939557 C13.508843,0.999506603 19.3182528,-2.57018093 22.2966559,2.34231332 C23.4393157,4.22698421 24.208317,9.87053775 24.6036597,19.2729739 Z" id="Path-6" fill="url(#linearGradient-11)"></path>
                        <path d="M5.05626881,90.4118116 C9.20833729,87.6345886 16.1788374,76.9542318 18.5119356,65.2851707 C20.0673343,57.5057966 18.6961704,37.7852154 14.3984438,6.12342703 L7.56930419,2.36480704 C2.5231014,3.9549049 0,10.5214539 0,22.0644539 C0,39.378954 7.56930419,58.4532826 7.56930419,72.6044449 C7.56930419,86.7556072 0.904200334,93.1890346 5.05626881,90.4118116 Z" id="Path-7" fill="url(#linearGradient-12)"></path>
                        <path d="M9.06532636,92.2559592 C15.6723177,82.111571 19.4170023,73.1503404 20.2993804,65.3722675 C21.1817584,57.5941946 19.1377127,38.4553202 14.1672432,7.95564444 L5.7981342,9.03855915 C9.46396162,10.6532641 9.42697545,16.8944318 5.68717567,27.7620621 C0.077476005,44.0635077 16.106916,51.6223436 10.4633737,74.4479412 C6.70101221,89.6650063 6.23499642,95.6010123 9.06532636,92.2559592 Z" id="Path-7" fill-opacity="0.1" fill="#FFFFFF" transform="translate(12.487886, 50.557907) rotate(3.000000) translate(-12.487886, -50.557907) "></path>
                    </g>
                    <g id="Group-2" transform="translate(64.734300, 41.545894)">
                        <mask id="mask-26" fill="white">
                            <use xlink:href="#path-25"></use>
                        </mask>
                        <use id="Path-9" fill="url(#linearGradient-13)" xlink:href="#path-25"></use>
                        <path d="M11.1048982,0 C17.5034519,5.23580707 21.0770912,12.6318466 21.8258162,22.1881187 C22.5745411,31.7443907 19.0009018,42.5262754 11.1048982,54.5337727 C7.38480917,59.9846567 6.21121493,65.1894978 7.58411552,70.1482961 C8.95701612,75.1070943 7.1085331,73.699374 2.03866648,65.9251352 C-0.172505474,59.7652304 0.565118942,53.0922565 4.25153973,45.9062137 C9.78117091,35.1271495 9.53276294,33.673941 8.36367227,21.3312089 C7.58427849,13.1027207 4.79846368,6.35435946 0.0062278414,1.08612501 L11.1048982,0 Z" id="Path-9" fill-opacity="0.1" fill="#FFFFFF" mask="url(#mask-26)"></path>
                    </g>
                    <g id="Group" transform="translate(69.565217, 37.681159)">
                        <mask id="mask-28" fill="white">
                            <use xlink:href="#path-27"></use>
                        </mask>
                        <use id="Path-3" fill="url(#linearGradient-16)" xlink:href="#path-27"></use>
                        <path d="M7.54169918,3.97294806 C10.2773355,8.68092867 12.3692705,11.8567006 13.8175041,13.5002637 C21.1878179,21.8646436 29.4964408,21.5276363 34.4496507,25.0055178 C40.0292461,28.923214 52.1387962,23.5986907 57.840039,16.6918136 C63.5412818,9.78493652 64.3695334,11.65016 66.99116,9.14012663 C69.6127865,6.63009326 68.7484492,-1.19188442 71.1243707,3.97294806 C72.7083184,7.41616971 70.5599258,10.5919416 64.6791931,13.5002637 C59.2420569,20.047197 53.46608,24.5312483 47.3512624,26.9524175 C38.179036,30.5841715 27.6666782,29.3932251 13.2787732,21.5276363 C5.30581458,17.1689743 -0.502700948,9.585438 0.354294977,3.97294806 C0.470308584,3.21317175 1.57654893,2.91364466 3.67301603,3.07436678 L7.54169918,3.97294806 Z" id="Path-3" fill-opacity="0.1" fill="#FFFFFF" mask="url(#mask-28)"></path>
                    </g>
                </g>
                <g id="learner-Head-10" transform="translate(91.787440, 57.004831) scale(-1, 1) translate(-91.787440, -57.004831) translate(63.768116, 0.000000)">
                    <path d="M12.5596495,0.0557378269 C15.9462664,-0.790545364 29.6355614,9.96321779 40.3921082,25.713974 C42.4304162,28.6986579 40.7257193,33.8226777 42.2952547,37.2421255 C43.8402121,40.6080267 48.6638566,42.2663378 50.1046186,45.5910504 C51.4650186,48.730319 45.1907098,53.0903992 46.3885579,56.2183515 C56.944995,83.7844776 56.944995,86.4542581 55.131679,87.1930639 C53.6595018,87.1930639 52.2236867,87.2299591 50.8236349,87.2987759 C52.1685633,98.4298475 52.0572625,105.04665 50.49053,107.150379 C47.9357829,110.580765 17.6946319,117.343558 13.7398902,109.351678 C12.0424435,105.921419 11.1528648,101.236813 11.0711542,95.2978601 C9.58089469,95.212578 8.32964367,94.7879943 7.30085719,93.8963221 C5.63246819,92.1962618 12.2692719,69.143575 6.42094734,58.7904231 C2.58219484,51.9947695 6.70907506,48.4536102 6.72690055,45.5910504 C6.74749123,42.2844338 -0.0830992165,38.0201262 0.000765997314,34.8200991 C0.0907232384,31.3876198 9.67379945,0.776884164 12.5596495,0.0557378269 Z" id="Combined-Shape" fill="url(#linearGradient-29)"></path>
                    <path d="M50.6543583,0.0557378269 C53.5402083,0.776884164 55.8231933,27.4543639 55.9131506,30.8868432 C55.9970158,34.0868703 45.1607028,41.1847279 45.1812935,44.4913445 C45.199119,47.3539043 51.6475373,54.7244436 47.8087848,61.5200971 C41.9604602,71.8732491 57.5815396,92.1962618 55.9131506,93.8963221 C49.5849788,99.3810897 34.8396229,87.1930639 8.08232878,87.1930639 C6.26901272,86.4542581 6.26901272,83.7844776 16.8254498,56.2183515 C18.0232979,53.0903992 11.7489891,48.730319 13.1093892,45.5910504 C14.5501511,42.2663378 19.3737956,40.6080267 20.918753,37.2421255 C22.4882884,33.8226777 20.7835915,28.6986579 22.8218995,25.713974 C33.5784463,9.96321779 47.2677414,-0.790545364 50.6543583,0.0557378269 Z" id="Triangle" fill-opacity="0.1" fill="#FFFFFF" transform="translate(31.607004, 47.662026) scale(-1, 1) translate(-31.607004, -47.662026) "></path>
                    <path d="M27.5974429,98.1843797 C40.6356396,95.3510302 49.9707683,101.382711 49.9707683,104.762856 C49.9707683,108.143001 18.405269,115.580899 14.4372262,108.092572 C12.7871374,104.978592 14.5592462,101.017729 27.5974429,98.1843797 Z" id="Rectangle" fill-opacity="0.2" fill="#FFFFFF"></path>
                </g>
                <g id="learner-Eyes-9" transform="translate(88.888889, 94.202899) scale(-1, -1) translate(-88.888889, -94.202899) translate(71.497585, 82.125604)">
                    <ellipse id="Oval" fill="#EEF9FF" transform="translate(5.356332, 9.984805) rotate(1.000000) translate(-5.356332, -9.984805) " cx="5.35633244" cy="9.9848053" rx="4.89953422" ry="9.89538979"></ellipse>
                    <path d="M3.46695602,15.8323256 C2.360555,15.639746 1.67124138,13.6058711 1.92733095,11.2895389 C2.18342053,8.97320661 3.28793739,7.25156492 4.39433841,7.44414451 C5.50073943,7.63672411 6.19005305,9.67059902 5.93396348,11.9869313 C5.6778739,14.3032635 4.57335704,16.0249052 3.46695602,15.8323256 Z" id="Oval" fill="#1E466B" transform="translate(3.930647, 11.638235) rotate(-2.000000) translate(-3.930647, -11.638235) "></path>
                    <ellipse id="Oval" fill="#EEF9FF" cx="29.224563" cy="13.2850242" rx="5.19946212" ry="10.5244997"></ellipse>
                    <path d="M26.7030205,19.1259038 C25.5966195,18.9333242 24.9073059,16.8994493 25.1633954,14.583117 C25.419485,12.2667848 26.5240019,10.5451431 27.6304029,10.7377227 C28.7368039,10.9303023 29.4261175,12.9641772 29.170028,15.2805095 C28.9139384,17.5968417 27.8094215,19.3184834 26.7030205,19.1259038 Z" id="Oval" fill="#1E466B" transform="translate(27.166712, 14.931813) rotate(-2.000000) translate(-27.166712, -14.931813) "></path>
                </g>
                <g id="learner-Top-arm-8" transform="translate(47.342995, 70.531401)">
                    <mask id="mask-32" fill="white">
                        <use xlink:href="#path-31"></use>
                    </mask>
                    <use id="Path-13" fill="url(#linearGradient-30)" xlink:href="#path-31"></use>
                </g>
                <path d="M151.655412,158.811632 C150.603699,158.811632 149.647611,158.630658 148.787119,158.268705 C147.926627,157.906752 147.223219,157.384318 146.676875,156.701388 L148.889558,154.078949 C149.65444,155.076027 150.480773,155.574559 151.368583,155.574559 C151.955903,155.574559 152.403215,155.397 152.710534,155.041876 C153.017852,154.686752 153.171509,154.167733 153.171509,153.484803 L153.171509,147.317973 L148.213461,147.317973 L148.213461,144.183339 L157.187119,144.183339 L157.187119,153.238949 C157.187119,155.096519 156.719319,156.489676 155.783704,157.418461 C154.84809,158.347246 153.472006,158.811632 151.655412,158.811632 Z M164.972485,158.811632 C163.811504,158.811632 162.684686,158.668219 161.591997,158.381388 C160.499309,158.094557 159.611513,157.712122 158.928583,157.234071 L160.26029,154.242851 C160.902244,154.666268 161.646627,155.007728 162.493461,155.267242 C163.340294,155.526755 164.173456,155.65651 164.992973,155.65651 C166.550054,155.65651 167.328583,155.267246 167.328583,154.488705 C167.328583,154.078947 167.106634,153.775048 166.662729,153.576998 C166.218824,153.378948 165.505173,153.170657 164.521753,152.95212 C163.442723,152.719923 162.541269,152.470658 161.817363,152.204315 C161.093457,151.937972 160.472,151.511147 159.952973,150.923827 C159.433946,150.336507 159.174436,149.54432 159.174436,148.547242 C159.174436,147.673091 159.413458,146.884318 159.891509,146.1809 C160.369561,145.477482 161.083212,144.920902 162.032485,144.511144 C162.981758,144.101386 164.146137,143.89651 165.525656,143.89651 C166.468099,143.89651 167.396871,144.002363 168.311997,144.214071 C169.227124,144.425779 170.032969,144.736508 170.729558,145.146266 L169.479802,148.157973 C168.113942,147.420409 166.789077,147.051632 165.505168,147.051632 C164.69931,147.051632 164.111999,147.171143 163.743217,147.410168 C163.374434,147.649194 163.190046,147.959923 163.190046,148.342364 C163.190046,148.724805 163.40858,149.011631 163.845656,149.202851 C164.282731,149.394072 164.986139,149.592119 165.9559,149.796998 C167.048588,150.029194 167.953457,150.27846 168.670534,150.544803 C169.387611,150.811145 170.009068,151.234556 170.534924,151.815047 C171.06078,152.395537 171.323704,153.18431 171.323704,154.181388 C171.323704,155.04188 171.084682,155.820409 170.606631,156.516998 C170.12858,157.213587 169.411514,157.770166 168.455412,158.186754 C167.499309,158.603341 166.338345,158.811632 164.972485,158.811632 Z" id="learner-JS-7" fill="#FFFFFF"></path>
                <path d="M37.3954849,58.3143505 L40.9808507,58.3143505 L40.9808507,64.255814 C40.1613344,64.843134 39.2189048,65.2938612 38.1535336,65.6080091 C37.0881625,65.922157 36.0228073,66.0792286 34.9574361,66.0792286 C33.4549895,66.0792286 32.1028079,65.7616708 30.9008507,65.1265457 C29.6988935,64.4914205 28.7564639,63.6070391 28.0735336,62.4733749 C27.3906034,61.3397107 27.0491434,60.0558211 27.0491434,58.6216676 C27.0491434,57.1875141 27.3906034,55.9036245 28.0735336,54.7699603 C28.7564639,53.6362961 29.7057227,52.7519147 30.9213385,52.1167896 C32.1369544,51.4816644 33.5096236,51.1641066 35.0393873,51.1641066 C36.3779306,51.1641066 37.5798698,51.3894702 38.645241,51.8402042 C39.7106121,52.2909382 40.5984081,52.9397122 41.3086556,53.7865457 L38.7271922,56.1221554 C37.7574312,55.0567842 36.5964672,54.5241066 35.2442653,54.5241066 C34.0149909,54.5241066 33.0247569,54.896298 32.2735336,55.640692 C31.5223104,56.385086 31.1467044,57.3787346 31.1467044,58.6216676 C31.1467044,59.4138667 31.3174344,60.1206889 31.6588995,60.7421554 C32.0003646,61.3636219 32.4784086,61.8484951 33.0930458,62.1967896 C33.7076831,62.545084 34.4110907,62.7192286 35.2032897,62.7192286 C35.9818302,62.7192286 36.7125546,62.562157 37.3954849,62.2480091 L37.3954849,58.3143505 Z M48.9506068,65.9767896 C47.7623082,65.9767896 46.6901238,65.7309384 45.7340214,65.2392286 C44.7779191,64.7475188 44.0301217,64.0645988 43.4906068,63.1904481 C42.9510919,62.3162974 42.6813385,61.3260634 42.6813385,60.2197164 C42.6813385,59.127028 42.9510919,58.1436232 43.4906068,57.2694725 C44.0301217,56.3953218 44.7745045,55.7158164 45.7237775,55.2309359 C46.6730506,54.7460554 47.7486496,54.5036188 48.9506068,54.5036188 C50.152564,54.5036188 51.2315776,54.7460554 52.18768,55.2309359 C53.1437823,55.7158164 53.8881651,56.3919072 54.4208507,57.2592286 C54.9535363,58.12655 55.2198751,59.1133694 55.2198751,60.2197164 C55.2198751,61.3260634 54.9535363,62.3162974 54.4208507,63.1904481 C53.8881651,64.0645988 53.1437823,64.7475188 52.18768,65.2392286 C51.2315776,65.7309384 50.152564,65.9767896 48.9506068,65.9767896 Z M48.9506068,62.883131 C49.6335371,62.883131 50.1935315,62.6475236 50.6306068,62.1763018 C51.0676822,61.7050799 51.2862166,61.0528913 51.2862166,60.2197164 C51.2862166,59.4002001 51.0676822,58.7582553 50.6306068,58.2938627 C50.1935315,57.8294702 49.6335371,57.5972774 48.9506068,57.5972774 C48.2676766,57.5972774 47.7076822,57.8294702 47.2706068,58.2938627 C46.8335315,58.7582553 46.6149971,59.4002001 46.6149971,60.2197164 C46.6149971,61.0528913 46.8335315,61.7050799 47.2706068,62.1763018 C47.7076822,62.6475236 48.2676766,62.883131 48.9506068,62.883131 Z" id="learner-Go-5" fill="#FFFFFF"></path>
                <path d="M144.584932,49.847941 L142.056152,49.847941 L142.056152,54.203063 L137.420054,54.203063 L137.420054,37.8128191 L144.912737,37.8128191 C146.395671,37.8128191 147.683463,38.0586703 148.776152,38.55038 C149.86884,39.0420898 150.711759,39.7445218 151.304932,40.6576971 C151.898106,41.5708724 152.194688,42.6440324 152.194688,43.8772093 C152.194688,45.0635567 151.917618,46.0976927 151.363469,46.9796483 C150.80932,47.861604 150.017133,48.5523288 148.986883,49.0518434 L152.522493,54.203063 L147.558591,54.203063 L144.584932,49.847941 Z M147.511762,43.8772093 C147.511762,43.1123274 147.269813,42.5191626 146.785908,42.0976971 C146.302003,41.6762316 145.583961,41.465502 144.631762,41.465502 L142.056152,41.465502 L142.056152,46.265502 L144.631762,46.265502 C145.583961,46.265502 146.302003,46.0586748 146.785908,45.6450142 C147.269813,45.2313536 147.511762,44.6420912 147.511762,43.8772093 Z" id="learner-R-4" fill="#FFFFFF"></path>
                <path d="M86.764945,69.4045638 C86.764945,68.1298725 87.0500945,67.0653855 87.620402,66.2110711 C88.1907094,65.3567567 89.0054222,64.4278732 90.0645646,63.4243927 C90.743502,62.7734865 91.239119,62.2446331 91.5514302,61.8378167 C91.8637414,61.4310003 92.0198947,60.9970693 92.0198947,60.5360108 C92.0198947,59.9393467 91.7619023,59.4715149 91.2459099,59.1325012 C90.7299174,58.7934876 90.0781472,58.6239833 89.2905798,58.6239833 C88.4215398,58.6239833 87.6068271,58.8748496 86.8464171,59.3765898 C86.0860072,59.8783301 85.4885512,60.549567 85.0540312,61.3903209 L77.8030154,57.7696731 C78.8893153,55.70847 80.498373,54.0947892 82.6302366,52.9285822 C84.7621002,51.7623752 87.3895488,51.1792805 90.5126611,51.1792805 C93.8258759,51.1792805 96.5144279,51.8572976 98.5783978,53.2133523 C100.642368,54.5694069 101.674337,56.4814153 101.674337,58.9494348 C101.674337,60.0885207 101.477448,61.0852059 101.083664,61.9395203 C100.689881,62.7938347 100.221421,63.5125329 99.6782709,64.0956364 C99.135121,64.6787399 98.4426152,65.3228562 97.6007327,66.0280046 C96.7316928,66.7873952 96.1070797,67.3976107 95.7268747,67.8586693 C95.3466697,68.3197278 95.1565701,68.8350209 95.1565701,69.4045638 L86.764945,69.4045638 Z M90.735469,81.7724817 C89.1603341,81.7724817 87.8703722,81.2978697 86.8655448,80.3486315 C85.8607174,79.3993932 85.3583112,78.2467641 85.3583112,76.8907094 C85.3583112,75.5075337 85.8607174,74.3616847 86.8655448,73.4531281 C87.8703722,72.5445715 89.1603341,72.0903 90.735469,72.0903 C92.3106039,72.0903 93.6005657,72.5445715 94.6053931,73.4531281 C95.6102206,74.3616847 96.1126267,75.5075337 96.1126267,76.8907094 C96.1126267,78.2467641 95.6102206,79.3993932 94.6053931,80.3486315 C93.6005657,81.2978697 92.3106039,81.7724817 90.735469,81.7724817 Z" id="learner-?-3" fill-opacity="0.1" fill="#EEF9FF" transform="translate(89.738676, 66.475881) rotate(-12.000000) translate(-89.738676, -66.475881) "></path>
                <path d="M95.4663376,27.3861934 C95.4663376,26.5002211 95.6667341,25.7603511 96.0675332,25.1665611 C96.4683323,24.5727712 97.0408938,23.9271521 97.785235,23.2296846 C98.2623767,22.7772732 98.610685,22.4096945 98.8301702,22.1269374 C99.0496554,21.8441802 99.1593963,21.5425772 99.1593963,21.2221191 C99.1593963,20.8074087 98.9780852,20.4822429 98.6154575,20.2466119 C98.2528297,20.010981 97.7947805,19.8931673 97.2412961,19.8931673 C96.6305546,19.8931673 96.0579931,20.0675316 95.5235943,20.4162654 C94.9891956,20.7649991 94.5693171,21.2315414 94.2639464,21.8159061 L89.1680979,19.2993804 C89.9315247,17.8667443 91.0623337,16.7451579 92.5605588,15.9345875 C94.058784,15.1240171 95.9052949,14.718738 98.1001469,14.718738 C100.428599,14.718738 102.318052,15.1899928 103.768563,16.1325165 C105.219074,17.0750402 105.944318,18.4039787 105.944318,20.1193719 C105.944318,20.9110918 105.805949,21.6038363 105.529207,22.1976263 C105.252465,22.7914162 104.923242,23.2909463 104.541528,23.6962315 C104.159815,24.1015167 103.673138,24.5492087 103.081482,25.0393211 C102.470741,25.5671343 102.031777,25.9912636 101.764577,26.3117217 C101.497378,26.6321798 101.36378,26.9903334 101.36378,27.3861934 L95.4663376,27.3861934 Z M97.9758206,36.3120562 C96.837148,36.3120562 95.9046285,35.9715366 95.1782339,35.2904872 C94.4518394,34.6094378 94.0886476,33.7824617 94.0886476,32.809534 C94.0886476,31.8171477 94.4518394,30.9950361 95.1782339,30.3431746 C95.9046285,29.691313 96.837148,29.3653871 97.9758206,29.3653871 C99.1144931,29.3653871 100.047013,29.691313 100.773407,30.3431746 C101.499802,30.9950361 101.862994,31.8171477 101.862994,32.809534 C101.862994,33.7824617 101.499802,34.6094378 100.773407,35.2904872 C100.047013,35.9715366 99.1144931,36.3120562 97.9758206,36.3120562 Z" id="learner-?-2" fill-opacity="0.1" fill="#EEF9FF" transform="translate(97.556208, 25.515397) rotate(38.000000) translate(-97.556208, -25.515397) "></path>
                <g id="learner-Group-6-1" transform="translate(104.132106, 46.368547) rotate(221.000000) translate(-104.132106, -46.368547) translate(98.335005, 38.636273)" fill="#EEF9FF">
                    <ellipse id="Oval" transform="translate(7.942560, 12.348281) scale(-1, 1) rotate(20.000000) translate(-7.942560, -12.348281) " cx="7.94255982" cy="12.3482806" rx="1.62401626" ry="2.69177457"></ellipse>
                    <ellipse id="Oval" transform="translate(8.085249, 4.388106) scale(-1, 1) rotate(20.000000) translate(-8.085249, -4.388106) " cx="8.08524896" cy="4.38810595" rx="2.21458488" ry="3.82514864"></ellipse>
                    <ellipse id="Oval" transform="translate(2.087529, 7.385466) scale(-1, 1) rotate(20.000000) translate(-2.087529, -7.385466) " cx="2.08752933" cy="7.38546645" rx="1.32863968" ry="1.57469375"></ellipse>
                </g>
                <path d="M125.860352,93 L125.860352,88.7373047 L126.835938,88.7373047 C128.394531,88.7373047 129.597168,88.3461914 130.443848,87.5639648 C131.290527,86.7817383 131.713867,85.6728516 131.713867,84.2373047 C131.713867,82.9306641 131.306641,81.9228516 130.492188,81.2138672 C129.677734,80.5048828 128.458984,80.1503906 126.835938,80.1503906 L126.835938,80.1503906 L122.388672,80.1503906 L122.388672,93 L125.860352,93 Z M126.493164,85.9072266 L125.860352,85.9072266 L125.860352,82.9541016 L126.756836,82.9541016 C127.717773,82.9541016 128.198242,83.3876953 128.198242,84.2548828 C128.198242,84.7705078 128.044434,85.1748047 127.736816,85.4677734 C127.429199,85.7607422 127.014648,85.9072266 126.493164,85.9072266 L126.493164,85.9072266 Z M134.675781,97.3242188 C135.859375,97.3242188 136.818848,97.0458984 137.554199,96.4892578 C138.289551,95.9326172 138.90918,94.9804688 139.413086,93.6328125 L139.413086,93.6328125 L143.350586,83.0419922 L139.84375,83.0419922 L138.112305,88.7724609 C138.018555,89.0771484 137.948242,89.4316406 137.901367,89.8359375 L137.901367,89.8359375 L137.831055,89.8359375 C137.801758,89.4140625 137.746094,89.0537109 137.664062,88.7548828 L137.664062,88.7548828 L135.976562,83.0419922 L132.355469,83.0419922 L136.275391,92.859375 C136.082031,93.3457031 135.900391,93.6958008 135.730469,93.909668 C135.560547,94.1235352 135.361328,94.2890625 135.132812,94.40625 C134.904297,94.5234375 134.637695,94.5820312 134.333008,94.5820312 C133.93457,94.5820312 133.580078,94.546875 133.269531,94.4765625 L133.269531,94.4765625 L133.269531,97.1748047 C133.75,97.2744141 134.21875,97.3242188 134.675781,97.3242188 Z M148.28125,93.1757812 C148.84375,93.1757812 149.334473,93.1333008 149.753418,93.0483398 C150.172363,92.9633789 150.613281,92.8212891 151.076172,92.6220703 L151.076172,92.6220703 L151.076172,90.1171875 C150.431641,90.3457031 149.87793,90.4599609 149.415039,90.4599609 C148.793945,90.4599609 148.483398,90.1376953 148.483398,89.4931641 L148.483398,89.4931641 L148.483398,85.6171875 L150.926758,85.6171875 L150.926758,83.0419922 L148.483398,83.0419922 L148.483398,81.046875 L146.233398,81.046875 L145.345703,83.1386719 L143.816406,84.2197266 L143.816406,85.6171875 L145.020508,85.6171875 L145.020508,89.7216797 C145.020508,90.8935547 145.275391,91.762207 145.785156,92.3276367 C146.294922,92.8930664 147.126953,93.1757812 148.28125,93.1757812 Z M156.25293,93 L156.25293,88.6230469 C156.25293,87.5273438 156.38623,86.7436523 156.652832,86.2719727 C156.919434,85.800293 157.333984,85.5644531 157.896484,85.5644531 C158.6875,85.5644531 159.083008,86.2324219 159.083008,87.5683594 L159.083008,87.5683594 L159.083008,93 L162.537109,93 L162.537109,86.5224609 C162.537109,85.3681641 162.228027,84.4702148 161.609863,83.8286133 C160.991699,83.1870117 160.125977,82.8662109 159.012695,82.8662109 C158.415039,82.8662109 157.890625,82.9716797 157.439453,83.1826172 C156.988281,83.3935547 156.598633,83.7568359 156.270508,84.2724609 L156.270508,84.2724609 L156.112305,84.2724609 C156.206055,83.1474609 156.25293,82.1455078 156.25293,81.2666016 L156.25293,81.2666016 L156.25293,79.3242188 L152.816406,79.3242188 L152.816406,93 L156.25293,93 Z M169.392578,93.1757812 C170.96875,93.1757812 172.194824,92.7202148 173.070801,91.809082 C173.946777,90.8979492 174.384766,89.6279297 174.384766,87.9990234 C174.384766,86.9619141 174.181152,86.0551758 173.773926,85.2788086 C173.366699,84.5024414 172.788086,83.90625 172.038086,83.4902344 C171.288086,83.0742188 170.423828,82.8662109 169.445312,82.8662109 C167.863281,82.8662109 166.634277,83.315918 165.758301,84.215332 C164.882324,85.1147461 164.444336,86.3759766 164.444336,87.9990234 C164.444336,89.5869141 164.891113,90.8466797 165.784668,91.7783203 C166.678223,92.7099609 167.880859,93.1757812 169.392578,93.1757812 Z M169.427734,90.6269531 C168.888672,90.6269531 168.504883,90.402832 168.276367,89.9545898 C168.047852,89.5063477 167.933594,88.8544922 167.933594,87.9990234 C167.933594,87.1435547 168.047852,86.5004883 168.276367,86.0698242 C168.504883,85.6391602 168.882812,85.4238281 169.410156,85.4238281 C169.949219,85.4238281 170.330078,85.640625 170.552734,86.0742188 C170.775391,86.5078125 170.886719,87.1494141 170.886719,87.9990234 C170.886719,88.8544922 170.776855,89.5063477 170.557129,89.9545898 C170.337402,90.402832 169.960938,90.6269531 169.427734,90.6269531 Z M179.78125,93 L179.78125,88.640625 C179.78125,87.515625 179.910156,86.7216797 180.167969,86.2587891 C180.425781,85.7958984 180.844727,85.5644531 181.424805,85.5644531 C181.84668,85.5644531 182.152832,85.7329102 182.343262,86.0698242 C182.533691,86.4067383 182.628906,86.90625 182.628906,87.5683594 L182.628906,87.5683594 L182.628906,93 L186.06543,93 L186.06543,86.5224609 C186.06543,85.3623047 185.759277,84.4628906 185.146973,83.8242188 C184.534668,83.1855469 183.677734,82.8662109 182.576172,82.8662109 C181.902344,82.8662109 181.306152,82.9833984 180.787598,83.2177734 C180.269043,83.4521484 179.863281,83.8037109 179.570312,84.2724609 L179.570312,84.2724609 L179.368164,84.2724609 L178.9375,83.0419922 L176.344727,83.0419922 L176.344727,93 L179.78125,93 Z" id="Python" fill="#FFFFFF" fill-rule="nonzero"></path>
            </g>
        </g>
    </g>
</svg>
