<?xml version="1.0" encoding="UTF-8"?>
<svg width="471px" height="578px" viewBox="0 0 471 578" version="1.1" xmlns="http://www.w3.org/2000/svg" xmlns:xlink="http://www.w3.org/1999/xlink">
    <!-- Generator: Sketch 64 (93537) - https://sketch.com -->
    <title>Mino</title>
    <desc>Created with Sketch.</desc>
    <defs>
        <linearGradient x1="10.67539%" y1="40.3804785%" x2="107.962427%" y2="57.5806857%" id="linearGradient-1">
            <stop stop-color="#7F78E3" offset="0%"></stop>
            <stop stop-color="#836BDD" offset="48.4281571%"></stop>
            <stop stop-color="#684CDF" offset="100%"></stop>
        </linearGradient>
        <path d="M28.9460991,88.0142434 C148.258599,154.039657 207.914849,155.331396 207.914849,91.8894629 C207.914849,28.4475293 214.40417,-1.8828125 227.382813,0.8984375 C232.854691,40.2994792 235.59063,72.8990347 235.59063,98.6971042 C235.59063,137.394208 212.015625,154.740168 174.980469,165.199219 C137.945313,175.658269 27.5515678,154.740168 6.77422407,136.908994 C-7.07733843,125.021545 0.313286566,108.723294 28.9460991,88.0142434 Z" id="path-2"></path>
        <linearGradient x1="10.67539%" y1="40.4851309%" x2="107.962427%" y2="57.4982142%" id="linearGradient-4">
            <stop stop-color="#7F78E3" offset="0%"></stop>
            <stop stop-color="#836BDD" offset="48.4281571%"></stop>
            <stop stop-color="#684CDF" offset="100%"></stop>
        </linearGradient>
        <path d="M25.9247445,77.753271 C132.783568,136.564498 186.212979,137.715098 186.212979,81.2050693 C186.212979,24.6950408 192.024954,-2.32129338 203.648903,0.156066746 C208.549634,35.2520019 211,64.289607 211,87.2688821 C211,121.737795 189.885722,137.188469 156.716245,146.504725 C123.546768,155.82098 24.6757726,137.188469 6.06713975,121.305597 C-6.33861545,110.717015 0.280586139,96.1995729 25.9247445,77.753271 Z" id="path-5"></path>
        <linearGradient x1="23.892024%" y1="3.58870245%" x2="8.30447312%" y2="107.167983%" id="linearGradient-7">
            <stop stop-color="#7F78E3" offset="0%"></stop>
            <stop stop-color="#836BDD" offset="48.4281571%"></stop>
            <stop stop-color="#684CDF" offset="100%"></stop>
        </linearGradient>
        <linearGradient x1="23.5006219%" y1="3.58870245%" x2="7.67938757%" y2="107.167983%" id="linearGradient-8">
            <stop stop-color="#7F78E3" offset="0%"></stop>
            <stop stop-color="#836BDD" offset="48.4281571%"></stop>
            <stop stop-color="#684CDF" offset="100%"></stop>
        </linearGradient>
        <linearGradient x1="24.3839929%" y1="3.58870245%" x2="9.09016793%" y2="107.167983%" id="linearGradient-9">
            <stop stop-color="#7F78E3" offset="0%"></stop>
            <stop stop-color="#836BDD" offset="48.4281571%"></stop>
            <stop stop-color="#684CDF" offset="100%"></stop>
        </linearGradient>
        <linearGradient x1="36.9835623%" y1="3.58870245%" x2="29.212206%" y2="107.167983%" id="linearGradient-10">
            <stop stop-color="#7F78E3" offset="0%"></stop>
            <stop stop-color="#836BDD" offset="48.4281571%"></stop>
            <stop stop-color="#684CDF" offset="100%"></stop>
        </linearGradient>
        <linearGradient x1="45.2208234%" y1="3.58870245%" x2="42.3674556%" y2="107.167983%" id="linearGradient-11">
            <stop stop-color="#7F78E3" offset="0%"></stop>
            <stop stop-color="#836BDD" offset="48.4281571%"></stop>
            <stop stop-color="#684CDF" offset="100%"></stop>
        </linearGradient>
        <linearGradient x1="42.9276153%" y1="3.58870245%" x2="38.7051066%" y2="107.167983%" id="linearGradient-12">
            <stop stop-color="#7F78E3" offset="0%"></stop>
            <stop stop-color="#836BDD" offset="48.4281571%"></stop>
            <stop stop-color="#684CDF" offset="100%"></stop>
        </linearGradient>
        <linearGradient x1="47.8042481%" y1="3.58870245%" x2="46.4932926%" y2="107.167983%" id="linearGradient-13">
            <stop stop-color="#7F78E3" offset="0%"></stop>
            <stop stop-color="#836BDD" offset="48.4281571%"></stop>
            <stop stop-color="#684CDF" offset="100%"></stop>
        </linearGradient>
        <linearGradient x1="12.1570851%" y1="32.8645068%" x2="93.7464273%" y2="69.75239%" id="linearGradient-14">
            <stop stop-color="#7F78E3" offset="0%"></stop>
            <stop stop-color="#836BDD" offset="48.4281571%"></stop>
            <stop stop-color="#684CDF" offset="100%"></stop>
        </linearGradient>
        <linearGradient x1="32.3914177%" y1="3.58870245%" x2="70.3555294%" y2="103.499134%" id="linearGradient-15">
            <stop stop-color="#7F78E3" offset="0%"></stop>
            <stop stop-color="#836BDD" offset="48.4281571%"></stop>
            <stop stop-color="#684CDF" offset="100%"></stop>
        </linearGradient>
    </defs>
    <g id="Squid-variations" stroke="none" stroke-width="1" fill="none" fill-rule="evenodd">
        <g id="Mino" transform="translate(240.500000, 254.000000) rotate(-21.000000) translate(-240.500000, -254.000000) translate(1.000000, -51.000000)">
            <g id="Arms" transform="translate(0.000000, 210.000000)">
                <g id="Path-8" transform="translate(243.000000, 0.000000)">
                    <mask id="mask-3" fill="white">
                        <use xlink:href="#path-2"></use>
                    </mask>
                    <use id="Mask" fill="url(#linearGradient-1)" xlink:href="#path-2"></use>
                    <path d="M14.8687853,98.8076413 C145.21147,158.466356 212.757812,162.197142 217.507812,110 C222.257812,57.8028581 228.253399,23.4760352 235.494572,7.01953125 L235.494572,118.697104 C215.921655,165.096177 195.896916,188.295713 175.420353,188.295713 C144.705509,188.295713 27.4555093,174.740168 6.67816559,156.908994 C-7.17339691,145.021545 -4.44319034,125.654427 14.8687853,98.8076413 Z" fill-opacity="0.1" fill="#FFFFFF" mask="url(#mask-3)"></path>
                </g>
                <g id="Path-8" transform="translate(105.500000, 104.500000) scale(-1, 1) translate(-105.500000, -104.500000) translate(0.000000, 30.000000)">
                    <mask id="mask-6" fill="white">
                        <use xlink:href="#path-5"></use>
                    </mask>
                    <use id="Mask" fill="url(#linearGradient-4)" xlink:href="#path-5"></use>
                    <path d="M13.0579546,87.0277308 C129.40861,140.342577 189.703987,143.676646 193.944084,97.029939 C198.184181,50.3832317 203.536153,19.7065853 210,5 L210,104.802228 C192.528197,146.267409 174.653074,167 156.37463,167 C128.956964,167 24.2935188,154.885898 5.74658171,138.950819 C-6.618043,128.327433 -4.1809187,111.019737 13.0579546,87.0277308 Z" fill-opacity="0.1" fill="#FFFFFF" mask="url(#mask-6)"></path>
                </g>
                <path d="M288.152574,109 C330.537775,169 315.028642,157.779297 330.533932,195.570313 C346.039222,233.361328 407.091929,258.826271 405.300781,267.960937 C403.509633,277.095604 333.152344,266.738281 307.617188,233.824219 C290.59375,211.88151 273.300075,165.341627 255.736161,94.2045679 L270.746094,91.0195313 C275.654706,94.7614101 280.277911,97.852718 288.152574,109 Z" id="Path" fill="url(#linearGradient-7)"></path>
                <path d="M315.027344,196.033203 C312.186198,249.388672 341.708333,272.957031 403.59375,266.738281 C356.632813,266.738281 324.640625,255.766927 307.617188,233.824219 C290.59375,211.88151 273.300075,165.341627 255.736161,94.2045679 L270.746094,91.0195312 C275.654706,94.7614101 319.289062,116 315.027344,196.033203 Z" id="Path" fill="url(#linearGradient-8)"></path>
                <path d="M282.782666,139.885787 C317.801614,189.558974 304.98786,180.269506 317.798439,211.556176 C330.609018,242.842846 381.051189,263.924927 379.57133,271.487394 C378.091471,279.049861 319.961789,270.475174 298.864465,243.226067 C284.799582,225.059996 270.511427,186.530256 256,127.636849 L268.401311,125 C272.45684,128.097851 276.276565,130.657103 282.782666,139.885787 Z" id="Path" fill-opacity="0.1" fill="#FFFFFF"></path>
                <path d="M178.101562,79.2095091 C148.101563,126.275915 145.550781,128.936072 120.651983,154.170447 C95.7531843,179.404822 85,201.72904 85,251.525915 C85,284.723832 96.8839943,266.406124 120.651983,196.57279 C152.592328,163.856645 177.214844,143.757686 194.519531,136.275915 C211.824219,128.794145 232.24349,116.834509 255.777344,100.397009 C223.99349,54.894405 198.101562,47.831905 178.101562,79.2095091 Z" id="Path-4" fill="url(#linearGradient-9)"></path>
                <path d="M166.491437,100 C158.957282,104.543855 135.181907,128.890196 133.46875,165.0625 C128.967789,260.097656 126.257813,269.761719 87.7265625,291.148438 C49.1953125,312.535156 142.313847,294.542969 151.161504,258.292969 C160.00916,222.042969 169.430818,141.855469 190.505037,120.539063 C211.579255,99.2226563 172.153558,96.58517 166.491437,100 Z" id="Path-2" fill="url(#linearGradient-10)"></path>
                <path d="M174.654585,109.186756 C168.267546,113.527739 148.112102,136.787079 146.659782,171.344382 C142.844117,262.136461 140.546749,271.369048 107.882092,291.800904 C75.2174342,312.232761 154.158165,295.043879 161.658718,260.412348 C169.15927,225.780818 177.146429,149.173485 195.011984,128.808802 C212.877538,108.444119 179.454618,105.92439 174.654585,109.186756 Z" id="Path-2" fill-opacity="0.1" fill="#FFFFFF"></path>
                <path d="M224.883407,106.324219 C221.772615,116.202086 218.510698,126.258076 215.097656,136.492187 C205.925446,163.995346 190.835002,210.697266 195.5,230.982422 C197.276181,238.70592 205.901729,267.165698 202,284.054687 C196.708314,306.96023 184.360209,328.559582 174,348.484375 C163.34375,368.978516 154.358315,379.875074 147,388.824219 C143.056117,393.62075 116.746094,416.140625 130.992188,378.367188 C145.238281,340.59375 178.329933,294.390625 170,249.851562 C161.670067,205.3125 153.4375,162.90625 167.382813,130.1875 C176.679688,108.375 190.678385,93.8841146 209.378906,86.7148438 L238.082031,86.7148438 L224.883407,106.324219 Z" id="Path-5" fill="url(#linearGradient-11)"></path>
                <path d="M235.146815,102.609375 C217.970898,119.126565 207.676418,132.502216 204.263377,142.736328 C195.091167,170.239487 201.09841,206.982422 205.763409,227.267578 C207.53959,234.991076 216.165138,263.450854 212.263409,280.339844 C206.971723,303.245387 194.623617,324.844738 184.263409,344.769531 C173.607159,365.263672 164.621723,376.16023 157.263409,385.109375 C153.319525,389.905906 146.023441,389.733606 142.849346,391.574219 C157.09544,353.800781 188.593342,290.675781 180.263409,246.136719 C171.933475,201.597656 163.700909,159.191406 177.646221,126.472656 C186.943096,104.660156 200.941794,90.1692708 219.642315,83 L248.34544,83 L235.146815,102.609375 Z" id="Path-5" fill-opacity="0.1" fill="#FFFFFF"></path>
                <path d="M278.890625,135.046875 C271.40625,201.450521 271.40625,242.910156 278.890625,259.425781 C290.117188,284.199219 343.443739,320.322778 340.105469,328.167969 C336.767199,336.01316 286.510093,314.526249 266.214844,289.214844 C252.464844,272.066406 244.341423,231.086177 238.082031,197.402344 C230.027564,154.05862 230.655111,116.866656 238.082031,97.46875 C243.667074,82.8815275 262.110646,72.6911248 271.566406,86.7148437 C275.194094,92.095022 277.635501,108.205699 278.890625,135.046875 Z" id="Path-6" fill="url(#linearGradient-12)"></path>
                <path d="M216.855469,338.628906 C230.119328,330.682906 252.386719,300.125 259.839844,266.738281 C264.808594,244.480469 260.428385,188.057292 246.699219,97.46875 L224.883407,86.7148437 C208.763219,91.2643229 200.703125,110.052083 200.703125,143.078125 C200.703125,192.617187 224.883407,247.191351 224.883407,287.679688 C224.883407,328.168024 203.59161,346.574907 216.855469,338.628906 Z" id="Path-7" fill="url(#linearGradient-13)"></path>
                <path d="M228.758699,343.840399 C249.939373,314.720028 261.997853,289.030936 264.934138,266.773123 C267.870424,244.515311 261.69067,189.817684 246.394878,102.680243 L219.762256,105.916789 C231.392864,110.473188 231.170734,128.321775 219.095865,159.462548 C200.983562,206.173707 251.831988,227.522232 233.502813,292.891181 C221.283363,336.47048 219.701991,353.453553 228.758699,343.840399 Z" id="Path-7" fill-opacity="0.1" fill="#FFFFFF" transform="translate(240.386504, 224.563317) rotate(3.000000) translate(-240.386504, -224.563317) "></path>
            </g>
            <g id="Head" transform="translate(109.000000, 0.000000)">
                <path d="M40.0061501,238 L167.00615,238 C172.696254,274.424479 172.751243,295.852061 167.171117,302.282744 C158.800927,311.92877 59.7209939,330.945312 46.7639626,308.472656 C38.1259418,293.490885 35.8733376,270 40.0061501,238 Z" id="Rectangle" fill="url(#linearGradient-14)"></path>
                <path d="M93,278.370282 C135.574219,270.469279 166.056641,287.289062 166.056641,296.714844 C166.056641,306.140625 62.984375,326.881748 50.0273437,306 C44.6392332,297.31644 50.4257813,286.271284 93,278.370282 Z" id="Rectangle" fill-opacity="0.2" fill="#FFFFFF"></path>
                <path d="M142.779468,1.11890331 C152.194683,3.14675709 183.4599,89.2237333 183.753389,98.8758188 C184.027003,107.874252 161.741895,119.865427 161.809073,129.163589 C162.018393,158.135754 167.473841,258.377619 159.936514,264.997362 C139.290569,280.420454 91.1831831,246.14789 3.88630911,246.14789 C-2.02971598,244.070378 -2.02971598,236.562991 32.4111343,159.047416 C36.3191675,150.251656 12.3871343,124.007001 16.8255004,115.179419 C51.5017207,46.2109882 127.575816,-2.15566686 142.779468,1.11890331 Z" id="Triangle" fill="url(#linearGradient-15)" transform="translate(92.341586, 134.974340) scale(-1, 1) translate(-92.341586, -134.974340) "></path>
                <path d="M124.568869,18.9064905 C132.140793,21.0871522 151.548878,46.4386029 155.108461,79.3698004 C155.762672,85.4221832 141.825263,94.2836578 142.400353,100.539999 C145.18352,130.817761 147.142692,161.96633 149.270533,179.296203 C136.167898,192.384136 84.9171124,245.314724 29.5154756,245.314724 C35.0896661,220.375492 47.0007732,181.63443 59.3035458,147.666408 C61.5243836,141.534663 33.7012658,125.762905 35.9914654,119.749998 C59.1604463,58.9199691 115.034071,16.1605344 124.568869,18.9064905 Z" id="Triangle" fill-opacity="0.1" fill="#FFFFFF" transform="translate(92.323137, 132.048088) scale(-1, 1) rotate(7.000000) translate(-92.323137, -132.048088) "></path>
                <ellipse id="Oval" fill="#FFEEEE" transform="translate(73.417501, 174.808191) scale(-1, 1) rotate(20.000000) translate(-73.417501, -174.808191) " cx="73.4175008" cy="174.808191" rx="5.5" ry="9.5"></ellipse>
                <ellipse id="Oval" fill="#FFEEEE" transform="translate(73.664967, 148.251001) scale(-1, 1) rotate(20.000000) translate(-73.664967, -148.251001) " cx="73.6649666" cy="148.251001" rx="7.5" ry="13.5"></ellipse>
                <ellipse id="Oval" fill="#FFEEEE" transform="translate(53.793768, 176.586785) scale(-1, 1) rotate(20.000000) translate(-53.793768, -176.586785) " cx="53.7937679" cy="176.586785" rx="4.5" ry="7.5"></ellipse>
            </g>
            <g id="Eyes" transform="translate(167.000000, 233.000000)">
                <ellipse id="Oval" fill="#FFEEEE" transform="translate(14.755976, 37.957712) rotate(-2.000000) translate(-14.755976, -37.957712) " cx="14.7559764" cy="37.9577115" rx="13.6649666" ry="31.5"></ellipse>
                <path d="M11.4539423,59.2183638 C8.37470527,58.6307909 6.49758476,52.173516 7.26127631,44.7956366 C8.02496786,37.4177572 11.140277,31.9131261 14.219514,32.500699 C17.2987511,33.0882719 19.1758716,39.5455468 18.41218,46.9234262 C17.6484885,54.3013056 14.5331793,59.8059367 11.4539423,59.2183638 Z" id="Oval" fill="#000000" transform="translate(12.836728, 45.859531) rotate(-10.000000) translate(-12.836728, -45.859531) "></path>
                <ellipse id="Oval" fill="#FFEEEE" cx="81.3299332" cy="31.5" rx="14" ry="31.5"></ellipse>
                <path d="M83.3629325,38.7606523 C80.2836954,38.1730794 78.4065749,31.7158045 79.1702665,24.3379251 C79.933958,16.9600457 83.0492672,11.4554146 86.1285042,12.0429875 C89.2077413,12.6305604 91.0848618,19.0878353 90.3211702,26.4657147 C89.5574787,33.8435941 86.4421695,39.3482252 83.3629325,38.7606523 Z" id="Oval" fill="#000000" transform="translate(84.745718, 25.401820) rotate(-8.000000) translate(-84.745718, -25.401820) "></path>
            </g>
        </g>
    </g>
</svg>