<?xml version="1.0" encoding="UTF-8"?>
<svg width="200px" height="216px" viewBox="0 0 200 216" version="1.1" xmlns="http://www.w3.org/2000/svg" xmlns:xlink="http://www.w3.org/1999/xlink">
    <!-- Generator: Sketch 63.1 (92452) - https://sketch.com -->
    <title>Organizer</title>
    <desc>Created with Sketch.</desc>
    <defs>
        <circle id="path-1" cx="100" cy="100" r="100"></circle>
        <linearGradient x1="89.7839452%" y1="13.7940622%" x2="12.1570851%" y2="122.386522%" id="linearGradient-3">
            <stop stop-color="#247CAD" offset="0%"></stop>
            <stop stop-color="#247CAD" offset="48.4281571%"></stop>
            <stop stop-color="#1A577A" offset="100%"></stop>
        </linearGradient>
        <path d="M46.5933116,0.914394811 C46.0896554,-2.13061092 35.9584542,7.58122744 32.0675895,7.58122744 C9.95064194,7.58122744 0.219990975,21.5546971 0.219990975,28.728565 C0.219990975,41.2768553 12.230358,45.4873646 18.8095291,45.387759 C25.3887002,45.2881533 32.0675895,40.1851018 32.0675895,33.4640117 C32.0675895,26.7429217 27.5862599,18.8758427 18.8095291,21.2319495 C10.0327983,23.5880562 7.8083974,34.5647857 13.804166,35.7400722 C16.9954114,36.365618 17.812143,37.0805424 21.2817886,35.7400722 C21.8659501,35.514386 22.5049936,34.7556992 23.198919,33.4640117 C23.8627466,29.7236951 22.2403506,27.8535368 18.3317311,27.8535368 C12.4688017,27.8535368 21.7650283,26.4324092 23.198919,28.728565 C24.6328097,31.0247208 24.6328097,33.5981289 22.4153447,35.7400722 C20.1978796,37.8820155 15.2643964,37.1982175 12.202981,35.7400722 C9.1415657,34.2819269 9.52891335,28.9638574 11.1582152,26.0306444 C12.7875171,23.0974314 16.676162,19.889793 20.5422394,19.889793 C24.4083168,19.889793 29.1056933,20.180999 34.8297076,24.2804462 C35.8412597,25.0049036 38.6117344,26.812181 39.6310427,26.0306444 C44.379638,22.3897429 47.0079613,3.42128482 46.5933116,0.914394811 Z" id="path-4"></path>
        <linearGradient x1="32.9499224%" y1="3.58870245%" x2="69.7098976%" y2="103.499134%" id="linearGradient-6">
            <stop stop-color="#247CAD" offset="0%"></stop>
            <stop stop-color="#247CAD" offset="48.4281571%"></stop>
            <stop stop-color="#1A577A" offset="100%"></stop>
        </linearGradient>
        <path d="M36.2480277,13.9518427 C36.2480277,22.9327541 34.1115223,29.3092042 25.5556245,37.5422443 C21.8555446,41.1027012 13.9114996,46.7695446 1.72348943,54.5427743 C-0.275186383,54.3061413 -0.233236337,52.498727 1.84933957,49.1205315 C3.25868295,46.8344023 7.5760869,42.1570299 12.5950483,37.5422443 C18.7008081,31.9281799 23.4570898,24.0484122 23.4745518,14.9394887 C23.5063676,-1.65701019 36.2480277,-5.36572623 36.2480277,13.9518427 Z" id="path-7"></path>
        <linearGradient x1="32.7959147%" y1="3.58870245%" x2="69.8879306%" y2="103.499134%" id="linearGradient-9">
            <stop stop-color="#247CAD" offset="0%"></stop>
            <stop stop-color="#247CAD" offset="48.4281571%"></stop>
            <stop stop-color="#1A577A" offset="100%"></stop>
        </linearGradient>
        <path d="M36.6464801,13.5805882 C36.6464801,22.5614997 34.5099747,28.9379498 25.9540769,37.1709898 C22.2539971,40.7314468 14.3099521,46.3982901 2.12194189,54.1715199 C0.123266079,53.9348868 0.165216124,52.1274725 2.24779203,48.749277 C3.65713541,46.4631478 7.97453936,41.7857755 12.9935008,37.1709898 C19.0992606,31.5569254 25.1087192,24.2164894 25.1261812,15.1075659 C25.157997,-1.48893296 36.6464801,-5.7369807 36.6464801,13.5805882 Z" id="path-10"></path>
        <linearGradient x1="45.8574853%" y1="3.58870245%" x2="54.7887489%" y2="103.499134%" id="linearGradient-12">
            <stop stop-color="#247CAD" offset="0%"></stop>
            <stop stop-color="#247CAD" offset="48.4281571%"></stop>
            <stop stop-color="#1A577A" offset="100%"></stop>
        </linearGradient>
        <path d="M37.7656489,0.722021661 C35.7888012,3.36943442 33.9354119,7.09987966 32.205481,11.9133574 C23.2971182,15.5132512 18.9331232,20.8488608 19.1134957,27.9201862 C19.5561974,45.2758615 37.7656489,53.1863021 37.7656489,72.503871 C37.7656489,81.4847824 35.6291435,87.8612325 27.0732457,96.0942726 C23.3731659,99.6547295 15.4291209,105.321573 3.24111068,113.094803 C1.24243486,112.85817 1.28438491,111.050755 3.36696081,107.67256 C4.7763042,105.386431 9.09370815,100.709058 14.1126696,96.0942726 C20.2184294,90.4802082 24.7059569,84.8661819 24.7234189,75.7572584 C24.7552347,59.1607595 6.98235522,52.5410577 3.36696081,40.6850933 C-0.248433588,28.829129 -1.63349082,2.75552798 6.08929592,2.75552798 C13.8120827,2.75552798 26.7917579,-0.797401854 37.7656489,0.722021661 Z" id="path-13"></path>
        <linearGradient x1="46.4971516%" y1="3.58870245%" x2="54.0492943%" y2="103.499134%" id="linearGradient-15">
            <stop stop-color="#247CAD" offset="0%"></stop>
            <stop stop-color="#247CAD" offset="48.4281571%"></stop>
            <stop stop-color="#1A577A" offset="100%"></stop>
        </linearGradient>
        <path d="M15.0322737,-2.84217094e-14 C5.4858008,4.56375096 0.712564352,11.6197179 0.712564352,21.1679008 C0.712564352,30.7160836 3.1118754,42.305582 7.9104975,55.936396 C16.2677478,69.8641683 18.6416732,80.6723454 15.0322737,88.3609272 C11.4228742,96.049509 12.1749369,97.9445652 17.2884619,94.0460957 C20.7503623,90.3476831 22.769519,87.6562811 23.3459322,85.9718896 C27.4564523,73.9601497 25.4210575,65.7158972 23.3459322,61.2521031 C19.5785118,53.1480191 15.6105436,36.7922576 17.2884619,21.1679008 C18.4070741,10.7516629 22.6188763,3.69569594 29.9238684,-2.84217094e-14 L15.0322737,-2.84217094e-14 Z" id="path-16"></path>
        <linearGradient x1="39.1334405%" y1="3.58870245%" x2="62.5617479%" y2="103.499134%" id="linearGradient-18">
            <stop stop-color="#247CAD" offset="0%"></stop>
            <stop stop-color="#247CAD" offset="48.4281571%"></stop>
            <stop stop-color="#1A577A" offset="100%"></stop>
        </linearGradient>
        <path d="M1.32870045,1.07082425 C7.61609545,-0.356941416 11.4094347,-0.356941416 12.7087182,1.07082425 C14.6576434,3.21247274 20.8242234,10.2086838 18.0011664,19.1218616 C15.1781093,28.0350393 11.9537116,30.3644387 12.7087182,42.3238504 C13.4637247,54.283262 20.2405635,61.9070961 23.2580115,65.1243493 C24.8187798,66.7884664 27.2305042,70.658499 35.1550828,76.0461984 C36.6812134,77.0837719 39.2359314,78.795494 42.8192368,81.1813648 C46.994669,84.9127433 47.8311769,86.7784325 45.3287602,86.7784325 C41.5751352,86.7784325 29.4194352,79.6927483 24.2671366,77.1746382 C19.1148379,74.656528 8.47603781,68.9124733 4.00502377,56.1026157 C-0.465990267,43.2927581 -1.55079269,31.1968204 4.00502377,19.1218616 C7.70890141,11.071889 6.81679364,5.05487657 1.32870045,1.07082425 Z" id="path-19"></path>
        <linearGradient x1="12.1570851%" y1="6.89556717%" x2="93.7464273%" y2="99.687252%" id="linearGradient-21">
            <stop stop-color="#247CAD" offset="0%"></stop>
            <stop stop-color="#247CAD" offset="48.4281571%"></stop>
            <stop stop-color="#1A577A" offset="100%"></stop>
        </linearGradient>
        <path d="M17.4339742,0.132829325 C26.8743555,4.12680126 32.9515578,7.69263312 35.6655812,10.8303249 C39.7366161,15.5368626 40.1591099,25.8755053 33.0669852,31.5001962 C28.3389021,35.2499902 18.7821068,37.1248872 4.39659938,37.1248872 C1.48080565,36.245505 0.0872913145,35.5432261 0.216056381,35.0180505 C0.370287099,34.3890119 3.01991135,32.9528199 4.39659938,32.6210566 C9.04773093,31.5001962 10.8527611,32.3027132 20.3318648,30.3249097 C29.8109686,28.3471063 29.5373097,22.8683378 30.3714599,19.632001 C30.92756,17.4744432 29.0733227,15.2489409 24.808748,12.9554941 L17.4339742,0.132829325 Z" id="path-22"></path>
        <linearGradient x1="38.9906804%" y1="3.58870245%" x2="67.2794694%" y2="150.91822%" id="linearGradient-24">
            <stop stop-color="#247CAD" offset="0%"></stop>
            <stop stop-color="#247CAD" offset="48.4281571%"></stop>
            <stop stop-color="#1A577A" offset="100%"></stop>
        </linearGradient>
    </defs>
    <g id="Symbols" stroke="none" stroke-width="1" fill="none" fill-rule="evenodd">
        <g id="Organizer">
            <g>
                <g id="Group-12" transform="translate(0.000000, 15.355338)">
                    <mask id="mask-2" fill="white">
                        <use xlink:href="#path-1"></use>
                    </mask>
                    <use id="Oval" fill="#FF3877" xlink:href="#path-1"></use>
                    <path d="M105.666968,220.909091 C160.895443,220.909091 119.639215,151.234001 167.796086,120.909091 C215.952956,90.5841812 160.895443,20.9090909 105.666968,20.9090909 C50.4384928,20.9090909 -66.7226376,99.5826068 5.66696776,120.909091 C78.0565732,142.235575 50.4384928,220.909091 105.666968,220.909091 Z" id="Oval" fill-opacity="0.2" fill="#FFFFFF" mask="url(#mask-2)"></path>
                </g>
                <path d="M53.4644887,128.635492 L57.5629006,128.072823 L60.5835109,146.9722 C59.8147875,147.384595 59.1939086,147.63581 58.7208741,147.725845 C58.2478396,147.81588 57.5573717,147.81588 56.6494705,147.725845 L53.4644887,128.635492 Z" id="Rectangle" fill="#EEF9FF"></path>
                <g id="Group-11" transform="translate(37.599278, 97.472924)">
                    <mask id="mask-5" fill="white">
                        <use xlink:href="#path-4"></use>
                    </mask>
                    <use id="Path-23" fill="url(#linearGradient-3)" xlink:href="#path-4"></use>
                    <path d="M41.7856872,0.722021661 C19.6687396,0.722021661 0.219990975,21.5546971 0.219990975,28.728565 C0.219990975,41.2768553 12.230358,45.4873646 18.8095291,45.387759 C25.3887002,45.2881533 32.0675895,40.1851018 32.0675895,33.4640117 C32.0675895,26.7429217 23.8148922,15.7209772 18.8095291,21.2319495 C13.804166,26.7429217 7.8083974,32.2887252 13.804166,33.4640117 C16.9954114,34.0895575 16.4573511,35.9791773 19.9269967,34.6387071 C20.5111582,34.4130209 21.3891955,33.2399124 22.5611087,31.1193816 C23.6501432,28.9421517 22.2403506,27.8535368 18.3317311,27.8535368 C12.4688017,27.8535368 23.039169,24.5836389 24.4730597,26.8797947 C25.9069504,29.1759505 26.6905247,34.7671835 24.4730597,36.9091268 C22.2555947,39.0510701 15.0106041,40.0630359 11.9491888,38.6048906 C8.88777344,37.1467453 6.31544464,30.7867498 7.94474653,27.8535368 C9.57404842,24.9203238 9.93808862,19.1843412 13.804166,19.1843412 C17.6702434,19.1843412 22.9318082,9.84671142 28.6558225,13.9461586 C29.6673746,14.670616 45.6765518,0.722021661 41.7856872,0.722021661 Z" id="Path-23" fill-opacity="0.1" fill="#FFFFFF" mask="url(#mask-5)"></path>
                </g>
                <g id="Group-7" transform="translate(73.107759, 142.064814) rotate(-9.000000) translate(-73.107759, -142.064814) translate(54.607759, 114.564814)">
                    <mask id="mask-8" fill="white">
                        <use xlink:href="#path-7"></use>
                    </mask>
                    <use id="Path-20" fill="url(#linearGradient-6)" xlink:href="#path-7"></use>
                    <path d="M35.7961222,-57.9015815 C33.8192744,-55.2541687 31.9658851,-51.5237235 30.2359542,-46.7102457 C21.3275915,-43.1103519 16.9635964,-37.7747423 17.143969,-30.7034169 C17.5866706,-13.3477416 35.7961222,-5.43730103 35.7961222,13.8802679 C35.7961222,22.8611793 33.6596168,29.2376294 25.103719,37.4706695 C21.4036391,41.0311264 13.4595941,46.6979698 1.27158392,54.4711995 C-0.727091893,54.2345665 -0.685141847,52.4271522 1.39743406,49.0489567 C2.80677744,46.7628275 9.39689672,39.1950099 17.143969,37.4706695 C23.5087728,36.0539938 26.0749702,24.5444779 27.338431,16.27451 C29.8175549,0.0474328122 14.7694225,-11.0235898 10.2983074,-19.5406552 C7.93256417,-24.0471798 7.93256417,-31.7748328 10.2983074,-42.7236144 C12.5062927,-52.1202374 14.7881799,-56.818549 17.143969,-56.818549 C24.8667557,-56.818549 24.8222311,-59.421005 35.7961222,-57.9015815 Z" id="Path-20" fill-opacity="0.1" fill="#FFFFFF" mask="url(#mask-8)"></path>
                </g>
                <g id="Group-7" transform="translate(137.717365, 149.924816) scale(-1, 1) rotate(39.000000) translate(-137.717365, -149.924816) translate(119.217365, 122.424816)">
                    <mask id="mask-11" fill="white">
                        <use xlink:href="#path-10"></use>
                    </mask>
                    <use id="Path-20" fill="url(#linearGradient-9)" xlink:href="#path-10"></use>
                    <path d="M38.0827299,-59.3643132 C36.1058821,-56.7169005 34.2524928,-52.9864552 32.5225619,-48.1729775 C23.6141992,-44.5730837 19.2502041,-39.2374741 19.4305767,-32.1661487 C19.8732783,-14.8104734 38.0827299,-6.9000328 38.0827299,12.4175361 C38.0827299,21.3984476 35.9462245,27.7748977 27.3903267,36.0079377 C23.6902468,39.5683947 15.7462018,45.235238 3.55819162,53.0084678 C1.55951581,52.7718347 1.60146585,50.9644204 3.68404176,47.5862249 C5.09338514,45.3000957 11.6835044,37.7322781 19.4305767,36.0079377 C25.7953805,34.5912621 28.3615779,23.0817462 29.6250387,14.8117783 C32.1041626,-1.41529895 17.0560302,-12.4863216 12.5849151,-21.003387 C10.2191719,-25.5099115 10.2191719,-33.2375646 12.5849151,-44.1863462 C14.7929004,-53.5829692 17.0747876,-58.2812807 19.4305767,-58.2812807 C27.1533634,-58.2812807 27.1088388,-60.8837367 38.0827299,-59.3643132 Z" id="Path-20" fill-opacity="0.1" fill="#FFFFFF" mask="url(#mask-11)"></path>
                </g>
                <path d="M47.6265269,73.6462094 C47.7996378,73.3718058 48.0376451,73.2020515 48.3405488,73.1369465 C48.6434525,73.0718414 48.9653173,73.1212588 49.3061432,73.2851986 L57.5528022,128.199637 C56.9914854,128.570865 56.366167,128.82208 55.6768468,128.953282 C54.9875266,129.084484 54.2929911,129.084484 53.5932402,128.953282 L47.6265269,73.6462094 Z" id="Rectangle" fill="#EEF9FF"></path>
                <g id="Group-7" transform="translate(80.298264, 93.140794)">
                    <mask id="mask-14" fill="white">
                        <use xlink:href="#path-13"></use>
                    </mask>
                    <use id="Path-20" fill="url(#linearGradient-12)" xlink:href="#path-13"></use>
                    <path d="M37.7656489,0.722021661 C35.7888012,3.36943442 33.9354119,7.09987966 32.205481,11.9133574 C23.2971182,15.5132512 18.9331232,20.8488608 19.1134957,27.9201862 C19.5561974,45.2758615 37.7656489,53.1863021 37.7656489,72.503871 C37.7656489,81.4847824 35.6291435,87.8612325 27.0732457,96.0942726 C23.3731659,99.6547295 15.4291209,105.321573 3.24111068,113.094803 C1.24243486,112.85817 1.28438491,111.050755 3.36696081,107.67256 C4.7763042,105.386431 11.3664235,97.818613 19.1134957,96.0942726 C25.4782996,94.677597 28.044497,83.168081 29.3079577,74.8981132 C31.7870817,58.6710359 16.7389493,47.6000133 12.2678342,39.0829479 C9.90209092,34.5764234 9.90209092,26.8487703 12.2678342,15.8999887 C14.4758195,6.50336567 16.7577066,1.80505415 19.1134957,1.80505415 C26.8362825,1.80505415 26.7917579,-0.797401854 37.7656489,0.722021661 Z" id="Path-20" fill-opacity="0.1" fill="#FFFFFF" mask="url(#mask-14)"></path>
                </g>
                <g id="Group-8" transform="translate(72.486677, 94.945848)">
                    <mask id="mask-17" fill="white">
                        <use xlink:href="#path-16"></use>
                    </mask>
                    <use id="Path-19" fill="url(#linearGradient-15)" xlink:href="#path-16"></use>
                    <path d="M15.0322737,-2.84217094e-14 C7.46261803,4.56375096 3.6777902,11.6197179 3.6777902,21.1679008 C3.6777902,35.4901751 14.2777568,39.7496192 11.7485856,54.8584866 C10.6533386,61.4013183 17.5069802,64.7438667 18.6367349,70.8452025 C20.0794209,78.6365495 17.3626359,84.6989762 15.5520122,88.5558862 C11.9426127,96.244468 12.5214292,98.0745378 17.2884619,94.0460957 C20.7503623,90.3476831 22.769519,87.6562811 23.3459322,85.9718896 C27.4564523,73.9601497 25.4210575,65.7158972 23.3459322,61.2521031 C19.5785118,53.1480191 13.5823013,36.913898 15.0322737,23.4121164 C15.9989219,14.4109287 20.9627868,6.60688991 29.9238684,-2.84217094e-14 L15.0322737,-2.84217094e-14 Z" id="Path-19" fill-opacity="0.1" fill="#FFFFFF" mask="url(#mask-17)"></path>
                </g>
                <g id="Group-9" transform="translate(103.272305, 93.862816)">
                    <mask id="mask-20" fill="white">
                        <use xlink:href="#path-19"></use>
                    </mask>
                    <use id="Path-21" fill="url(#linearGradient-18)" xlink:href="#path-19"></use>
                    <path d="M2.04414052,3.93346691 C7.85457547,0.597272805 11.4094347,-0.356941416 12.7087182,1.07082425 C14.6576434,3.21247274 20.8242234,10.2086838 18.0011664,19.1218616 C15.1781093,28.0350393 11.9537116,30.3644387 12.7087182,42.3238504 C13.4637247,54.283262 20.2405635,61.1184056 23.2580115,64.3356588 C24.8187798,65.999776 27.2305042,70.658499 35.1550828,76.0461984 C36.6812134,77.0837719 39.2359314,78.795494 42.8192368,81.1813648 C46.994669,84.9127433 47.8311769,86.7784325 45.3287602,86.7784325 C41.5751352,86.7784325 33.0097219,78.5643085 27.8574233,76.0461984 C22.7051246,73.5280882 17.1797322,68.2193792 12.7087182,55.4095217 C8.23770414,42.5996641 2.12031295,31.9305545 7.67612941,19.8555957 C11.380007,11.8056231 9.50267742,6.49824686 2.04414052,3.93346691 Z" id="Path-21" fill-opacity="0.1" fill="#FFFFFF" mask="url(#mask-20)"></path>
                </g>
                <polygon id="Rectangle" fill="#FFFFFF" points="90.6258163 114.121904 120.777728 98.1949458 144.286796 138.610586 114.134884 154.537544"></polygon>
                <polygon id="Rectangle" fill="#EEF9FF" points="94.242047 115.417502 119.755203 101.940845 140.141973 136.988783 114.628817 150.46544"></polygon>
                <g id="Group-10" transform="translate(106.158198, 102.888087)">
                    <mask id="mask-23" fill="white">
                        <use xlink:href="#path-22"></use>
                    </mask>
                    <use id="Path-22" fill="url(#linearGradient-21)" xlink:href="#path-22"></use>
                    <path d="M17.4339742,0.132829325 C26.8743555,4.12680126 32.9515578,7.69263312 35.6655812,10.8303249 C39.7366161,15.5368626 40.1591099,25.8755053 33.0669852,31.5001962 C28.3389021,35.2499902 18.7821068,37.1248872 4.39659938,37.1248872 C1.48080565,36.245505 0.0872913145,35.5432261 0.216056381,35.0180505 C0.370287099,34.3890119 3.01991135,32.9528199 4.39659938,32.6210566 C9.04773093,31.5001962 14.8656404,37.6212771 21.9356421,30.3249097 C29.0056438,23.0285424 35.6204461,28.2769664 34.3744223,20.9343976 C33.5437398,16.0393517 29.7913633,12.3103166 23.1172929,9.74729242 L17.4339742,0.132829325 Z" id="Path-22" fill-opacity="0.1" fill="#FFFFFF" mask="url(#mask-23)"></path>
                </g>
                <polygon id="Path-5" stroke="#686868" points="95.9157806 108.855193 99.8973539 115.090554 115.627111 106.816233 111.869658 100.909091"></polygon>
                <g id="Head" transform="translate(99.907362, 49.638989) scale(-1, 1) translate(-99.907362, -49.638989) translate(73.199241, 0.000000)">
                    <path d="M42.3170005,22.1111256 C44.0029897,24.2221918 37.6160353,33.3911452 40.0200051,39.089105 C41.2086806,41.9065383 54.8641399,76.1155439 52.843852,78.5628165 C52.2828385,79.2423993 51.4121597,79.4838581 50.3652419,79.4808086 C50.1826292,88.0368131 49.176596,93.1920877 47.346432,94.945666 C44.3526659,97.8141539 11.6019376,101.127913 8.02379158,93.5248667 C6.6412378,90.5871386 6.03678465,86.7899022 6.21043214,82.1331577 C5.2968333,81.9112399 4.51921894,81.548356 3.88917451,81.010089 C1.68843633,78.8065685 5.56610496,48.0173633 6.26145477,39.089105 C6.48461636,36.2237208 -0.187068066,32.0461042 0.0937923527,29.2775837 C0.395054667,26.307956 11.9935867,0.442563947 14.9666169,0.0203231012 C18.5247319,-0.485013668 31.6931802,8.8087938 42.3170005,22.1111256 Z" id="Combined-Shape" fill="url(#linearGradient-24)"></path>
                    <path d="M14.0641297,86.9569852 C18.7534194,86.6138823 24.5479968,93.1241011 28.0317851,92.805251 C31.5155734,92.4864009 37.9954307,84.5205119 42.2993372,84.3727874 C46.6032437,84.225063 49.6413508,89.0350305 47.0345139,92.1530138 C44.427677,95.2709971 13.5821287,101.420463 9.5515483,94.1574011 C7.83614937,91.0662709 9.37484002,87.3000882 14.0641297,86.9569852 Z" id="Rectangle" fill-opacity="0.2" fill="#FFFFFF" transform="translate(28.435815, 90.965110) rotate(5.000000) translate(-28.435815, -90.965110) "></path>
                    <path d="M14.9666169,0.0203231012 C18.5247319,-0.485013668 31.6931802,8.8087938 42.3170005,22.1111256 C44.0029897,24.2221918 37.6160353,33.3911452 40.0200051,39.089105 C41.2086806,41.9065383 54.8641399,76.1155439 52.843852,78.5628165 C50.8235641,81.010089 44.7874722,77.7756791 40.9666293,77.901503 C23.2300983,78.4855833 15.0000968,83.8780515 9.99186772,79.5993626 C7.79112954,77.395842 6.08943086,45.0405359 9.99186772,38.6949939 C11.8786615,35.6269804 3.10870904,31.6357652 3.38956946,28.8672448 C3.69083178,25.8976171 11.9935867,0.442563947 14.9666169,0.0203231012 Z" id="Triangle" fill-opacity="0.1" fill="#FFFFFF"></path>
                    <ellipse id="Oval" fill="#EEF9FF" transform="translate(17.349517, 52.012720) scale(-1, 1) rotate(20.000000) translate(-17.349517, -52.012720) " cx="17.3495165" cy="52.0127196" rx="1.79018993" ry="3.07527916"></ellipse>
                    <ellipse id="Oval" fill="#EEF9FF" transform="translate(17.430134, 43.422911) scale(-1, 1) rotate(20.000000) translate(-17.430134, -43.422911) " cx="17.430134" cy="43.4229106" rx="2.44116284" ry="4.37013434"></ellipse>
                    <ellipse id="Oval" fill="#EEF9FF" transform="translate(25.616404, 51.294216) scale(-1, 1) rotate(20.000000) translate(-25.616404, -51.294216) " cx="25.6164038" cy="51.2942156" rx="1.46470337" ry="2.42785155"></ellipse>
                </g>
                <g id="Eyes" transform="translate(82.670206, 76.173285)">
                    <ellipse id="Oval" fill="#EEF9FF" transform="translate(4.992184, 8.851690) rotate(-2.000000) translate(-4.992184, -8.851690) " cx="4.99218403" cy="8.85168962" rx="4.59274818" ry="8.56052964"></ellipse>
                    <ellipse id="Oval" fill="#EEF9FF" transform="translate(25.388759, 8.862576) rotate(-2.000000) translate(-25.388759, -8.862576) " cx="25.3887588" cy="8.86257595" rx="4.59274804" ry="8.40200144"></ellipse>
                    <path d="M3.80111715,14.7368447 C2.76648169,14.5491152 2.13403684,12.5010018 2.38851204,10.1622555 C2.64298724,7.82350914 3.68801791,6.07976549 4.72265337,6.26749502 C5.75728884,6.45522456 6.38973369,8.50333792 6.13525849,10.8420843 C5.88078329,13.1808306 4.83575261,14.9245743 3.80111715,14.7368447 Z" id="Oval" fill="#1E466B" transform="translate(4.261885, 10.502170) rotate(-2.000000) translate(-4.261885, -10.502170) "></path>
                    <path d="M23.9761003,14.6822682 C22.9414648,14.4945387 22.3090199,12.4464253 22.5634951,10.107679 C22.8179703,7.76893266 23.863001,6.025189 24.8976365,6.21291854 C25.9322719,6.40064807 26.5647168,8.44876144 26.3102416,10.7875078 C26.0557664,13.1262541 25.0107357,14.8699978 23.9761003,14.6822682 Z" id="Oval" fill="#1E466B" transform="translate(24.436868, 10.447593) rotate(-2.000000) translate(-24.436868, -10.447593) "></path>
                </g>
            </g>
        </g>
    </g>
</svg>