<?xml version="1.0" encoding="UTF-8"?>
<svg width="628px" height="494px" viewBox="0 0 628 494" version="1.1" xmlns="http://www.w3.org/2000/svg" xmlns:xlink="http://www.w3.org/1999/xlink">
    <!-- Generator: Sketch 52.6 (67491) - http://www.bohemiancoding.com/sketch -->
    <title>Study</title>
    <desc>Created with Sketch.</desc>
    <defs>
        <linearGradient x1="10.67539%" y1="30.919261%" x2="107.962427%" y2="65.0366197%" id="linearGradient-1">
            <stop stop-color="#7F78E3" offset="0%"></stop>
            <stop stop-color="#836BDD" offset="48.4281571%"></stop>
            <stop stop-color="#684CDF" offset="100%"></stop>
        </linearGradient>
        <path d="M25.6721238,47.9359142 C116.078629,96.9685092 187.341721,98.8744314 239.4614,53.6536807 C244.779696,49.0393522 244.779696,23.0741688 210.000918,27.0094791 C190.798531,29.1822797 219.85716,-6.91418342 239.4614,2.25619976 C246.398573,5.50123925 274.050269,23.6468763 274.050269,42.6504656 C274.050269,97.1345523 183.086854,116.050628 151.512907,121.484807 C119.938961,126.918985 24.4353223,107.153039 6.00801919,91.3284424 C-6.27684953,80.778711 0.277851999,66.314535 25.6721238,47.9359142 Z" id="path-2"></path>
        <linearGradient x1="12.1570851%" y1="3.58870245%" x2="93.7464273%" y2="103.499134%" id="linearGradient-4">
            <stop stop-color="#7F78E3" offset="0%"></stop>
            <stop stop-color="#836BDD" offset="48.4281571%"></stop>
            <stop stop-color="#684CDF" offset="100%"></stop>
        </linearGradient>
        <path d="M76.7976304,43.6306767 C75.2994499,35.0941134 67.2822987,25.3800163 45.0386195,27.8969472 C25.836233,30.0697477 17.9454766,59.8542312 3.25007778,58.3579292 C-3.86007406,57.6339655 5.52954995,32.5307711 6.26479135,30.9007412 C14.9989637,11.5370844 54.8948623,-6.02671539 74.4991023,3.14366779 C81.4362752,6.38870728 109.087971,24.5343443 109.087971,43.5379336 C109.087971,47.6345194 107.798794,53.3664246 105.220439,60.733649 C92.7256365,53.1425502 83.2513669,47.4415595 76.7976304,43.6306767 Z" id="path-5"></path>
        <path d="M76.7976304,43.6306767 C75.2994499,35.0941134 63.4031931,5.2150747 33.9427102,21.7656904 C20.1820866,29.4962763 17.9454766,59.8542312 3.25007778,58.3579292 C-3.86007406,57.6339655 5.52954995,32.5307711 6.26479135,30.9007412 C14.9989637,11.5370844 54.8948623,-6.02671539 74.4991023,3.14366779 C81.4362752,6.38870728 109.087971,24.5343443 109.087971,43.5379336 C109.087971,47.6345194 107.798794,53.3664246 105.220439,60.733649 C92.7256365,53.1425502 83.2513669,47.4415595 76.7976304,43.6306767 Z" id="path-7"></path>
        <path d="M22.9925023,56.5789898 C117.764959,108.772074 165.151188,109.793194 165.151188,59.6423505 C165.151188,52.1726421 158.280175,34.9824619 147.480784,25.9037338 C141.736005,21.0742679 131.423985,13.3000498 124.50028,13.3000498 C117.576574,13.3000498 111.530474,8.71410895 111.748654,7.38822047 C113.267681,-1.84299016 133.950215,-3.24175405 159.285829,16.1263434 C165.682021,21.0159847 188.908438,37.9080583 187.13465,65.0237905 C185.360862,92.1395227 168.408522,109.325828 138.990709,117.593707 C109.572897,125.861586 21.8847965,109.325828 5.3809103,95.2302866 C-5.62168049,85.8332587 0.248850184,72.9494931 22.9925023,56.5789898 Z" id="path-9"></path>
        <linearGradient x1="12.1570851%" y1="3.58870245%" x2="-10.436714%" y2="107.167983%" id="linearGradient-11">
            <stop stop-color="#7F78E3" offset="0%"></stop>
            <stop stop-color="#836BDD" offset="48.4281571%"></stop>
            <stop stop-color="#684CDF" offset="100%"></stop>
        </linearGradient>
        <path d="M42.6832282,55.3115486 C42.6832282,66.9260242 33.3475698,76.3405752 21.8303393,76.3405752 C10.3131088,76.3405752 0.976743518,66.9260242 0.976743518,55.3115486 L0.976743518,21.8767579 C0.976743518,10.2626388 10.3131088,0.848087766 21.8303393,0.848087766 C33.3475698,0.848087766 42.6832282,10.2626388 42.6832282,21.8767579 L42.6832282,55.3115486" id="path-12"></path>
    </defs>
    <g id="Website" stroke="none" stroke-width="1" fill="none" fill-rule="evenodd">
        <g id="Desktop-HD" transform="translate(-708.000000, -108.000000)">
            <g id="Head" transform="translate(-103.000000, -28.000000)">
                <g id="Study" transform="translate(807.000000, 97.000000)">
                    <g transform="translate(-4.000000, 0.507812)">
                        <g id="Arms" transform="translate(143.000000, 185.000000)">
                            <g id="Keyboard-Arm" transform="translate(193.342908, 15.974425)">
                                <mask id="mask-3" fill="white">
                                    <use xlink:href="#path-2"></use>
                                </mask>
                                <use id="Mask" fill="url(#linearGradient-1)" xlink:href="#path-2"></use>
                                <path d="M67.1874486,86.971867 C122.520881,120.712368 176.247436,114.972243 228.367115,69.7514922 C233.685411,65.1371637 244.779696,23.0741688 210.000918,27.0094791 C190.798531,29.1822797 219.85716,-6.91418342 239.4614,2.25619976 C246.398573,5.50123925 274.050269,23.6468763 274.050269,42.6504656 C274.050269,97.1345523 183.086854,116.050628 151.512907,121.484807 C119.938961,126.918985 24.4353223,107.153039 6.00801919,91.3284424 C-6.27684953,80.778711 14.1162936,79.3265192 67.1874486,86.971867 Z" id="Mask" fill-opacity="0.1" fill="#FFFFFF" mask="url(#mask-3)"></path>
                            </g>
                            <g id="Keyboard" transform="translate(396.197620, 87.104368) rotate(32.000000) translate(-396.197620, -87.104368) translate(304.697620, 41.604368)">
                                <path d="M182.293273,14.9320128 L182.293273,85.2048304 C182.293273,88.2069363 180.060654,90.6427683 177.31126,90.6427683 L9.01149084,90.6427683 C6.25805512,90.6427683 4.02756368,88.2069363 4.02756368,85.2048304 L4.02756368,14.9320128 C4.02756368,9.205067 6.25805512,4.55836931 9.01149084,4.55836931 L177.31126,4.55836931 C180.060654,4.55836931 182.293273,9.205067 182.293273,14.9320128 Z M12.8508125,82.1356265 L22.9169582,82.1356265 L22.9169582,71.6294314 L12.8508125,71.6294314 L12.8508125,82.1356265 Z M12.8508125,65.1903643 L32.9380005,65.1903643 L32.9380005,54.6841692 L12.8508125,54.6841692 L12.8508125,65.1903643 Z M12.8508125,48.2442472 L22.9169582,48.2442472 L22.9169582,37.7418985 L12.8508125,37.7418985 L12.8508125,48.2442472 Z M12.8508125,31.3019766 L22.9169582,31.3019766 L22.9169582,20.7957815 L12.8508125,20.7957815 L12.8508125,31.3019766 Z M27.9085445,48.2442472 L37.9689459,48.2442472 L37.9689459,37.7418985 L27.9085445,37.7418985 L27.9085445,48.2442472 Z M27.9085445,31.3019766 L37.9689459,31.3019766 L37.9689459,20.7957815 L27.9085445,20.7957815 L27.9085445,31.3019766 Z M42.9643616,48.2442472 L53.0268906,48.2442472 L53.0268906,37.7418985 L42.9643616,37.7418985 L42.9643616,48.2442472 Z M42.9643616,31.3019766 L53.0268906,31.3019766 L53.0268906,20.7957815 L42.9643616,20.7957815 L42.9643616,31.3019766 Z M58.016562,48.2442472 L68.080793,48.2442472 L68.080793,37.7418985 L58.016562,37.7418985 L58.016562,48.2442472 Z M58.016562,31.3019766 L68.080793,31.3019766 L68.080793,20.7957815 L58.016562,20.7957815 L58.016562,31.3019766 Z M73.074294,48.2442472 L83.1346954,48.2442472 L83.1346954,37.7418985 L73.074294,37.7418985 L73.074294,48.2442472 Z M73.074294,31.3019766 L83.1346954,31.3019766 L83.1346954,20.7957815 L73.074294,20.7957815 L73.074294,31.3019766 Z M88.1281964,48.2442472 L98.1928529,48.2442472 L98.1928529,37.7418985 L88.1281964,37.7418985 L88.1281964,48.2442472 Z M88.1281964,31.3019766 L98.1928529,31.3019766 L98.1928529,20.7957815 L88.1281964,20.7957815 L88.1281964,31.3019766 Z M103.182524,48.2442472 L113.246543,48.2442472 L113.246543,37.7418985 L103.182524,37.7418985 L103.182524,48.2442472 Z M103.182524,31.3019766 L113.246543,31.3019766 L113.246543,20.7957815 L103.182524,20.7957815 L103.182524,31.3019766 Z M118.240044,48.2442472 L128.300445,48.2442472 L128.300445,37.7418985 L118.240044,37.7418985 L118.240044,48.2442472 Z M118.240044,31.3019766 L128.300445,31.3019766 L128.300445,20.7957815 L118.240044,20.7957815 L118.240044,31.3019766 Z M133.292244,48.2442472 L143.358177,48.2442472 L143.358177,37.7418985 L133.292244,37.7418985 L133.292244,48.2442472 Z M133.292244,31.3019766 L143.358177,31.3019766 L143.358177,20.7957815 L133.292244,20.7957815 L133.292244,31.3019766 Z M148.349763,48.2442472 L158.412079,48.2442472 L158.412079,37.7418985 L148.349763,37.7418985 L148.349763,48.2442472 Z M148.349763,31.3019766 L158.412079,31.3019766 L158.412079,20.7957815 L148.349763,20.7957815 L148.349763,31.3019766 Z M163.405793,48.2442472 L173.468109,48.2442472 L173.468109,37.7418985 L163.405793,37.7418985 L163.405793,48.2442472 Z M163.405793,31.3019766 L173.468109,31.3019766 L173.468109,20.7957815 L163.405793,20.7957815 L163.405793,31.3019766 Z M163.405793,82.1356265 L173.468109,82.1356265 L173.468109,71.6294314 L163.405793,71.6294314 L163.405793,82.1356265 Z M153.360284,65.1903643 L173.447472,65.1903643 L173.447472,54.6841692 L153.360284,54.6841692 L153.360284,65.1903643 Z M148.349763,82.1356265 L158.412079,82.1356265 L158.412079,71.6294314 L148.349763,71.6294314 L148.349763,82.1356265 Z M139.94521,65.1903643 L150.011569,65.1903643 L150.011569,54.6841692 L139.94521,54.6841692 L139.94521,65.1903643 Z M133.292244,82.1356265 L143.358177,82.1356265 L143.358177,71.6294314 L133.292244,71.6294314 L133.292244,82.1356265 Z M125.13427,65.1903643 L135.196799,65.1903643 L135.196799,54.6841692 L125.13427,54.6841692 L125.13427,65.1903643 Z M110.318012,65.1903643 L120.380328,65.1903643 L120.380328,54.6841692 L110.318012,54.6841692 L110.318012,65.1903643 Z M95.4998387,65.1903643 L105.565984,65.1903643 L105.565984,54.6841692 L95.4998387,54.6841692 L95.4998387,65.1903643 Z M80.688899,65.1903643 L90.7514279,65.1903643 L90.7514279,54.6841692 L80.688899,54.6841692 L80.688899,65.1903643 Z M65.8707257,65.1903643 L75.9332547,65.1903643 L75.9332547,54.6841692 L65.8707257,54.6841692 L65.8707257,65.1903643 Z M57.056838,82.1356265 L128.300445,82.1356265 L128.300445,71.6294314 L57.056838,71.6294314 L57.056838,82.1356265 Z M51.0599988,65.1903643 L61.120613,65.1903643 L61.120613,54.6841692 L51.0599988,54.6841692 L51.0599988,65.1903643 Z M42.9643616,82.1356265 L53.0268906,82.1356265 L53.0268906,71.6294314 L42.9643616,71.6294314 L42.9643616,82.1356265 Z M36.2435276,65.1903643 L46.3041417,65.1903643 L46.3041417,54.6841692 L36.2435276,54.6841692 L36.2435276,65.1903643 Z M27.9085445,82.1356265 L37.9689459,82.1356265 L37.9689459,71.6294314 L27.9085445,71.6294314 L27.9085445,82.1356265 Z" id="Shape" fill-opacity="0.1" fill="#000000"></path>
                                <path d="M178.265709,10.3736435 L178.265709,80.6464611 C178.265709,83.6485669 176.03309,86.084399 173.283697,86.084399 L4.98392716,86.084399 C2.23049143,86.084399 -1.93267624e-12,83.6485669 -1.93267624e-12,80.6464611 L-2.50111043e-12,10.3736435 C-2.50111043e-12,4.64669768 2.23049143,6.25277607e-13 4.98392716,6.25277607e-13 L173.283697,6.25277607e-13 C176.03309,6.25277607e-13 178.265709,4.64669768 178.265709,10.3736435 Z M8.82324883,77.5772572 L18.8893946,77.5772572 L18.8893946,67.0710621 L8.82324883,67.0710621 L8.82324883,77.5772572 Z M8.82324883,60.6319949 L28.9104369,60.6319949 L28.9104369,50.1257998 L8.82324883,50.1257998 L8.82324883,60.6319949 Z M8.82324883,43.6858779 L18.8893946,43.6858779 L18.8893946,33.1835292 L8.82324883,33.1835292 L8.82324883,43.6858779 Z M8.82324883,26.7436073 L18.8893946,26.7436073 L18.8893946,16.2374122 L8.82324883,16.2374122 L8.82324883,26.7436073 Z M23.8809808,43.6858779 L33.9413822,43.6858779 L33.9413822,33.1835292 L23.8809808,33.1835292 L23.8809808,43.6858779 Z M23.8809808,26.7436073 L33.9413822,26.7436073 L33.9413822,16.2374122 L23.8809808,16.2374122 L23.8809808,26.7436073 Z M38.936798,43.6858779 L48.9993269,43.6858779 L48.9993269,33.1835292 L38.936798,33.1835292 L38.936798,43.6858779 Z M38.936798,26.7436073 L48.9993269,26.7436073 L48.9993269,16.2374122 L38.936798,16.2374122 L38.936798,26.7436073 Z M53.9889984,43.6858779 L64.0532293,43.6858779 L64.0532293,33.1835292 L53.9889984,33.1835292 L53.9889984,43.6858779 Z M53.9889984,26.7436073 L64.0532293,26.7436073 L64.0532293,16.2374122 L53.9889984,16.2374122 L53.9889984,26.7436073 Z M69.0467303,43.6858779 L79.1071317,43.6858779 L79.1071317,33.1835292 L69.0467303,33.1835292 L69.0467303,43.6858779 Z M69.0467303,26.7436073 L79.1071317,26.7436073 L79.1071317,16.2374122 L69.0467303,16.2374122 L69.0467303,26.7436073 Z M84.1006327,43.6858779 L94.1652892,43.6858779 L94.1652892,33.1835292 L84.1006327,33.1835292 L84.1006327,43.6858779 Z M84.1006327,26.7436073 L94.1652892,26.7436073 L94.1652892,16.2374122 L84.1006327,16.2374122 L84.1006327,26.7436073 Z M99.1549606,43.6858779 L109.218979,43.6858779 L109.218979,33.1835292 L99.1549606,33.1835292 L99.1549606,43.6858779 Z M99.1549606,26.7436073 L109.218979,26.7436073 L109.218979,16.2374122 L99.1549606,16.2374122 L99.1549606,26.7436073 Z M114.21248,43.6858779 L124.272881,43.6858779 L124.272881,33.1835292 L114.21248,33.1835292 L114.21248,43.6858779 Z M114.21248,26.7436073 L124.272881,26.7436073 L124.272881,16.2374122 L114.21248,16.2374122 L114.21248,26.7436073 Z M129.26468,43.6858779 L139.330613,43.6858779 L139.330613,33.1835292 L129.26468,33.1835292 L129.26468,43.6858779 Z M129.26468,26.7436073 L139.330613,26.7436073 L139.330613,16.2374122 L129.26468,16.2374122 L129.26468,26.7436073 Z M144.322199,43.6858779 L154.384516,43.6858779 L154.384516,33.1835292 L144.322199,33.1835292 L144.322199,43.6858779 Z M144.322199,26.7436073 L154.384516,26.7436073 L154.384516,16.2374122 L144.322199,16.2374122 L144.322199,26.7436073 Z M159.378229,43.6858779 L169.440546,43.6858779 L169.440546,33.1835292 L159.378229,33.1835292 L159.378229,43.6858779 Z M159.378229,26.7436073 L169.440546,26.7436073 L169.440546,16.2374122 L159.378229,16.2374122 L159.378229,26.7436073 Z M159.378229,77.5772572 L169.440546,77.5772572 L169.440546,67.0710621 L159.378229,67.0710621 L159.378229,77.5772572 Z M149.332721,60.6319949 L169.419909,60.6319949 L169.419909,50.1257998 L149.332721,50.1257998 L149.332721,60.6319949 Z M144.322199,77.5772572 L154.384516,77.5772572 L154.384516,67.0710621 L144.322199,67.0710621 L144.322199,77.5772572 Z M135.917646,60.6319949 L145.984005,60.6319949 L145.984005,50.1257998 L135.917646,50.1257998 L135.917646,60.6319949 Z M129.26468,77.5772572 L139.330613,77.5772572 L139.330613,67.0710621 L129.26468,67.0710621 L129.26468,77.5772572 Z M121.106707,60.6319949 L131.169236,60.6319949 L131.169236,50.1257998 L121.106707,50.1257998 L121.106707,60.6319949 Z M106.290448,60.6319949 L116.352764,60.6319949 L116.352764,50.1257998 L106.290448,50.1257998 L106.290448,60.6319949 Z M91.472275,60.6319949 L101.538421,60.6319949 L101.538421,50.1257998 L91.472275,50.1257998 L91.472275,60.6319949 Z M76.6613353,60.6319949 L86.7238643,60.6319949 L86.7238643,50.1257998 L76.6613353,50.1257998 L76.6613353,60.6319949 Z M61.8431621,60.6319949 L71.905691,60.6319949 L71.905691,50.1257998 L61.8431621,50.1257998 L61.8431621,60.6319949 Z M53.0292743,77.5772572 L124.272881,77.5772572 L124.272881,67.0710621 L53.0292743,67.0710621 L53.0292743,77.5772572 Z M47.0324351,60.6319949 L57.0930493,60.6319949 L57.0930493,50.1257998 L47.0324351,50.1257998 L47.0324351,60.6319949 Z M38.936798,77.5772572 L48.9993269,77.5772572 L48.9993269,67.0710621 L38.936798,67.0710621 L38.936798,77.5772572 Z M32.2159639,60.6319949 L42.2765781,60.6319949 L42.2765781,50.1257998 L32.2159639,50.1257998 L32.2159639,60.6319949 Z M23.8809808,77.5772572 L33.9413822,77.5772572 L33.9413822,67.0710621 L23.8809808,67.0710621 L23.8809808,77.5772572 Z" id="Shape" fill="#616E7D"></path>
                                <polygon id="Fill-6" fill="#FFFFFF" points="8.86894075 26.6240409 18.6247756 26.6240409 18.6247756 15.9744246 8.86894075 15.9744246"></polygon>
                                <polygon id="Fill-7" fill="#FFFFFF" points="23.94614 26.6240409 33.7019749 26.6240409 33.7019749 15.9744246 23.94614 15.9744246"></polygon>
                                <polygon id="Fill-8" fill="#FFFFFF" points="39.0233393 26.6240409 48.7791741 26.6240409 48.7791741 15.9744246 39.0233393 15.9744246"></polygon>
                                <polygon id="Fill-9" fill="#FFFFFF" points="54.1005386 26.6240409 63.8563734 26.6240409 63.8563734 15.9744246 54.1005386 15.9744246"></polygon>
                                <polygon id="Fill-10" fill="#FFFFFF" points="69.1777379 26.6240409 78.9335727 26.6240409 78.9335727 15.9744246 69.1777379 15.9744246"></polygon>
                                <polygon id="Fill-11" fill="#FFFFFF" points="84.2549372 26.6240409 94.010772 26.6240409 94.010772 15.9744246 84.2549372 15.9744246"></polygon>
                                <polygon id="Fill-12" fill="#FFFFFF" points="99.3321364 26.6240409 109.087971 26.6240409 109.087971 15.9744246 99.3321364 15.9744246"></polygon>
                                <polygon id="Fill-13" fill="#FFFFFF" points="114.409336 26.6240409 124.165171 26.6240409 124.165171 15.9744246 114.409336 15.9744246"></polygon>
                                <polygon id="Fill-14" fill="#FFFFFF" points="129.486535 26.6240409 139.24237 26.6240409 139.24237 15.9744246 129.486535 15.9744246"></polygon>
                                <polygon id="Fill-15" fill="#FFFFFF" points="144.563734 26.6240409 154.319569 26.6240409 154.319569 15.9744246 144.563734 15.9744246"></polygon>
                                <polygon id="Fill-16" fill="#FFFFFF" points="159.640934 26.6240409 169.396768 26.6240409 169.396768 15.9744246 159.640934 15.9744246"></polygon>
                                <polygon id="Fill-17" fill="#FFFFFF" points="8.86894075 43.4859335 18.6247756 43.4859335 18.6247756 32.8363171 8.86894075 32.8363171"></polygon>
                                <polygon id="Fill-18" fill="#FFFFFF" points="23.94614 43.4859335 33.7019749 43.4859335 33.7019749 32.8363171 23.94614 32.8363171"></polygon>
                                <polygon id="Fill-19" fill="#FFFFFF" points="39.0233393 43.4859335 48.7791741 43.4859335 48.7791741 32.8363171 39.0233393 32.8363171"></polygon>
                                <polygon id="Fill-20" fill="#FFFFFF" points="54.1005386 43.4859335 63.8563734 43.4859335 63.8563734 32.8363171 54.1005386 32.8363171"></polygon>
                                <polygon id="Fill-21" fill="#FFFFFF" points="69.1777379 43.4859335 78.9335727 43.4859335 78.9335727 32.8363171 69.1777379 32.8363171"></polygon>
                                <polygon id="Fill-22" fill="#FFFFFF" points="84.2549372 43.4859335 94.010772 43.4859335 94.010772 32.8363171 84.2549372 32.8363171"></polygon>
                                <polygon id="Fill-23" fill="#FFFFFF" points="99.3321364 43.4859335 109.087971 43.4859335 109.087971 32.8363171 99.3321364 32.8363171"></polygon>
                                <polygon id="Fill-24" fill="#FFFFFF" points="114.409336 43.4859335 124.165171 43.4859335 124.165171 32.8363171 114.409336 32.8363171"></polygon>
                                <polygon id="Fill-25" fill="#FFFFFF" points="129.486535 43.4859335 139.24237 43.4859335 139.24237 32.8363171 129.486535 32.8363171"></polygon>
                                <polygon id="Fill-26" fill="#FFFFFF" points="144.563734 43.4859335 154.319569 43.4859335 154.319569 32.8363171 144.563734 32.8363171"></polygon>
                                <polygon id="Fill-27" fill="#FFFFFF" points="159.640934 43.4859335 169.396768 43.4859335 169.396768 32.8363171 159.640934 32.8363171"></polygon>
                                <polygon id="Fill-28" fill="#FFFFFF" points="8.86894075 60.3478261 29.2675045 60.3478261 29.2675045 49.6982097 8.86894075 49.6982097"></polygon>
                                <polygon id="Fill-29" fill="#FFFFFF" points="148.998205 60.3478261 169.396768 60.3478261 169.396768 49.6982097 148.998205 49.6982097"></polygon>
                                <polygon id="Fill-30" fill="#FFFFFF" points="32.8150808 60.3478261 42.5709156 60.3478261 42.5709156 49.6982097 32.8150808 49.6982097"></polygon>
                                <polygon id="Fill-31" fill="#FFFFFF" points="47.005386 60.3478261 56.7612208 60.3478261 56.7612208 49.6982097 47.005386 49.6982097"></polygon>
                                <polygon id="Fill-32" fill="#FFFFFF" points="62.0825853 60.3478261 71.8384201 60.3478261 71.8384201 49.6982097 62.0825853 49.6982097"></polygon>
                                <polygon id="Fill-33" fill="#FFFFFF" points="77.1597846 60.3478261 86.9156194 60.3478261 86.9156194 49.6982097 77.1597846 49.6982097"></polygon>
                                <polygon id="Fill-34" fill="#FFFFFF" points="91.3500898 60.3478261 101.105925 60.3478261 101.105925 49.6982097 91.3500898 49.6982097"></polygon>
                                <polygon id="Fill-35" fill="#FFFFFF" points="106.427289 60.3478261 116.183124 60.3478261 116.183124 49.6982097 106.427289 49.6982097"></polygon>
                                <polygon id="Fill-36" fill="#FFFFFF" points="121.504488 60.3478261 131.260323 60.3478261 131.260323 49.6982097 121.504488 49.6982097"></polygon>
                                <polygon id="Fill-37" fill="#FFFFFF" points="135.694794 60.3478261 145.450628 60.3478261 145.450628 49.6982097 135.694794 49.6982097"></polygon>
                                <polygon id="Fill-38" fill="#FFFFFF" points="8.86894075 77.2097187 18.6247756 77.2097187 18.6247756 66.5601023 8.86894075 66.5601023"></polygon>
                                <polygon id="Fill-39" fill="#FFFFFF" points="23.94614 77.2097187 33.7019749 77.2097187 33.7019749 66.5601023 23.94614 66.5601023"></polygon>
                                <polygon id="Fill-40" fill="#FFFFFF" points="39.0233393 77.2097187 48.7791741 77.2097187 48.7791741 66.5601023 39.0233393 66.5601023"></polygon>
                                <polyline id="Fill-41" fill="#FFFFFF" points="99.1502271 66.5601023 53.2136445 66.5601023 53.2136445 77.2097187 124.165171 77.2097187 124.165171 66.5601023 99.1502271 66.5601023"></polyline>
                                <polygon id="Fill-42" fill="#FFFFFF" points="129.486535 77.2097187 139.24237 77.2097187 139.24237 66.5601023 129.486535 66.5601023"></polygon>
                                <polygon id="Fill-43" fill="#FFFFFF" points="144.563734 77.2097187 154.319569 77.2097187 154.319569 66.5601023 144.563734 66.5601023"></polygon>
                                <polygon id="Fill-44" fill="#FFFFFF" points="159.640934 77.2097187 169.396768 77.2097187 169.396768 66.5601023 159.640934 66.5601023"></polygon>
                            </g>
                            <g id="Keyboard-Arm" transform="translate(358.305206, 15.086957)">
                                <mask id="mask-6" fill="white">
                                    <use xlink:href="#path-5"></use>
                                </mask>
                                <use id="Mask" fill="url(#linearGradient-4)" xlink:href="#path-5"></use>
                                <mask id="mask-8" fill="white">
                                    <use xlink:href="#path-7"></use>
                                </mask>
                                <use id="Mask" fill-opacity="0.1" fill="#FFFFFF" xlink:href="#path-7"></use>
                            </g>
                            <g id="Path-8" transform="translate(94.021544, 91.061381) scale(-1, 1) translate(-94.021544, -91.061381) translate(0.021544, 31.061381)">
                                <mask id="mask-10" fill="white">
                                    <use xlink:href="#path-9"></use>
                                </mask>
                                <use id="Mask" fill="url(#linearGradient-1)" xlink:href="#path-9"></use>
                                <path d="M11.5810226,64.8097765 C57.983502,87.7422735 89.3252342,101.024968 105.606219,104.657859 C148.072197,114.133592 174.610224,97.9395902 176.997728,71.6568789 C177.500783,66.1190179 178.904439,44.6805334 168.509874,29.6162734 C158.661851,15.3440846 129.486535,5.79126585 112.726489,7.81650012 C110.485069,8.0873467 113.888007,0.763616958 114.654938,-0.595310311 C118.544667,-7.48753664 137.662308,-1.38024655 172.007859,17.72656 C183.90709,27.1052747 190.834581,36.1111534 192.790332,44.7441962 C194.746083,53.3772389 192.565224,65.323865 186.247756,80.5840745 C170.752117,117.383097 154.898776,135.782609 138.687733,135.782609 C114.371167,135.782609 21.5457779,125.03173 5.09660927,110.889857 C-5.86950312,101.461942 -3.70803202,86.1019151 11.5810226,64.8097765 Z" fill-opacity="0.1" fill="#FFFFFF" mask="url(#mask-10)"></path>
                            </g>
                            <path d="M256.447705,88.7468031 C294.038888,141.994885 280.28393,132.03687 294.03548,165.575188 C307.78703,199.113506 361.934314,221.712828 360.345756,229.819553 C358.757197,237.926278 296.357734,228.734485 273.710755,199.524307 C258.612769,180.050855 243.275111,138.748196 227.69778,75.6163301 L241.010001,72.7897119 C245.36342,76.1105097 249.463713,78.8539466 256.447705,88.7468031 Z" id="Path" fill="url(#linearGradient-11)"></path>
                            <path d="M280.282779,165.985988 C277.762983,213.337261 303.94599,234.253427 358.8318,228.734485 C317.182423,228.734485 288.808741,218.997759 273.710755,199.524307 C258.612769,180.050855 243.275111,138.748196 227.69778,75.6163301 L241.010001,72.7897119 C245.36342,76.1105097 284.062472,94.9590793 280.282779,165.985988 Z" id="Path" fill="url(#linearGradient-11)"></path>
                            <path d="M251.685165,116.156951 C282.743263,160.240317 271.37882,151.996211 282.740447,179.762131 C294.102073,207.52805 338.838936,226.237723 337.526458,232.949171 C336.213979,239.660618 284.659109,232.050857 265.948017,207.868146 C253.473956,191.746339 240.801876,157.552427 227.931777,105.28641 L238.930426,102.946292 C242.527252,105.695535 245.914942,107.966789 251.685165,116.156951 Z" id="Path" fill-opacity="0.1" fill="#FFFFFF"></path>
                            <path d="M158.844115,62.3086948 C132.237292,104.078626 129.97502,106.439429 107.892423,128.83413 C85.809826,151.228831 76.2728905,171.040862 76.2728905,215.233997 C76.2728905,244.696086 86.8127346,228.439706 107.892423,166.464855 C136.220125,137.430321 158.057689,119.593138 173.405114,112.953306 C188.752539,106.313474 206.862269,95.6996795 227.734305,81.1119237 C199.545393,40.7298172 176.581996,34.4620742 158.844115,62.3086948 Z" id="Path-4" fill="url(#linearGradient-11)"></path>
                            <path d="M148.547163,80.7595908 C141.865166,84.7921166 120.778926,106.398716 119.259538,138.50048 C115.267662,222.841143 112.8642,231.417689 78.6910626,250.397718 C44.5179253,269.377747 127.104202,253.410256 134.951136,221.23954 C142.79807,189.068824 151.154083,117.904981 169.844682,98.9873521 C188.535282,80.0697231 153.568865,77.7290383 148.547163,80.7595908 Z" id="Path-2" fill="url(#linearGradient-11)"></path>
                            <path d="M155.787011,88.9125433 C150.122384,92.7650271 132.246639,113.406947 130.958586,144.075449 C127.574495,224.650517 125.536973,232.844142 96.5668821,250.976762 C67.5967909,269.109381 137.608858,253.854798 144.261053,223.120422 C150.913249,192.386046 157.997013,124.399487 173.841867,106.326482 C189.686721,88.2534764 160.044132,86.0172972 155.787011,88.9125433 Z" id="Path-2" fill-opacity="0.1" fill="#FFFFFF"></path>
                            <path d="M200.334655,86.3721328 C197.575712,95.1384242 194.682737,104.062793 191.655731,113.145241 C183.520952,137.553414 170.137326,178.999875 174.274686,197.002303 C175.84997,203.856661 183.499918,229.113804 180.039497,244.102242 C175.346332,264.430179 164.394871,283.598913 155.206463,301.28153 C145.755498,319.469424 137.786369,329.139771 131.260323,337.081851 C127.762516,341.338619 104.428313,361.324289 117.063089,327.80157 C129.697865,294.278852 159.046655,253.275056 151.658887,213.748062 C144.271119,174.221068 136.969704,136.586877 149.337719,107.550032 C157.583062,88.1921355 169.998424,75.331938 186.583806,68.9694393 L212.040437,68.9694393 L200.334655,86.3721328 Z" id="Path-5" fill="url(#linearGradient-11)"></path>
                            <path d="M209.437211,83.0753277 C194.203992,97.733806 185.073879,109.604269 182.046873,118.686716 C173.912094,143.09489 179.239883,175.70307 183.377242,193.705498 C184.952526,200.559856 192.602474,225.816999 189.142054,240.805437 C184.448889,261.133374 173.497427,280.302108 164.309019,297.984725 C154.858054,316.172619 146.888925,325.842966 140.362879,333.785046 C136.865073,338.041814 130.394219,337.888904 127.579133,339.522389 C140.213909,305.99967 168.149212,249.978251 160.761443,210.451257 C153.373675,170.924263 146.07226,133.290072 158.440275,104.253227 C166.685618,84.8953305 179.100981,72.0351329 195.686362,65.6726343 L221.142993,65.6726343 L209.437211,83.0753277 Z" id="Path-5" fill-opacity="0.1" fill="#FFFFFF"></path>
                            <path d="M248.233337,111.862572 C241.595489,170.793685 241.595489,207.587786 248.233337,222.244875 C258.190109,244.230509 305.485111,276.289012 302.524419,283.251369 C299.563728,290.213725 254.990998,271.144778 236.991262,248.681716 C224.796468,233.463025 217.591854,197.094382 212.040437,167.201057 C204.896977,128.734888 205.453545,95.7282086 212.040437,78.5131873 C216.993779,65.5674937 233.351273,56.5238371 241.737531,68.9694393 C244.954906,73.7441756 247.120175,88.0418864 248.233337,111.862572 Z" id="Path-6" fill="url(#linearGradient-11)"></path>
                            <path d="M193.214725,292.535116 C204.978363,285.483295 224.72718,258.36413 231.337312,228.734485 C235.744067,208.981388 231.859286,158.907622 219.68297,78.5131873 L200.334655,68.9694393 C186.037756,73.0069567 178.889307,89.6804934 178.889307,118.99005 C178.889307,162.954384 200.334655,211.387209 200.334655,247.319313 C200.334655,283.251418 181.451086,299.586938 193.214725,292.535116 Z" id="Path-7" fill="url(#linearGradient-11)"></path>
                            <path d="M203.749108,297.158942 C222.544145,271.312854 233.24582,248.513235 235.854132,228.760085 C238.462444,209.006935 232.988267,160.466434 219.431601,83.1385812 L195.803719,86.0148788 C206.121241,90.0567006 205.921483,105.896471 195.204446,133.534189 C179.128891,174.990766 224.236352,193.928843 207.965582,251.943316 C197.118401,290.619632 195.71291,305.691507 203.749108,297.158942 Z" id="Path-7" fill-opacity="0.1" fill="#FFFFFF" transform="translate(214.084028, 191.305398) rotate(3.000000) translate(-214.084028, -191.305398) "></path>
                        </g>
                        <g id="Head" transform="translate(201.000000, 0.000000)">
                            <path d="M74.4148968,201.288026 L186.914897,201.288026 C191.955343,233.586755 192.004054,252.587264 187.061029,258.289553 C179.64649,266.842987 91.8788331,283.705552 80.401148,263.778342 C72.7493579,250.493536 70.7539408,229.66343 74.4148968,201.288026 Z" id="Rectangle" fill="url(#linearGradient-4)"></path>
                            <path d="M120.209461,251.133685 C142.781613,246.940425 171.619556,228.298055 183.35527,229.66343 C191.227499,230.579314 186.073796,249.996683 186.073796,253.352321 C186.073796,261.710457 94.7696235,280.102262 83.2919384,261.585761 C78.5190058,253.885775 82.4960784,258.139751 120.209461,251.133685 Z" id="Rectangle" fill-opacity="0.2" fill="#FFFFFF"></path>
                            <path d="M201.75005,77.9222471 C201.992424,85.9014402 182.251679,96.534392 182.311187,104.779363 C182.496608,130.469892 187.329189,219.357501 180.652424,225.227434 C162.363693,238.903574 119.748883,208.513016 42.4189746,208.513016 C37.1784012,206.670821 37.1784012,200.013785 67.6870284,131.278291 C71.1488689,123.478815 49.9492331,100.206855 53.8808567,92.3791615 C84.597981,31.2226886 201.490069,69.3634399 201.75005,77.9222471 Z" id="Triangle" fill="url(#linearGradient-4)" transform="translate(120.775027, 143.541286) scale(-1, 1) translate(-120.775027, -143.541286) "></path>
                            <ellipse id="Oval" fill="#FFEEEE" transform="translate(79.208416, 163.875224) scale(-1, 1) rotate(20.000000) translate(-79.208416, -163.875224) " cx="79.208416" cy="163.875224" rx="4.87262552" ry="8.42294048"></ellipse>
                            <ellipse id="Oval" fill="#FFEEEE" transform="translate(104.230777, 170.474998) scale(-1, 1) rotate(20.000000) translate(-104.230777, -170.474998) " cx="104.230777" cy="170.474998" rx="6.64448904" ry="11.9694418"></ellipse>
                            <ellipse id="Oval" fill="#FFEEEE" transform="translate(86.628338, 146.831001) scale(-1, 1) rotate(20.000000) translate(-86.628338, -146.831001) " cx="86.6283377" cy="146.831001" rx="3.98669376" ry="6.64968983"></ellipse>
                            <g id="Hat" transform="translate(112.522557, 100.597507) rotate(-6.000000) translate(-112.522557, -100.597507) translate(6.522557, 38.097507)">
                                <polygon id="Path" fill="url(#linearGradient-4)" points="0.369611891 46.12656 0.431251705 37.8800579 105.928965 0.424135308 210.797106 54.5587131 211.587361 62.5156266 100.385627 99.7590576 33.5108311 63.8981775"></polygon>
                                <polygon id="Path" fill="url(#linearGradient-4)" transform="translate(16.676668, 87.293571) rotate(3.000000) translate(-16.676668, -87.293571) " points="19.7915452 91.8166334 26.230908 111.965795 16.6758722 124.045262 7.12242733 109.747345 14.0623858 89.6508115 15.6535717 50.5418799 21.2619676 53.372672"></polygon>
                                <polygon id="Path" fill-opacity="0.1" fill="#FFFFFF" points="211.039578 54.5764121 211.039578 62.8689777 100.385627 99.7590576 100.385627 91.7385973"></polygon>
                                <polygon id="Path-15" fill-opacity="0.3" fill="#FFFFFF" points="100.102751 100.055168 100.102751 91.8485728 0.455889364 37.8272338 0.455889364 45.7861676"></polygon>
                            </g>
                        </g>
                        <g id="Eyes" transform="translate(276.000000, 202.000000)">
                            <ellipse id="Oval" fill="#FFEEEE" transform="translate(13.908148, 35.111111) rotate(-2.000000) translate(-13.908148, -35.111111) " cx="13.9081479" cy="35.1111111" rx="12.1324654" ry="27.9999609"></ellipse>
                            <path d="M10.0841668,45.1207483 C7.35082342,44.599499 5.68665208,38.8604648 6.36713605,32.3022567 C7.04762003,25.7440486 9.81507387,20.8501265 12.5484172,21.3713759 C15.2817606,21.8926253 16.9459319,27.6316595 16.2654479,34.1898676 C15.584964,40.7480757 12.8175101,45.6419977 10.0841668,45.1207483 Z" id="Oval" fill="#000000" transform="translate(11.316292, 33.246062) rotate(-2.000000) translate(-11.316292, -33.246062) "></path>
                            <ellipse id="Oval" fill="#FFEEEE" cx="81.3847834" cy="29.7777778" rx="13.0202974" ry="29.7777778"></ellipse>
                            <path d="M77.0851068,40.8472894 C74.3517634,40.32604 72.6875921,34.5870058 73.3680761,28.0287977 C74.04856,21.4705896 76.8160139,16.5766676 79.5493572,17.0979169 C82.2827006,17.6191663 83.9468719,23.3582005 83.2663879,29.9164086 C82.585904,36.4746167 79.8184501,41.3685387 77.0851068,40.8472894 Z" id="Oval" fill="#000000" transform="translate(78.317232, 28.972603) rotate(-2.000000) translate(-78.317232, -28.972603) "></path>
                        </g>
                        <g id="Mouse" transform="translate(0.000000, 226.000000)">
                            <path d="M68.5,93.2773437 C102.054687,122.050781 125.27474,126.122396 138.160156,105.492188 C154.588973,79.1888158 192.743056,101.595217 198.34375,76.6757813 C200.534021,66.9305057 195.574447,46.9151596 183.46503,16.6297428 C187.432308,11.2684337 188.796599,7.12187824 187.557901,4.19007644 C185.699854,-0.207626261 179.630634,-1.10975406 176.403591,1.32415654" id="Cabel" stroke="#FFFFFF" stroke-width="3" stroke-linecap="round"></path>
                            <path d="M63.8673958,97.0846164 C63.8673958,108.699092 54.5317374,118.113643 43.0145069,118.113643 C31.4972764,118.113643 22.1609111,108.699092 22.1609111,97.0846164 L22.1609111,63.6498257 C22.1609111,52.0357065 31.4972764,42.6211555 43.0145069,42.6211555 C54.5317374,42.6211555 63.8673958,52.0357065 63.8673958,63.6498257 L63.8673958,97.0846164" id="Fill-164-Copy" fill-opacity="0.1" fill="#000000" transform="translate(43.014153, 80.367399) rotate(-57.000000) translate(-43.014153, -80.367399) "></path>
                            <g id="Mouse-body" transform="translate(46.663040, 69.186201) rotate(137.000000) translate(-46.663040, -69.186201) translate(25.163040, 30.686201)">
                                <mask id="mask-13" fill="white">
                                    <use xlink:href="#path-12"></use>
                                </mask>
                                <use id="Fill-164" fill="#FAF9F7" xlink:href="#path-12"></use>
                                <path d="M25.4368601,28.6387001 C25.4368601,30.1209321 23.9963659,31.3222037 22.2189606,31.3222037 C20.4410247,31.3222037 19,30.1209321 19,28.6387001 L19,16.6835036 C19,15.2012716 20.4410247,14 22.2189606,14 C23.9963659,14 25.4368601,15.2012716 25.4368601,16.6835036 L25.4368601,28.6387001" id="Fill-169" fill="#393939" mask="url(#mask-13)"></path>
                                <path d="M7.29435777,45.7204725 C15.1436317,41.0850817 20.853285,37.0095491 24.4233179,33.4938749 C27.9933508,29.9782006 32.2330789,24.2768777 37.1425023,16.3899061" id="Path-3" stroke="#616E7D" stroke-width="2" stroke-linecap="square" mask="url(#mask-13)" transform="translate(22.218430, 31.055189) rotate(-136.000000) translate(-22.218430, -31.055189) "></path>
                                <path d="M22.1481645,16.8495263 L20.7869716,-1.55212596" id="Path-9" stroke="#616E7D" stroke-width="2" mask="url(#mask-13)"></path>
                            </g>
                        </g>
                    </g>
                </g>
            </g>
        </g>
    </g>
</svg>