<?xml version="1.0" encoding="UTF-8"?>
<svg width="570px" height="586px" viewBox="0 0 570 586" version="1.1" xmlns="http://www.w3.org/2000/svg" xmlns:xlink="http://www.w3.org/1999/xlink">
    <!-- Generator: Sketch 64 (93537) - https://sketch.com -->
    <title>Volunteer</title>
    <desc>Created with Sketch.</desc>
    <defs>
        <linearGradient x1="24.8565076%" y1="3.58870245%" x2="79.0658889%" y2="103.499134%" id="linearGradient-1">
            <stop stop-color="#247CAD" offset="0%"></stop>
            <stop stop-color="#247CAD" offset="48.4281571%"></stop>
            <stop stop-color="#1A577A" offset="100%"></stop>
        </linearGradient>
        <path d="M18.5151642,4.47432094 C-6.03787802,40.7945233 -6.03787802,66.1492255 18.5151642,80.5384275 C55.3447276,102.122231 121.596539,108.36683 121.596539,142.588394 C121.596539,165.40277 126.086045,177.319727 135.065056,178.339267 L141.432384,148.640088 C150.666089,119.950252 144.05414,101.350943 121.596539,92.8421594 C87.9101361,80.0789842 62.9912203,75.8302212 62.9912203,48.0273852 C62.9912203,29.4921611 62.8466845,13.4830327 62.5576131,0 L18.5151642,4.47432094 Z" id="path-2"></path>
        <linearGradient x1="12.1570851%" y1="32.2842906%" x2="93.7464273%" y2="70.4212156%" id="linearGradient-4">
            <stop stop-color="#247CAD" offset="0%"></stop>
            <stop stop-color="#247CAD" offset="48.4281571%"></stop>
            <stop stop-color="#1A577A" offset="100%"></stop>
        </linearGradient>
        <path d="M146.723154,0 C143.280436,22.2667378 134.354284,40.1793146 119.944697,53.7377305 C98.3303165,74.0753543 52.6517531,102.492099 18.1063008,96.1979001 C-16.4391515,89.9037016 5.76447657,107.383702 24.4455693,112.690404 C43.1266621,117.997106 86.7849479,114.276528 129.519432,88.1843214 C158.009087,70.7895171 176.757091,44.6206331 185.763443,9.67766921 L146.723154,0 Z" id="path-5"></path>
        <linearGradient x1="12.1570851%" y1="35.2362382%" x2="93.7464273%" y2="67.0184527%" id="linearGradient-7">
            <stop stop-color="#247CAD" offset="0%"></stop>
            <stop stop-color="#247CAD" offset="48.4281571%"></stop>
            <stop stop-color="#1A577A" offset="100%"></stop>
        </linearGradient>
        <linearGradient x1="43.0928777%" y1="3.58870245%" x2="57.9846367%" y2="103.499134%" id="linearGradient-8">
            <stop stop-color="#247CAD" offset="0%"></stop>
            <stop stop-color="#247CAD" offset="48.4281571%"></stop>
            <stop stop-color="#1A577A" offset="100%"></stop>
        </linearGradient>
        <linearGradient x1="47.8724336%" y1="3.58870245%" x2="52.4594677%" y2="103.499134%" id="linearGradient-9">
            <stop stop-color="#247CAD" offset="0%"></stop>
            <stop stop-color="#247CAD" offset="48.4281571%"></stop>
            <stop stop-color="#1A577A" offset="100%"></stop>
        </linearGradient>
        <linearGradient x1="45.8909118%" y1="3.58870245%" x2="54.7501079%" y2="103.499134%" id="linearGradient-10">
            <stop stop-color="#247CAD" offset="0%"></stop>
            <stop stop-color="#247CAD" offset="48.4281571%"></stop>
            <stop stop-color="#1A577A" offset="100%"></stop>
        </linearGradient>
        <path d="M34.6381552,0 C54.5963836,14.8706817 65.743201,35.876832 68.0786074,63.0184509 C70.4140138,90.1600698 59.2671964,120.78266 34.6381552,154.886222 C23.0345349,170.367763 19.3738855,185.150495 23.6562069,199.23442 C27.9385284,213.318344 22.1727806,209.320152 6.35896381,187.239844 C-0.538075292,169.744551 1.76270662,150.792044 13.2613095,130.382324 C30.5092139,99.7677441 29.7343852,95.6403573 26.0877832,60.584665 C23.6567152,37.2142035 14.9672627,18.0475819 0.0194257464,3.08480031 L34.6381552,0 Z" id="path-11"></path>
        <linearGradient x1="12.1570851%" y1="43.6779214%" x2="93.7464273%" y2="57.2875732%" id="linearGradient-13">
            <stop stop-color="#247CAD" offset="0%"></stop>
            <stop stop-color="#247CAD" offset="48.4281571%"></stop>
            <stop stop-color="#1A577A" offset="100%"></stop>
        </linearGradient>
        <path d="M36.2040277,0 C61.0128643,38.5779097 85.7641431,57.8668646 110.457864,57.8668646 C135.151585,57.8668646 159.882719,49.171651 184.651265,31.781224 L210.582478,11.751693 C217.8031,6.92347717 221.413411,6.92347717 221.413411,11.751693 C221.413411,16.5799088 214.857581,25.332638 201.745922,38.0098807 C184.786526,56.442717 166.770225,69.0675262 147.69702,75.8843083 C119.087212,86.1094814 86.2972963,82.7563818 41.4188585,60.6108817 C16.5497805,48.339105 -1.56801378,26.9877213 1.10510913,11.1858023 C1.46697623,9.04665844 4.91753688,8.2033424 11.4567911,8.65585421 L36.2040277,0 Z" id="path-14"></path>
        <linearGradient x1="47.8847151%" y1="0%" x2="57.3285744%" y2="184.892842%" id="linearGradient-16">
            <stop stop-color="#247CAD" offset="0%"></stop>
            <stop stop-color="#247CAD" offset="48.4281571%"></stop>
            <stop stop-color="#1A577A" offset="100%"></stop>
        </linearGradient>
    </defs>
    <g id="Volunteer" stroke="none" stroke-width="1" fill="none" fill-rule="evenodd">
        <g id="Learner" transform="translate(64.000000, 0.000000)">
            <g id="Arms" transform="translate(0.000000, 319.000000)">
                <g id="Group-3" transform="translate(190.183879, 28.569505)">
                    <mask id="mask-3" fill="white">
                        <use xlink:href="#path-2"></use>
                    </mask>
                    <use id="Path-14" fill="url(#linearGradient-1)" xlink:href="#path-2"></use>
                    <path d="M100.006961,120.472402 C107.129735,124.378694 121.596539,121.28435 121.596539,142.588394 C121.596539,165.40277 126.086045,177.319727 135.065056,178.339267 L141.432384,148.640088 C146.737012,126.598232 138.37243,109.980106 116.338637,98.7857093 C104.640021,92.8421594 80.6729663,88.0150051 82.0964418,91.0747153 C83.5199174,94.1344255 76.1284209,105.817253 78.4767778,105.817253 C80.1896577,105.817253 95.2018895,117.837191 100.006961,120.472402 Z" id="Path-14" fill-opacity="0.1" fill="#FFFFFF" mask="url(#mask-3)"></path>
                </g>
                <g id="Group-5" transform="translate(0.000000, 14.027962)">
                    <mask id="mask-6" fill="white">
                        <use xlink:href="#path-5"></use>
                    </mask>
                    <use id="Path-11" fill="url(#linearGradient-4)" xlink:href="#path-5"></use>
                    <path d="M146.723154,0 C143.280436,22.2667378 134.354284,40.1793146 119.944697,53.7377305 C98.3303165,74.0753543 52.6517531,102.492099 18.1063008,96.1979001 C-16.4391515,89.9037016 5.48819929,105.590042 24.1692921,110.896744 C42.8503848,116.203445 82.2479569,104.639697 124.982441,78.5474905 C153.472096,61.1526862 173.73243,38.1960791 185.763443,9.67766921 L146.723154,0 Z" id="Path-11" fill-opacity="0.1" fill="#FFFFFF" mask="url(#mask-6)"></path>
                </g>
                <path d="M239.125292,28.5695048 C260.832215,65.1112649 283.283567,75.9242071 306.479347,61.0083316 C329.675128,46.0924561 345.437322,28.1951723 353.765931,7.31648036 C361.03116,-0.626570888 364.663775,-2.04778036 364.663775,3.05285194 C364.663775,10.7038004 363.778824,23.9749761 353.765931,38.6345183 C343.753038,53.2940605 328.889123,72.4235303 309.539982,78.2414583 C290.19084,84.0593864 257.249971,91.0985768 236.978235,69.2491219 C223.463744,54.6828186 216.338128,41.1229463 215.601389,28.5695048 L239.125292,28.5695048 Z" id="Path-10" fill="url(#linearGradient-7)"></path>
                <g id="Path-12" transform="translate(147.706498, 133.604999) scale(-1, 1) translate(-147.706498, -133.604999) translate(78.706498, 0.604999)">
                    <path d="M76.7431962,54.6979961 C69.389889,120.714643 69.389889,161.932653 76.7431962,178.352025 C87.7731571,202.981084 140.165844,238.894115 136.886035,246.693585 C133.606225,254.493055 84.2292311,233.131369 64.2893955,207.967478 C50.780188,190.918981 42.799026,150.177583 36.6492499,116.690059 C28.7358336,73.5989411 29.352391,36.6237308 36.6492499,17.3388755 C42.1364869,2.83666696 60.2570708,-7.29434633 69.5472405,6.64764272 C73.1113999,11.9964655 75.5100518,28.0132499 76.7431962,54.6979961 Z" id="Path-6" fill="url(#linearGradient-8)"></path>
                    <path d="M15.7714029,256.594802 C28.7224438,248.712856 50.464675,218.401285 57.7420236,185.283705 C62.5935894,163.205318 58.316685,107.236982 44.9113104,17.3786977 L23.6100077,6.7114814 C7.87000258,11.2242861 0,29.8605937 0,62.6204041 C0,111.76012 23.6100077,165.894347 23.6100077,206.056297 C23.6100077,246.218247 2.82036186,264.476747 15.7714029,256.594802 Z" id="Path-7" fill="url(#linearGradient-9)"></path>
                    <path d="M27.5922813,261.911203 C48.3749902,233.006394 60.2059998,207.506918 63.0853101,185.412778 C65.9646203,163.318637 59.8947188,109.022124 44.8756054,22.5232397 L18.7400789,25.733829 C30.1541944,30.2577298 29.9379757,47.9752429 18.0914228,78.8863682 C0.321593376,125.253056 50.2236646,146.449012 32.2428567,211.336474 C20.2556514,254.594783 18.7054596,271.453026 27.5922813,261.911203 Z" id="Path-7" fill-opacity="0.1" fill="#FFFFFF" transform="translate(38.990589, 143.510491) rotate(3.000000) translate(-38.990589, -143.510491) "></path>
                </g>
                <g id="Group-2" transform="translate(202.340079, 28.569505)">
                    <mask id="mask-12" fill="white">
                        <use xlink:href="#path-11"></use>
                    </mask>
                    <use id="Path-9" fill="url(#linearGradient-10)" xlink:href="#path-11"></use>
                    <path d="M34.6381552,0 C54.5963836,14.8706817 65.743201,35.876832 68.0786074,63.0184509 C70.4140138,90.1600698 59.2671964,120.78266 34.6381552,154.886222 C23.0345349,170.367763 19.3738855,185.150495 23.6562069,199.23442 C27.9385284,213.318344 22.1727806,209.320152 6.35896381,187.239844 C-0.538075292,169.744551 1.76270662,150.792044 13.2613095,130.382324 C30.5092139,99.7677441 29.7343852,95.6403573 26.0877832,60.584665 C23.6567152,37.2142035 14.9672627,18.0475819 0.0194257464,3.08480031 L34.6381552,0 Z" id="Path-9" fill-opacity="0.1" fill="#FFFFFF" mask="url(#mask-12)"></path>
                </g>
                <g id="Group" transform="translate(215.601389, 17.383702)">
                    <mask id="mask-15" fill="white">
                        <use xlink:href="#path-14"></use>
                    </mask>
                    <use id="Path-3" fill="url(#linearGradient-13)" xlink:href="#path-14"></use>
                    <path d="M23.5239028,11.1858023 C32.0568396,24.4410828 38.5819574,33.3824422 43.099256,38.0098807 C66.0885773,61.5597229 92.0046517,60.6108817 107.454595,70.4028282 C124.858347,81.4330695 162.63019,66.4419181 180.413382,46.9956629 C198.196574,27.5494077 200.780038,32.800929 208.957358,25.7339508 C217.134678,18.6669727 214.438656,-3.3557407 221.849578,11.1858023 C226.790193,20.8801644 220.088974,29.8215238 201.745922,38.0098807 C184.786526,56.442717 166.770225,69.0675262 147.69702,75.8843083 C119.087212,86.1094814 86.2972963,82.7563818 41.4188585,60.6108817 C16.5497805,48.339105 -1.56801378,26.9877213 1.10510913,11.1858023 C1.46697623,9.04665844 4.91753688,8.2033424 11.4567911,8.65585421 L23.5239028,11.1858023 Z" id="Path-3" fill-opacity="0.1" fill="#FFFFFF" mask="url(#mask-15)"></path>
                </g>
            </g>
            <g id="Head" transform="translate(211.000000, 177.000000) scale(-1, 1) translate(-211.000000, -177.000000) translate(124.000000, 0.000000)">
                <path d="M38.9977117,0.174377058 C49.5131572,-2.47323914 92.0184182,31.1701533 125.417496,80.4467519 C131.746442,89.7844035 126.453359,105.815016 131.326766,116.512836 C136.123859,127.043134 151.101275,132.231199 155.574841,142.632637 C159.798883,152.453911 140.317154,166.09452 144.036472,175.88039 C176.81421,262.121642 176.81421,270.474111 171.183863,272.785482 C166.612634,272.785482 162.154314,272.900915 157.807046,273.116221 C161.983395,307.93966 161.637842,328.640775 156.773096,335.222397 C148.840606,345.954437 54.9418319,367.111989 42.6623591,342.109211 C37.3918278,331.377649 34.6296881,316.721896 34.3759397,298.141953 C29.7500945,297.875198 25.8641259,296.546903 22.6691616,293.756778 C17.4888137,288.4381 38.0960893,216.317246 19.9370415,183.927175 C8.01771497,162.666818 20.8316781,151.588221 20.8870262,142.632637 C20.9509603,132.287812 -0.258023067,118.946829 0.00237842166,108.935472 C0.281695655,98.196882 30.0371473,2.43049976 38.9977117,0.174377058 Z" id="Combined-Shape" fill="url(#linearGradient-16)"></path>
                <path d="M157.281782,0.174377058 C166.242347,2.43049976 173.331015,85.8916013 173.610333,96.6301908 C173.870734,106.641548 140.223982,128.847357 140.287916,139.192182 C140.343265,148.147766 160.365603,171.206666 148.446277,192.467022 C130.287229,224.857093 178.79068,288.4381 173.610333,293.756778 C153.961359,310.915998 108.177029,272.785482 25.0956309,272.785482 C19.4652845,270.474111 19.4652845,262.121642 52.2430217,175.88039 C55.9623401,166.09452 36.4806113,152.453911 40.7046533,142.632637 C45.1782193,132.231199 60.1556355,127.043134 64.9527282,116.512836 C69.8261355,105.815016 64.5330517,89.7844035 70.8619981,80.4467519 C104.261076,31.1701533 146.766337,-2.47323914 157.281782,0.174377058 Z" id="Triangle" fill-opacity="0.1" fill="#FFFFFF" transform="translate(98.139747, 149.111732) scale(-1, 1) translate(-98.139747, -149.111732) "></path>
                <path d="M85.6900603,307.172063 C126.173661,298.307865 155.159236,317.178115 155.159236,327.752975 C155.159236,338.327835 57.1483603,361.597468 44.8275875,338.170067 C39.7040615,328.427911 45.2064596,316.036261 85.6900603,307.172063 Z" id="Rectangle" fill-opacity="0.2" fill="#FFFFFF"></path>
            </g>
            <g id="Eyes" transform="translate(201.000000, 294.000000) scale(-1, -1) translate(-201.000000, -294.000000) translate(147.000000, 257.000000)">
                <ellipse id="Oval" fill="#EEF9FF" transform="translate(16.785407, 31.002820) rotate(1.000000) translate(-16.785407, -31.002820) " cx="16.7854068" cy="31.0028205" rx="15.3538698" ry="30.7252703"></ellipse>
                <path d="M10.9032643,49.1575436 C7.43155642,48.5486015 5.2504302,42.225335 6.03158253,35.0341327 C6.81273486,27.8429303 10.2603592,22.506954 13.7320671,23.1158961 C17.203775,23.7248382 19.3849012,30.0481047 18.6037489,37.2393071 C17.8225966,44.4305095 14.3749722,49.7664857 10.9032643,49.1575436 Z" id="Oval" fill="#1E466B" transform="translate(12.317666, 36.136720) rotate(-2.000000) translate(-12.317666, -36.136720) "></path>
                <ellipse id="Oval" fill="#EEF9FF" cx="91.5824742" cy="41.25" rx="16.2938144" ry="32.6785714"></ellipse>
                <path d="M83.7192814,59.3841039 C80.2475735,58.7751618 78.0664473,52.4518953 78.8475996,45.2606929 C79.628752,38.0694905 83.0763764,32.7335143 86.5480842,33.3424564 C90.0197921,33.9513985 92.2009183,40.274665 91.419766,47.4658673 C90.6386137,54.6570697 87.1909893,59.993046 83.7192814,59.3841039 Z" id="Oval" fill="#1E466B" transform="translate(85.133683, 46.363280) rotate(-2.000000) translate(-85.133683, -46.363280) "></path>
            </g>
        </g>
        <polygon id="Star" stroke="#FFEEEE" stroke-width="3" fill="#FF3877" transform="translate(50.500000, 382.500000) rotate(-10.000000) translate(-50.500000, -382.500000) " points="50.5 404.25 24.9313415 417.692239 29.8145208 389.22112 9.12904154 369.057761 37.7156708 364.90388 50.5 339 63.2843292 364.90388 91.8709585 369.057761 71.1854792 389.22112 76.0686585 417.692239"></polygon>
        <polygon id="Star-Copy-2" stroke="#FFEEEE" stroke-width="3" fill="#FF3877" transform="translate(430.500000, 266.500000) rotate(3.000000) translate(-430.500000, -266.500000) " points="430.5 288.25 404.931342 301.692239 409.814521 273.22112 389.129042 253.057761 417.715671 248.90388 430.5 223 443.284329 248.90388 471.870958 253.057761 451.185479 273.22112 456.068658 301.692239"></polygon>
        <polygon id="Star-Copy-3" stroke="#FFEEEE" stroke-width="3" fill="#FF3877" transform="translate(152.029964, 65.772537) rotate(33.000000) translate(-152.029964, -65.772537) " points="152.029964 84.2725372 130.281909 95.706166 134.435418 71.4893516 116.840872 54.3389084 141.155936 50.8057228 152.029964 28.7725372 162.903991 50.8057228 187.219055 54.3389084 169.624509 71.4893516 173.778018 95.706166"></polygon>
        <polygon id="Star-Copy" stroke="#FFEEEE" stroke-width="3" fill="#FF3877" transform="translate(529.793984, 323.505331) rotate(-10.000000) translate(-529.793984, -323.505331) " points="529.793984 340.505331 509.809285 351.011909 513.626023 328.75862 497.458062 312.998754 519.801635 309.752042 529.793984 289.505331 539.786333 309.752042 562.129906 312.998754 545.961945 328.75862 549.778683 351.011909"></polygon>
    </g>
</svg>